<mxfile host="app.diagrams.net" modified="2023-08-16T08:29:09.794Z" agent="Mozilla/5.0 (Windows NT 10.0; Win64; x64) AppleWebKit/537.36 (KHTML, like Gecko) Chrome/115.0.0.0 Safari/537.36 Edg/115.0.1901.203" etag="lyIheciGwHu8Zu9f_ZSn" version="21.6.8" type="github">
  <diagram name="第 1 页" id="C472aZt8CnpzpqDXjizb">
    <mxGraphModel dx="1379" dy="788" grid="0" gridSize="10" guides="1" tooltips="1" connect="1" arrows="1" fold="1" page="1" pageScale="1" pageWidth="2827" pageHeight="1169" math="0" shadow="0">
      <root>
        <mxCell id="0" />
        <mxCell id="1" parent="0" />
        <mxCell id="Eg9znYKyI77uhNzEZewx-1" value="" style="shape=image;verticalLabelPosition=bottom;labelBackgroundColor=default;verticalAlign=top;aspect=fixed;imageAspect=0;image=data:image/png,iVBORw0KGgoAAAANSUhEUgAAA8gAAAHsCAYAAAAO8IQLAAAAAXNSR0IArs4c6QAAAARnQU1BAACxjwv8YQUAAAAJcEhZcwAAFxEAABcRAcom8z8AAP+lSURBVHhe7J0HWBRZ9sXd2d2Z3Z397+xOzjPmPOacc845o2JCFAOiKCIGRDFjQhEVM4oK5pwzmEBFEQURs4iCCChw/nUejYKDCkho6Pv7vvcp1UV3U11d9c67956bC4IgCIIgCIIgCIIgQASyIAiCIAiCIAiCIGiIQBYEQRAEQRAEQRAEDRHIgiAIgiAIgiAIgqAhAlkQBEEQBEEQBEEQNEQgC4IgCIIgCIIgCIKGCGRBEARBEARBEARB0BCBLAiCIAiCIAiCIAgaIpAFQRAEQRAEQRAEQUMEsiAIgiAIgiAIgiBoiEAWBEEQBEEQBEEQBA0RyIIgCIIgCIIgCIKgIQJZEARBEARBEARBEDREIAuCIAiCIAiCIAiChghkQRAEQRAEQRAEQdAQgSwIgiAIgiAIgiAIGiKQBUEQBEEQBEEQBEFDBLIgCIIgCIIgCIIgaIhAFgRBEARBEARBEAQNEciCIAiCIAiCIAiCoCECWRAEQRAEQRAEQRA0RCALgiAIgiAIgiAIgoYIZEEQBEEQBEEQBEHQEIEsCIIgCIIgCIIgCBoikAVBEARBEARBEARBQwSyIAiCIAiCIAiCIGiIQBYEQRAEQRAEQRAEDRHIgiAIgiAIgiAIgqAhAlkQBEEQBEEQBEEQNEQgC4IgCIIgCIIgCIKGCGRBEARBEARBEARB0BCBLAiCIAiCIAiCIAgaIpAFQRAEQRAEQRAEQUMEsiAIgiAIgiAIgiBoiEAWBEEQBEEQBEEQBA0RyIIgCIIgCIIgCIKgIQJZEARBEARBEARBEDREIAuCIAiCIAiCIAiChghkQRAEQRAEQRAEQdAQgSwIgiAIgiAIgiAIGiKQBUEQBEEQBEEQBEFDBLIgCIIgCIIgCIIgaIhAFgRBEARBEARBEAQNEciCIAiCIAiCIAiCoCECWRAEQRAEQRAEQRA0RCALgiAIgiAIgiAIgoYIZEEQBEEQBEEQBEHQEIEsCIIgCIIgCIIgCBoikAVBEARBEARBEARBQwSyIAiCIAiCIAiCIGiIQBYEQRAEQRAEQRAEDRHIgiDoJSEhIbh9+zYCAwNlyJCRRePu3buIiIjQfSsFQRAEIecjAlkQBL3j5cuXaN68OfLmzYv8+fPLkCEji0bu3Lnh6Oio+2YKgiAIQs5HBLIgCHoHI1acnA8ePBh79uyRIUNGFo3ChQtj+PDhum+mIAiCIOR8RCALgqB3PH/+HH/88QdcXV11WwRByAqaNGkCc3Nz3U+CIAiCkPMRgSwIgt6RIJCXLl2q2yIIQlZQv359jBgxQveTIAiCIOR8RCALgqB3iEAWBP1ABLIgCIJgaIhAFgRB73iXQH7xIgpX/AJw3scvfly6nnTotvsHBONVTIzutwRBSCsikAVBEARDQwSyIAh6x7sEcuDte7CftwqLXNyxdM02OK/emmQsW7sNDk7rMW/pRoQ/l9Y02Y7oZwi55Y+TN0LxSrfpNa9CcfvKGRz3uoTgZ7ptQoYjAlkQBEEwNEQgC4Kgd7xLIN8IvAPH5ZsRfOcuwsKe4cmTJ0lGxPNw+Fz2g+MKdzwLe677LeHPRCH8QTCC/K7B95I3Ll68GD+8r8D3+mOEx+p2i41E+KM7CHhrP+/LV3EvLE63ExAT+RQPg65rn08wnkbpNmpEPdVewz8QwY9f4KVumyIqBDf9LsP7ojd8rlzD7cfP4wXxEy9stzVCnia2cA0MRSwiEH4nELfvaJ+t/27Mavs7/lGwMWaeUs8iZAIikAVBEARDQwSyIAh6x/sE8mJN/D548BCvXr1EVFRkkhEb8wq+125g8UoPEcjv5QLcBzZEha+/ww+//q76TefNmwd5cufGLz+aYOqpYIRSJEd6wcOiGUp88x1+/DV3/H558uC3H79F2wl7ce5hDCiTQ7wWw6LOV/ipWB2M3a59Fuo1tFdZ1hzVfyqLlhOO4oZuW1zkXQQtH4wyxQogT97c+PX7L1Gl20xs849GTNwtHHc2Rtvv8iGf6TKcu7MNK1uUQcO2Djh6YA+cOvyMT36rCbv9kXjy9CmePg3Hi5ex6j0IGYMIZEEQBMHQEIEsCILe8d4Isstm3AwMwqNHD3H33j3cvasN/quNkJAQnPO+IgL5g5zGmlYF8H+fFkftyRvh6empjRM4snUkOn7xI75rPwvbbr0EYs9gZZfC+OlfRdBm8u74/c4cxYYRNVHo159Rz3ILLkVqn5fnDJiUzIVcub7Eb0ZrcU7bRs46VET+XD+g8rC9uKq2vMBjbweMLvA7Knabh03Hd8O5f0H88llxNLc5An+8woun3jg7ewDqF+oMu62LMabMr6hQwwbbt+2AU/ei+PbXAuhmbIr8BYuiULHumLL7Dh6p5xYyAhHIgiAIgqEhAlkQBL3jXQL55q27WLp2O7y8LqB58+YoWbJkkmE6cCDOXrgM59XbNIEsNcjvxhPr2xfDl980QK+dD3TbNKIPwqHRl/iseC9MOxOqbbiAdT3+QMEf62DkDp3qJU/2Y0rzr/DVHx0x4cQzPLy8GCOqUyD/Bbm+LYO+q68jNBq46lwbf/wzL2qPOgA/9YuPELTZBDU++Td+aLEIJ5l3/eQyzuw9jFOXHiDs1ilsWjIWXRbuxMUTF3AzZBdm1iiE/F/+isKFCiHP1//CZ3//BJ9/ytfiqIABa2/irnpuISMQgSwIgiAYGiKQBUHQO94nkBkdPn36LKZOtcfIkZZJxuJFi3HsxFksWbUVz8JFIL+bBIHcEL13JYq/vtiCKSX+jVwlB2LBhXBtw3msNSqBAj/UwBC3REIa0ThhXw55/lMcbRbexMXrThhR7e/49NPv8O3XufBj+dnwuBOJs+saovQ/EgvkewhY3RflKG7/rwAqNJ0Fj1vqgXiCD2Fh7xL4pWR7zDpwBrtnt0bDH/+FT3L9ilKlq6Ncle/x6Q+l0XXYbEw3qoPvvmqIAWv8tWcVMgoRyIIgCIKhIQJZEAS9490C+R7mLdmAk6fOIjDwNgJvBWv/6ob2/4CAW9i97ygWrfBAmAjk9+CF9V3L4fd//Ii8tduid98BGDRsBIYPaoayVTpi0OLD8HsaC7w8gzXJCmTglENFFPlbITSfdhUn/RfCrMIX+OWX1ujdpSA++WcFtHe5hO1OTVDtP/lQ67VAjsCzCxswsfrXugjwdyjStDfGrDyESyHaw69C4L9HE791CuGLou3RY2BLNPz9K+QuMBjOS9ZgRv/C+FeJjljjGYPHLkOR98dG6L3CTwRyBiICWRAEQTA0RCALgqB3vEsgBwTFC+RDh0/A84wXTp3yTDK8vM5i+86DIpA/CAVyeeT+7FvkqdEa7RqUxS9/oWD9O74bcwiPElpIR5x4v0D+e4JAXoCBJf+DQmWnYMUeBzSr8jl+qmwO024lUPy/RVHPMkEga8S8wN2DczGyS3n8rkSyNr5vALMlV3FXvW4Moi7swJRJTnC/shnTqxZA7abTcHD/Pizr9Bv+Xqwdlh6LwKPlZsj7VW10cb6KO+qJhYxABLIgCIJgaIhAFgRB73i3QL6LKQ4rsHy1O9a6bcOa9RxbXw9Xt+1wXLoBDk4bRCC/F0+s7xBfg9zvYDQQfRWbRubFj7n+gT/aO+PIrVfxbZciT75DIEepFOu8/y6G1vNv4MJ1TSAX/xS/VnbC1vBHOLWgKop/+gO+/v4f+OdnZdFsbCKBnED4ISwz7Yam5Qvg20//gfxN7LCFLxEbidCAKzh9JhB3I7dgVrXfUKnuZOzeuRNOXfPjPwVqYrzDZkztVhf/LTkQMw49QFj8MwoZgAhkQRAEwdAQgSwIgt7xLoH84GEIVqzfAec127B83Y5kh9PKLXDbehAvIhM15BXeggK5OL76ui66bQzSfo5B+PUlGP7NP/G3XMXQwtEbt9jmKfYUVvf4AwV+rA2L7YkWHKLPYm6HH/BV0TYYeyQUDy7PQf/in+Gncg7YFRONl4HrMarkf/CpihBXRCubA7iufi8cj66fxemzl3An4elOTEXr33Lh/yoOxQaGgkPPYL1ROXz1VVdYn1iGCfUKoEY9O+zZsRULOvyOf371Gzr3HoyiZcsjn/Fk7L38EBFJmiwL6YkIZEEQBMHQEIEsCILe8S6BHBcXh5iYGLx69f4RE0N1J7yb01jbqgA+/3dVtHfVxXYjgnHStiF+/lwTtZXMsNQrFNGvzmF1tyL45f9KoMvsE/Dz89PGJfgu6Y/yBX5ClcHrcF4Tus+9JqNngVz4qtgUeGiHPg5RODW7Ekr9jwL5DzSy2hcvkB9dwY7RNZHn56/RYtJRnL5+E9dWDEDdPEVR2mg1vOJi8OTCAvQr+nf878fmsNruDOuKBVCz4VTsO3IKmy3qoFj9Plh5RdPRd7ZjdutfUXvwchwJks87oxCBLAiCIBgaIpAFQdA73iWQhfTiLDZ2K4eff2mMXpv9dduAF/d2w77V9/j2P1+j8YTDuHnXH7tG1EOBf/8X3/yUG3nz5o0fP36NZqM9cDw4CpSmIWdmwrTcf5Gvymxsi45/rpgXWzC3YWF8968yaGF7COpVYqIRenUvZnT5D37++Tf8zuf65VtU7TYdbn4vEB1xCfutauAf//4RtcbtxrWHu7Go+s8oV3kYnI7dx92Aa/C9HoB7oaF4dHUuBv/4BT5vbIct/pJOn1GIQBYEQRAMDRHIgiDoHSKQM5oIhAb4wtvnOgJDE6eiv8SzWz7w8TwFn4AneBEVjbA7/rh01gunTxzFkSNH4seJ07j5+E3U9uXzBwjyvYBLVx+A5tfxaM+lvYbP+SvwvxeOxK/y/O4FnDt9DEf5XMdPw/f2U1BXR/iuwbian+CvXzfDmMOR2u+E48SEsij985f4IX8JlCxbHhXLl0WpP4qgcL5v8b+/VUCH+V64HpXgKiakNyKQBUEQBENDBLIgCHqHCGTDJPppIHyOemDPAR8EhjNVm2L6NI7t2Yj1a1dh1ao3Y/WaDdi0wws3nsRA5HHGIQJZEARBMDREIAuCoHeIQBYE/UAEsiAIgmBoiEAWBEHvEIEsCPqBCGRBEATB0BCBLAiC3iECWRD0AxHIgiAIgqEhAlkQBL1DBLIg6AcikAVBEARDQwSyIAh6R4JAXr16tW6LIAhZQaNGjWBubq77SRAEQRByPiKQBUHQOyIiIlCiRAnMmDEDt2/fliFDRhaN6tWrY+TIkbpvpiAIgiDkfEQgC4Kgd0RFRaFs2bL47rvvUKBAARkyZGTR+Ne//gU7OzvdN1MQBEEQcj4ikAVB0DsYQS5ZsiSGDRuGXbt2yZAhI4tGmTJlMGbMGN03UxAEQRByPiKQBUHQOxJqkF1dXXVbBEHICpo0aSI1yIIgCIJBIQJZEAS9Q1ysBUE/EBdrQRAEwdAQgSwIgt4hAlkQ9AMRyIIgCIKhIQJZEAS9QwSyIOgHIpAFQRAEQ0MEsiAIeocIZEHQD0QgC4IgCIaGCGRBEPQOEciCoB+IQBYEQRAMDRHIgiDoHSKQBUE/EIEsCIIgGBoikAVB0DtEIAuCfiACWRAEQTA0RCALgqB3iEAWBP1ABLIgCIJgaIhAFgRB7xCBLAj6gQhkQRAEwdAQgSwIgt4hAlkQ9AMRyIIgCIKhIQJZEAS9QwSyIOgHIpAFQRAEQ0MEsiAIeocIZEHQD0QgC4IgCIaGCGRBEPQOEciCoB+IQBYEQRAMDRHIgiDoHSKQBUE/EIEsCIIgGBoikAVB0DtEIAuCfiACWRAEQTA0RCALgqB3iEAWBP1ABLIgCIJgaIhAFgRB7xCBLAj6gQhkQRAEwdAQgSwIgt4hAlkQ9AMRyIIgCIKhIQJZEAS9QwSyIOgHIpAFQRAEQ0MEsiAIeocIZEHQD0QgC4IgCIaGCGRBEPQOEciCoB+IQBYEQRAMDRHIgiDoHSKQBUE/EIEsCIIgGBoikAVB0DtEIAuCfiACWRAEQTA0RCALgqB3iEAWBP1ABLIgCIJgaIhAFgRB7xCBLAj6gQhkQRAEwdAQgSwIgt4hAlkQ9AMRyIIgCIKhIQJZEAS9QwSyIOgHIpAFQRAEQ0MEsiAIeocIZEEfePXqFfz9/XHmzBmcOnUK+/fvx4YNG7B48WJMmTIF1tbWGD9+PGbNmoU5c+Zg2bJl8PDwwI4dO9S+Xl5eePDgge7ZsicikPWf0NBQ+Pj44PTp0zhx4oQ6/1avXo158+ZhwoQJ6jy1s7NT5yi3rVmzBtu3b8fOnTtx7NgxeHt7IyYmRvdsQnaHn//8+fPV+SAIQtoQgSwIgt4hAlnICp49e4aAgAAlGlatWqVE8ODBg9UwMzNDv3790LVrV7Ru3RoNGzZErVq1UKdOHTRp0gTNmjVDu3btYGRkhN69e6N///4YOnSoEtBLliyBq6srjh49ihs3buheLXsgAln/4KLL1atXlcDlYo2VlRUGDhyIIUOGYNCgQer869SpE1q0aIG6deuq85SfY9OmTdW2zp07o1evXmo/U1NTmJubY/r06eo83bJli1rYefjwoe7VhOzC4cOHMXnyZHTs2FF9zrxmrVixAp6enro9BEFIKSKQBUHQO0QgC5nF3bt3VYTY3d1diYTRo0crAVGxYkUlKExMTLBgwQIlHhg9pnimyH3x4oXuGYCQkBAlWq5cuYK9e/eq6Bz3ZRSHwqVUqVKoXr06unXrhrFjxyqxzP0uXLiA8PBw3bPoJyKQs57o6Gj4+fkpAbRy5Uq16MLPpEGDBqhatSratm2rziueo8xi4Pl37tw53LlzB3Fxca+fg6KX2yiYGGXctm2bElA871u2bKmuuY0aNcKAAQPUNu7D17x+/bp6DkE/CQoKUp97tWrVULp0aXWO3L59Wy2e8PPkgh4zCrifIAgpQwSyIAh6hwhkISOJjY1VwpgCYNSoUWpiSUHMSPCwYcOUaGDKamRkJF6+fKnSTzn4ex+CgoSD+/J3KEx4PlNkUIRT3FDU5M+fH82bN8eiRYtU1JrRa31EBHLWwfPP19cXy5cvR/fu3VGmTBnUqFEDHTp0wKRJk7B161Z1HkdFRalygIRzNEEUv4/E5yl/l8/BVG1Gjym2KJKLFCmiFneMjY2xe/duBAcHq/0E/YDXDH5e/KyKFy+url1cvEu4TvF84LWF399ixYqpDBguBoaFhanHBUF4NyKQBUHQO0QgCxkBJ45PnjzBoUOHVAp0vnz5VEo0oysUsPfv31ciIaNEAMU2J7UUGnw9CnFG7urVq6cidowo89xPmODqAyKQMx+eJ4GBgapWmOnRJUqUUHXE+/btUxHgR48eKZFDYZsRUJgzK+LWrVsqEs065po1a6rU3fXr16tIpAjlrIPZK+fPn1fXDKbQM+OFngfvEr685jCroE2bNmoxcObMmUo48zwTBCF5RCALgqB3iEAW0humMlNgsPaS9cMJETgKkaya7HOiy7RsplyzXrl27doqGsT39fTpU91eWYsI5MyF4pPXvcaNGyvhw/R+Gm9lZU0wBfnJkyfVe2FtM88J1rqePXtWrxZzDAGWcrAMpGjRoqrenCnwFLsfgtkCvNY4Ojqiffv26hrITAFZ6BCE5BGBLAiC3iECWUgveC65uLioOjzWas6ePVtFW+7du6fbI+uhyKDpElNpaQhG4y+a7GzevFm3R9YhAjlzYEYB64gTaoAZPWY6bEREhG6PrIeRyOPHj6vIZZcuXVS6N02+eO4KGQszW2xsbFQpCFPeGcmn4E0tXJTjeeXg4KD8FSiW586dq66TgiC8QQSyIAh6hwhkIT3gBJITQDpMM+LFFkz6WuubAIWSs7OzSv2mCRPF6cWLF3WPZj4ikDMeOqYzhZnCh8ZKjNbqM0zBZlTb1tZWLTyxTIDto1i+IKQ/vG7xGFepUgUjR45UpRgfC70ReJ4xk4bXGS4e0iNBEIR4RCALgqB3iEAWPgaePxs3bnydSsga4+wGU22dnJzU+2/VqlWWtWoRgZxxMDXW3t5e1Rkz9Z/1vtkJZj6w1y4j34xsWlpaqnRsIX1gpJe158wqYMTezc0tRQZsqYFGXnTcZ4s6ftf5eqxvFgRDRwSyIAh6hwhkIa2w1zD7f/bp0wfDhw/H5cuXdY9kT2goxlpUpl7z+0CTpsxEBHL6w+gdFz/oKtyzZ0+V9q9PqdRpgcZPdNdmT2a2j6LwEtIGo/N012eqPa9jM2bMwOPHj3WPZgy8rkycOFG1tuNiDevN2VpMEAwVEciCIOgdIpCF1MJzhk6tbJ3ENkqcpOcUGE2miGKqOCfOjDSmdyTpXYhATl/4WbLmky2bevToodry5AQoiBnxpHEU6+eZKq5Pdf7ZgUuXLqnyCvZLZ333tGnTMn3hhNFjXmNoEjdmzBh1TWXZhyAYGiKQBUHQO0QgC6mBBjackNPcihP0lLi6ZkdohsRWLRTKjCxnhoOwCOT0gxE59qrlecrzNbtHjd8FSxqYcm1ubq76NAvvhy212JOdpRTsjz5lyhRV551VcLHD29tbtfdi+n/v3r2VsSHfpyAYCiKQBUHQO0QgCymFIsPOzk5FXJYsWaJcWnMy165dU8ZITZo0wZEjRzI8kiwCOX1gqn/Xrl3VAgdNljKqh7E+QIG1bt06VKhQARYWFiKS3wFbLHExb/z48ep+x1IKGmfpS+slinRmBXTv3l29P7po+/v7qxIBQcjpiEAWBEHvEIEspARO4CiOq1WrplokZWXUJTOhSKbrLM17KJIzEhHIHw9TZ2myxIWN7F4Tn1JevnypzJ8SIsmZXTuvz3AB4ebNm6oPMbNBuNjFtl7scayP8H3xXsxrAU0DV65cqaLJmVXmIQhZgQhkQRD0DhHIwodIiBxTHK9YsSLHR47fhi2s6DzLFi00JssoRCB/HGzRRXHM9FlDEccJJBbJTC2XSHK8QRsNsEqVKqUixux1zgUUHit9hlFt9sDmNZdGXlygY1q4IORURCALgqB3iEAW3kdYWJjqa5wgjvUlJTGz8fHxUc7BFLHHjh3TbU1fRCCnHRoederUSUWODbV1TkK6daVKlTB06FCDjSTzOLAEhPXn/M5SJNOtOrvBXte7d+9W/ZNZm0wX9vXr1+seFYScgwhkQRD0DhHIwrsIDw/HokWLUL16dZVWnRlGVfoM61kT+j1nRCRZBHLaYK1m3759VeT41KlTuq2GC1OIKZKHDBminLwNCfaKZrsm/v10Lt+zZ4/ukezLs2fPlMM1W+rVrVsXJiYmcp4LOQoRyIIg6B0ikIV3sWXLFjUhY/2eEA/TeJnyyEhlejt4i0BOPcxoGDlypBLHTEsV4mHtKtOt2W9X31OK0wO2R2JLL34vmZbMqDGzX3IS7CDAv5GlHjzf582bh8DAQN2jgpB9EYEsCILeIQJZSA62OWLdHusZhaQwhZf9Z9m7ND3bB4lATj1MKa5Xrx42btyo2yIksHDhQiWm3NzcdFtyHjTRmz59uoqusqcx+wpzW06G5R6mpqbKOJB/N2vP9dV0TBBSgghkQRD0DhHIwts8fPhQCbXGjRtLhOIdsDawZs2aKvUxvSJ0IpBTB4UQ60zZQ9bQjONSAhdvuIjDdle3b9/Wbc0Z8O9hhguFYoIxmSHVXDNz4uDBgzA2NlbXaXt7e1X2cf/+fd0egpB9EIEsCILeIQJZeJsZM2agXLlycHFx0W0R3ob12TNnzlQmQOynmh6IQE45rMtkqjtTTQ3VlCslMNrYv39/DB8+PEekHFP0e3p6YsCAAciTJw8GDRqkhLGh+iPweLD93ODBg5VXBCPo3t7esmAkZCtEIAuCoHeIQBYSw9Tqli1bKhdcQ6hd/BjY/ql79+6wsLDArVu3dFvTjgjklMGesJs2bVKRQ0bwDd087n3w2Kxdu1aVBNCFnq2PsiN0pn78+DEWL16MChUqqNRxd3d3tVBi6PD7wOOwbds2lXbN48PjxLRr+W4I2QERyIIg6B0ikIXEGBkZqUlWTq/jSw84aT937pxKcaR5zsciAjll0JCJvW3Z/iY9a8BzKrzGs+0Ra7WzY7Sdwpjp1PREqFWrlspwuXnzpoi/t+D1iAucCW352PaMpSCG2ppPyD6IQBYEQe8QgSwkQJHHSTQjTkLKmTJlihLJO3fu1G1JGyKQPwydw5kyzNR2tncSUgaPW9euXVU7rOxUq+vh4YEaNWqo7xdFPvsZ5zR36vSGbtdcUKC7O1vSse3V2bNndY8Kgv4hAlkQBL1DBLJAGJEpVKhQujszGwKMaNIIiRPSj0n5FIH8fphK6uzsjJ9//lkJJSHlMLpIp+8EY7lXr17pHtFPuNjE71Tz5s2VCRvThyUSmjqCg4PVYifrkpkZxHrtw4cP6x4VBP1BBLIgCHqHCGSBdYkUHozS0AlVSB0Ubvz+MLJ54MAB3dbUIwL5/dBRfciQIejVq5eIpTRw7949WFpawtraWoknfYRZAVZWVspwqlmzZqpuWvg4+LmzLzb9Eli7zQUHyb4Q9AkRyIIg6B0ikAWKjSZNmsDJyUmdD0LqCQoKUqmMjMCnFRHI72fHjh2qBODSpUtSf5oGeMz27t2rFsL4rz5BEcdoJyOddevWhY2NTboY3wlvYJbQ6NGjVco6jzN7iIeEhOgeFYSsQwSyIAh6hwhkw4ZO1cePH0fRokU/Kvpp6DCKzMln06ZNlbt1WhCB/G6ePHmCcePGqRRhIe2wfzCjiBSgPKZZDZ2Wly9frpzgu3XrprIwjh07pntUyAj279+vDM8YoWc2wb59+6SsRshSRCALgqB3iEA2bO7evat6ybKvqERsPo5Dhw6pdjoUH2lBBPK7cXNzU5GvRYsWqcUIIW2w9njOnDnKvIkOx1kFjaTYP5zflfLly6Njx464ePGi7lEho6Ez+IYNG173EmeJDR3OxQBNyApEIAuCoHeIQDZcKDS8vLxQoEABZdwjfBw8npzwc8KZlh7SIpCTh6nBrEutWrVqDk4JjcGLZ5GIyQTtz3RmRpEdHBwyfbGBZmE3btyAra0t8ufPr4y42CotMjJSt4eQWfB79fDhQ+UUTodzttCaNWuWcjnn5yQImYUIZEEQ9A4RyIbLo0eP1CTZ2NhYpV4KHw+dgplmTdfd1NbJikBOngsXLsDU1BRTp07VbUkB0c/x9GkoQp9H4dXLl3ilTfijo14g4vkzhEcl87nExWifV1z8vtFRePkh3RgXi9hX0Yh6GYs3u8Zor6Nt1/3E53yZ6IliosIR9kx7T0+fISz8BV5ERiHqRRhCQ+/hXrAb7AbMwvpd3rjPxyO0953kbcYhJvKF9nra+9RtIXExr/BSE5fRmp5JjdQdNmyYavnEvrmZBdN4t27dqs7zSpUqYcGCBSloOaUdw2jtM0l6MN6gHePoiDBERMXE//0xkYgIf4anodpx5uCxDNN+5rmgtj1F2PNo6LeHt0asdm5FRSP6VeJPNQ5xryLxIuoVtNMs3WBWwf3795UHReXKldXiCT8n8aMQMgsRyIIg6B0ikA2XU6dOoU6dOsqsJS0RT+HPMEWRQq5du3aprusTgZw8EydOVJFGmnOliIi7ODevKyqVL4WiJktweqsTNm89hukOkzGufy20nLofQbpdX3NpLXbs8cI6t13Yv2Ialp7VNIruoWR5eg03ts7DmPX+eKQLfj49MANT5zhj1QX+dAs+2xxhYbUZvrrHvVd2Q4eaxVCseHEUr9Ebvcc7YqV9R5QuWRRFi/yE//3zK/z0a34ULf4HqhlNwprzb76T0aHecLO0gNMePwS/1kwvEXB4DRZZ2mJTgCZ0dFtTAl2M2Ut65syZui0ZB6PDrCvmIgfdqdkOLWVRY/6hp7Bysgu27buB5HzLY6N8scW6IfpYLcexJ8G4vtoCXYtrx7hoMRTncdaOJe9v8f/XRrFqaG++Hif0PJM47OBM2M9xwgqvaN0WjbBgXF49EhZLTsDngW5bOsLrFdunmZmZoUqVKqotlPRPFjIDEciCIOgdIpANF7oC586dW/XxFdIPuvHmzZtXucamBhHIyUPzptatW7+/d+9DT7jb9UaVqtVRvVFbmE1cguVrXbH28BU82DUZE+2XwmqNJ84cnocZIywxsNMy7A+Nei0qA1e3Rv8hwzB15xWcX+OASTZuOBZyCqvHNEaTqpVRuXJVVK/dAUPnHIEvfyHiCvxXjkHnJVfx+PlpbBnQFvXz/BdffPkdfihcRRMYJVH0t2/wz3/9gmJV66Hv/JM4e2Yvdm9xw1rrdmjZuDXazfLCLb/j2L59Ezaut0LXusYYPXUFtjkNRj+ziZiwP0EcRSHy2ioMHDgTe72f6rZpRF/B7lX2MB3lirtpyIjlMWVqbUZy5swZVXJAc7Vp06Zhz549KsU75RzAjL72WLnpHdeo2FAEnlmCSd2roNfEPujfsC96FO2NcRs2wWPbGqyxN0KFxoNgP28Ntm7bhq3u27H/5HX4+x/HunEN0LB2DVStws83flSp3h7D552Av1qEiMTTmxvh0LIJGtas+ma/KtXQ1coFJx+rd6DxAhGX1sK+W1uYTtuDK4mqAML892LDnJ6YuvUmnulOtjt7xmBou6q616yKZr3GwO1a/GPxhOPEhNGYNHc9jr3QbUIcwoPOYGVfU0w7fhOPdFsTeOa/D27a60zZdgthPG0eH4TLsG5oqv191V7/fVVQvUkXjNsajIj3nC/MJlq2bBlMTEzQqFEj1RpM/CmEjEQEsiAIeocIZMPk6dOnKsWRk9dnz57ptgrpARceOCGlOEhNjacI5D/DRQa2pGEU+b1EP4L/iS1YPH0UrHq3RYcViYSknzOmOqzGooQA9L2rOOJ2Bfd1PwIBcLcxwRir+fBi0P/WGRyZaoEJh69hr+tszLGbjMmTR6FLxcroNHQeVhzzwPy+tVGnTGH8XqYRmoywxbzpMzG5ewWUKlcbDQcvwKLF4zGiU03ky98YfW3s4HLgBuLfkR82zR4H41mzsXbHKszt2hN9+vRCL6P6KFugIuo164I+HWuhUulSKFB3KCY678S5PTPRvUEhfPFbOdSt3xKdu5pjhvst3L11GIsHV8W3BWqiQ5tWSvB26DIJS4/cRUr8qRnR7dmzZ4Z8/5kWT0dqto9j72oKLhpDvY+nvluwdFwndO7WC907tUXrVi2161MVFM9TDGXK10Ez7VrVpn0X7e83Qm+TYVhxOvp1VPnFxQ3YtnsmxnWYhMltHbHnxg44DjdGr2Zl8EP+ymjauhv6DhwCa+e98A3XdPVlF5g3yoW/lO8AC2tb7fPlZzwZNp3qonxjEwzeHoBYTSDfO22FHrn+ghL1hsJ8Qvw+k22M0LlmeXTqtxDHldaPwPMjY9D8n7mQ679GmHb4CRKWNh6fccT4Tl+ixezLeBj+Cjf22KBbm0po1NsMk/hctmYY2KI8mrWYAA+fV3jx6ioOTuqJOj/kRaE/KqF+587oMdIB27zvIeTUAvT8uQDKNWqMZtrn3apdJ/SfvBrH72iS+rwzJnb5Ek1neuMxRfWtJTDNkx8FirdD34m69z3ZCiMHtUHbapPh5hWKDwXRfX19MW/ePAwePBi9e/fG2LFj1TZBSG9EIAuCoHeIQDZMfHx8VB0ia5BfvHgdphDSAaYl9ujRQzkupybNWgTyn3F1dcXAgQM/4LgcjWAvN7hMscaEUQMwsGUVFKrVBT37D1JpooPaVEWFKnVQtc0A7echGDbSElY242G95DCuPYvFq9uL0XeQHWZvuY+Xd4/i1GY77Nh1GLuTdOt6hRN2QzShPherTu3FypFt0a5maRSo3gsmC45BxTcjLsP7wn64r1wN+4njMcHRFe4nE0dL78Bnmi0GmSzF0uAHePlwL1YM1wS91SiMsmiPmiXqoW2PIRg7qBXq16iOUu2mYO6KdTgwuzvyVu+G/oM0MWXSBbXylkKnScuw1G0j7Dt1gPFQU/Tv1w99e/ZAvcKVYeJ8GldTkG/N85MCme7r6QVN1Ljwxl7L1apVU8KMi3EpIcx/H5YOLoF8X+bClxV7w8TUBCb9m6Bi0YqoVbc9TM1GoE+LEvjjh1wo3G4SNp4Lx/PzW2Bn44F9KqT6GEdHTYJNfXPMcBmEynkboNeoCbCfMgnjbawxvGUJVGhlhplngDjflRjV/Sfkn3RIk8GJeOyG0Y3boo6RB4K0z/zuaRsM/vF3DFv+BG8qcsPhN68LGpasjNZL/bWfnuPFmVno/lMl5P3iO5SYtBg77sSnxz8+txz2ffKh+5JruP/YH279/4d8TSyxMkA9rHi0bSRa/J4LJScehP8jD8yo3QCtWvbAYLNBGNCsPCrXa4/ec47g9Lye6Gc8GH1MTDBA+7z7tSiLym0tMO0k8NJ3NWb0y4tOCy4jhH9Q0AoMK9YQ3Ubsiz83dcTeXYfJZYrDzPkaApPLWU8GPz8/lYrfsmVLNXjeSP9kIT0RgSwIgt4hAtkwYZSzffv2OHz4sDiWpjOMlLEOuVOnTsr8JqWIQP4zY8aMwdChQz9gIheFGwccML5bUzStVxU1ShVEnoot0L5LD/To0RUdm1ZAwUKFUbh0DTRr2gwtWrdHh+7GMJq6FT7hATg1piF+bWSCiWfjEHHIEjb9KmDiUd1Tv+Y+do7tj1EjF2AvxWfcHYTumQyjZSdx9NAdxGgy6/GNQ9jp7oj5E8wxoEdf9B0xB4u2nIZvwhrJw1UwLVAVVSv2w4TVu7HrjC+ue+/ACpfFWLxwMFpX6wTT0bOxfKoRug4YD9tT2u+8ugK/1Tbo7/om3uc5xRyThjRA9wmLMXdl0vPrxJRemLH5GHxSsObl7e2N7t27Y9KkSbotaYe190yfHj58uHJD7qcJODrkp5rYQJxZOxBTnNcjQCVf+GON1XLs93wCxPjB220iVrkuwfkEcXd6GUxrdUa17k7Y5HMYG6ztMbGBBWa7jkHTar1hs8BJRa855ps1RoveYzCf9eVX4gVyPk2UJjlUYe4Y36g96nXeiBsUyGfGY/APv8Jknj9uJRaU9/fAoU9blGjrAm+E4umphej1+xAMH1EVZdq2xwgHb004A8/OuSiB3G2JLx48uY595iVQtlJT9J2f6LyIuY3j64dj8Nq9CHzogVlmy3DAR1d//mAntkwzQo3+s2E5bBLOJ/bN8l+BubMcYaedq1FX3iGQzffCL35vRaS3E8zL50V/p6sI+FAJ+FswI4YLKnSTNzc3V33zxX1cSA9EIAuCoHeIQDZMOGGsWLGiavMhpD+MeJYoUSJVKYkikP8MI1acjKec+7i/fhTqDXLEyo07sGPHSe0zWIcJUxdjvmugbp8nCDpxFXfDXiIieBGsSv6EvxTrj+kXYxBxbAKmDqmFqYffNr1KEMiOOMgfn5zEgYktUKH9EHRubIYpjgsxuU9R/O+/P6JIvwXYsX0+rJuVQa4fW2HI/A3Y6OmHhxe2YsrQjqhduxQKlmiKJj2nYZXTUE20N0CDeqWR/6dCKFW+Buo3boauVk7Ywyhj+BVcdjJD7T4zsWjlBmzYsBij2rRDb+24DLafhvk7ziJIJ7Rinz/BrnE9YL/pOC6lULewzpRmXal1XE+A9w86to8fP16lwnfp0kU5uaeaiLu4dnoP3Da6Y/V8K/Sv9SnqmjrC2X02BrfsC8sJUzC6b2FULlYc3aZug8emzXDf6o0AuoTfcMe47lMxcccaLJkwAxPrj4LDuqGo9UtxVKnXQNXRctQtkwclW1nA6aJ2rK6tg3XH/+E77WdHF1esX++GzVt3YvP4AWjSbgD6ufpqn38U7p0ej0HJCWRcwC7zIWhbfi72xz3B45MO6JVnMGYc24WVI3qie1M7LL/7Cs99V2B637zo6uiLkOexCDs0B4PaFEfugrXQzmKB9rrrsXHHMZxKuAzHbMeUNv0waowD1m7YANepQzCku3ZODLKF+YRV2Ob98I1b+dmFsLefj6nHkhHIt1fColQlVG9oDru169XrrF+/AHMHt0azSjZYcuKxLuU/ddDMcc2aNSp1nkaEs2fPVgshaT1/BIGIQBYEQe8QgWx4REdHq5S5GjVqvN/4SEgzp0+fVn1e9+/fr9vyYUQgJ4XXJrac+WD9sUb0s2AEXPaE5+HNWD2sEb75OR8KFy2GYsU6wGbzCtiOc4Lz/CN4/PQy9jmYYVDVCXA5cR+n5vSEWbuK+HtbO8w4E/kBgTwAY8Y4YuejR7i2xQr9KuXFbwWGYtLkfqjfqA8GDTZDT6NmKFe+AipWrIAKLTqjqe0czDWpidpWy3HownU8evYC0bHXsHP5HIwcsBSe107i1KkjOLzfHn2bDIbdvI04fOoUTntdgd+DCMRF+MNnTlf88Es+5C9YGIUL58fPXxVDuwlH4LF/MZxtmmOKxxU8oHiLeIo9qRTIjPjWrl07xWnQCURFRakyjblz5yrH47p166oIcpq5cxjLR7RC4SJFUKRocRQvUQKlS/6Cr3PlQi5tfPK/X5CvgLatRHEULVoURYqURfka07HxwQvERj3BzbuPtGNwQfv77WHXdARmrR6NxvVGYem+Y/A6fx5nPc9gr10HdOgzCjNPA3E3NsG21d/w2de/ID+zCwrnwfef58Jn/6mL3vMv4q56U+G4c8omeYH80hPug0xQv/w8nUCeg56/a5/f3iAEX1qCPi0boeWsE7h0ZTNm98uHLvO98eh1qPoq9ll1RZPCfN3CyFuiIiqMWoug0Bd4FbMTM6qVwh+/5kUhPp77B/xWqS2sl5/G1U1T0NB6CdZdeITnPDkvOmLquwRy8GqMrlAA3/3vZ+RWf1/8KF2jOez3voCm1T+KgIAALFy4UH0/afS2efNmlYot3RCEtCACWRAEvUMEsuFx7do11WrFxsZGVv4zCEaOaZrEGlqKiZQgAjkpO3fuRK9evbBlyxbdlndz7+gMjGyRF3lz/4Jf85dAiylHcT34MR4/DsOLuMc4MH0OFlgPh834tmhWthmm736B0PAYnJxpB/eFvVB41BzYHnn+AYE8EOMnz8JcN3cs69Uco8eZo83M87j1OByh9+8iKMAffteuwOfiBZw/fwEXLvviakAQbt+9h8fPwhG0cQTsnQ7gxPnT2LFhKUyGT8cyptyWLqFdg3Pjhy9/Qu58RVCiZEmUrNYLQzf4IebFFVxxGYUOmgryucW/xxsrTbrBYqIrTr6KwqOTczFvVH3YbX+Ge0+eY/8kI0xLhUCmyKHAodhNKSwhYAZKSe19ss54+/btSmB/1LUk9iUiw58iJJQ9op/h6d0AXNREp/kfv+Cr3PlR1mgaVrpfhf+9UIQ/D8Oz0CcIeRKBqJgoxB6egWZWi7Dk7C4cclkM+5ELsM/NEi3yFEKhQvmQ+6cf8Yv2/8IF86BsRxus9QVifDUB2fU7/D50Na7c4XG9iDWDi6Nmo16YvT8M8UUn4Qh+l0B+uA+Ondvh56oLcAiheKK9V6NfTWG746b2W1E4Nac5THoOx9h5azHdtAC6OV7Ew/BIPA+Jjm8f9jICYU9CtNcNwZW9UzG8eSl0WXAMgY93YE5fWzi7nsY97Tg/2DsbU4Ybw3R9CBB2G4GbJ6LayEXY6PMULy8tw/RpC5IXyEErtGNXG62MXbD3Pv8+jhA8eRqG6JT7Br4XiuEbN25g+fLlaNGihao7p4P/kycpsYgThDeIQBYEQe8QgWx4sNclnUn5mafGZTllxCE25hVeRkchKjJS1aipERWdZGIWFxeDmFcvER2VaJ/IKEQnmWPHIS42Bq9eafvqtrxG2x4TE4vYJO8/Fq8SPV/Uy9g36Yh/IkZN6NP9z9dx9+5d5frK+s6UtrURgfwGfjZOTk6qJ+vJkyd1W9/Ny/AHuHPjEi4dXY/NUwehu9MNPE34bOOi4bOyN1rk/w8KNbLB0jO38ZTnmXb+RISEIPLQZNQePhXjPiiQGUGeD497mpC7tBunXKzRY6k/HkVoAuXAZBg1LIM/SpRGmTJl4kcpTeiWrYbyUw7iQaT2vQhcBsvB9rDs2xsOzg6YfeAB7vl54azXcRw/MgMDmg2FvaMHTnh5wev8FfjdC8OrRxdwZYUVei65qUuJDcUeyz4YM8EFRynYXoXi6m4nTB+yCFuCguE+xRgzUyGQ9+3bp9ys2Qv9QzDbxNPTUwlqimPWh7M3dbp7GEQH4+aqyWhU3wrT9zrAwnwGZpv2Q8/ho9BvqZeq7X1NbBTurDRG+9FL4eG6DPb21mi3yBNR4Q8RfNUbZ46uglX92ug3aSU2XryK68EhiNA+2LALLhjZ7UfkHbcLIbprzqubKzGxQUE0amePbSob/znunI4XyKYLAnEn8Z95YTlGtq2L/APcQX/ysOOz0YMCebsfaF8V67cSU9sb47fcDdB9QFEYuZzDnbv74KSdfws9riJJYcvdQ1hmVgf5Rq2FT/BmzBs8H+6H78Q/dnkVFo/ti/5rdbXmYTexf15/TFpzEb67V2He7HdEkDWBPLx4fXQesh3e8b+ZYdCIkIuuEyZMUOcF0+x5noi3hZBSRCALgqB3iEA2PBjx6du3r6odTHce7MOygW1Rs1wZlGYkTDdKVaqLWjMO4I6uXjJgjw3M25ZH+TKlXu9TsnxNVJm8C4Gv/YiCcW6hKdrV7IYB7okahca9wqNd9jCynY/FpxOmmqG4u2ca+pRN9JptbLHSO5nWMpGPcHxRG4xcuBVndfPQ9CY0NFS1SKEDM6MsKUEE8hs4uaYDMjMdUtVaJsoPAevGoesCX9xXvXZ8sG1IB9TN/Tn+9n1pNJx1SbkWP3+wB042m3GZea9n56Ch2WRYv1cgP8Qu6/6wTDDpitTE1srR6LboKu6EvMDDlT3QspsZLBz34uDBg/Fjy1IsHN4GX5muwYUHfDNhODyvE2p9nw+tJizBhtPLMLZKTdSsWQ3VqhZD7u/zomiJCqheU9tWoyraDp6BXUf94LtqLHouuoaHKnv1AbZbGGP0hBU4pPuexEVH4sG1QNwOuQCXAZ0wceUJXEnoM/QBaNTFNGv2KH4fly9fVhknTMdmy59duzRhme5OxmEI3jMRfUpXQ41hTvDY74vg2INwMJ+PNct248KlLZht0hzNa3XBpJ2673VsNI5P74XJa49i05JhGDywNYbtfYm4B+dwbJURHPecwLwuvTDfdiSaLdqD9ZfjD9rTc8th0eU75LZ0R3BYwqpcBG45G6NujZZovegKYhCtXKxNv/8FpguD8GaZ6xr2WtRCzT8aYuSuULzU3nf4kRno+stATNqmfU7cJTYcl91s0SL3J/i//IXRyckfIU8CsNm4OAr3HIsVVxJWMCJx/9AEDMxfFHVs98L/8XY4mM6B2z6dzbUmxBeO6YsBa4LfLBKG+OHW/XDc3zoZVmMnwv44BfIqTO+bBx3nJwhkFwwrVhftB27EmUzKemaUmqnWFMgs3+HiYGCgWmkQhPciAlkQBL1DBHLO4c6dO0r8ctL7Pjw8PGBsbKwmuelLHBDoAvMiRVG0ZHcMn79ItQRZtGgu7Me1QLX8mvBwDcIjbbfryxqgZOnvUbT7BN0+izB32iA0rlce9e3c4PWA4b8b2GdRCd/lyoWvGs/GidD4V2Fbn9tLuyFvh0Ew38XIykNcXm8Osxrl0L73AszVPd+wzuVRsbsZHI7diU9rJC8f4si0aij7Sy7k77UcR2/ptqczjGAzKtexY0clLlKCIQhkRiEZddy6det7++9SINP4ydLSUtU2pphoPwRtmoJO0/Zh3dQO6NrUCCaj52L5slWwNWuJPhZTcfp6OAJ2TUTZXs44E6idVGdno94Quw8I5EgcnTgAluZzsIOR22h/3Fo/Dl0WXsGdJ1F4vN4EjWtUQPm6bZR5kRotGqBulXL4zmwdfHVhyuANzVHps1zI9UNz9FiwGruUedJqrHYZgQ41te+M9VysUtvWY8eRi7h3JwiX5hkhT9GKqFqjDurUqYI/fi2Ntpabceptp+qXBzCndF9NLJ5HYAozI3jN4DF+lxEaBQ6NvKpXr64ixjTgYrQw3bl/BC4WI9Gk7UhMWbIWrhcTxPc+zOg/FS4eFIyvEHpuO9xmTYR1n/5o130+Nt06hLkth2OxszPG9muJdq3HY/eVu/DfPBUDpzvi0JWzWGncDfYOyzBu6hiYTXXGNu2pYrydYdb6X/hqqBuCnr2+Omga/Qjmdi2NYoV6w9nnPh6cm4hef8mF736vgEo1efy1UaMYKldrBkvHkzqDtFCE7rNF6y96Yaz7lTfR4Yjz2GFdFgVzfY+m06/giSZUn97cjikW1VGvVpX459I+z4pVy6NV7+XaeRmKFy93YGadqqhWshJqaY/XLlcYxas2x5D19/6UDXN/QztYjBwCZ1/ghfdS2Hb9Gs1n6fogBy6ByW+V0LSXK05kclkw0/W54MJWdzTZmzNnjnI5TzdCzmGLnSXam67AsbfXaB6fxOKRI9BjzCZ4puNLChmLCGRBEPQOEcg5BzpSMyWVbTgYfXtXairrxDh5OX78uG5LeqFN4YLWwLJ0Q3QauB1J2siGHYVz8y/RfMwOXHyqTczXtETZNnXRa3vierX78HFohiIFOsFqbQCeIhiHbHqjxT++RoFKbdBwnre2B4nF3VX9UbrXSIw9rD1Z9Gm4dKqBH/IMwsZEqibqzDA0+qUAKvfagKvaz8+vb8XiMZ1QoXF5NCj3BeqMWIvjQfH7pjc0Qtu0aZOqQ/7QgkUChiCQKXxPnTql/la6Jzs6OibbCov7UbRZW1t/oMWTjhAf7Ftkhc6t6qJl/XroscgXhzfaY+aENdhzO15axN5ch5UjGqNN2SaoX6kMqjj44m64dsIcm4hyxmNhvj8czw+Owjjj0hh3UNs/JgrRnqtgYWKEzp1bokqZphgw7yjOBx/FKot6aFarGrotf4SQiFg8cOmCOrXro6GRJaysrOLHcGP0aFQR/xqwBt73IxG02xrWo3pgxKSZmGZhhq7a399Z+76amQ3EwP71UeKXsqjbrBsGqm1mMLWZh4WbPeA9pzsK1+sD0xF8XlO0KFYWbYetw+mYl7h/chnsO3fW3p8myFtVQu5S1lh75n7S1kXvgdcMCl/2i05McHCw+huaN2+u6sBnzJgBf39/3aMZQOglHFi+DrPXXcWbZRPts4nbikndx2PRqvN4o3fCcGO7C+xnbcQhz1noUclSpSH3HWoN8wnuOLR7BabZzsLqdStg17kJyn/XBBZ7gvE08AiWDbfAaO0z9H9yFcd3O2HZ8RsIT1KUG4H7x1zhNncNDgQ+RWTIBRycPwfTJmmfXcLnamWDBZvPIOh1SDcKUcHnsNv5IM4EaCJXt5XXqYigo9i3cDl2nn/0ut9y1NWNWDVrrO65xmKCw2rs112H4l5tgk31xmjfpi9GaY+P7l4Xdeo2Qp91oXgZfh+nV/TFACN+3p1Ru1gxdLB0wsnn2pF67Itz+7XXuRiCSL6vMF8cWbUJOw76434i/Z9ZcCGM9x8a7HGBZcCAAZg1axYePHig2+MjCPfHaYfBqFGmPurNuZgosn8X58c3RtN8DdFuxglcT+mXQMhyRCALgqB3iEDOWdA857vvvsMnn3yChg0bKhOeo0eTNnXlij4jXLdupXf49D0C+dkRODb+As00gexNgby2Fcq3rIEuaxNPurXfv78DkyuXRg+rnbgSex+HRg+BWYnOMLY2RpUm3bFBe8usG360pl+8QD6gCezoS3Af0RY/fV4H3edsx8XXvUJDcN55GVycT4JJzs/9t2P5NEsMX7EX60blQWebZTiQsuznVEOBx1ZP/AzOnTun2/p+DCXFmqm5ffr0Ue7EX3/9tZo8r1y5MkkqOifYFNDsJ81o/AcJ0QTWknHo3qMX+lvYYkeyWdlxeOK9EbOMjdBv+HhsuwywSxACD8DRfT923YhGdMAeHHBfoIkjbTsFspd2Pg8yRvfuRjC2XAL369F4/uA41kzshX4jJmErn0MTJGFnXbHhgA/8EnrbKl7i+eXdmLrzMoKfRuL23vFY4LoTl5TZUxBOL7eEUffuqhdx9x7G6D+wH4x7G8X/zGE+DQ5bjuHh+b3Y7P0mZzpo7ybs3nsewdrz3z/tghm6/Xv0NEH/dScQGJby2s/w8HC1CMGMEsLzlgs7FGDlypVTwjmlJQLpj6bs4q7i0MaD8Lx4D8lmjd89gXVr9uPcvk3Yde4aLvj7wdfrEDYeuILoy+swo48J+pqsxK6geHkdfOAwDuw4rq4H+scrxLy6gn0bT+H6Xd1nGHYZ5/dtxGafl3j5/AHOrDaBqXH8592rrwOWHbyTpnZNmQn7J48ePVpdC7kwyywELiB+FBEBODivG8rXbY+5Z59o3wSN4EXoUbcCuphvhn8mR82Fj0MEsiAIeocI5JwHIxMUHxx/+ctfUKtWLfX5MnJH5s+fr1LfWCebvlAgr4V1xYooX6U3RsxdiIWOTljisgSLZ3VG5zKtMHtjsEqxvrmyRTICWZuga2J3rcnv6DtuPc68fIRDo4xh0nAaVh31gHOXEmhqfg4Xw17h0eaBKNNTE8h7GH2Mwj0vZ0xuXBUVfiuHukNmYuZC7bWdt+OsStV+i8jb8LDMjeajluLgTd22DIARekbzr1xJslTwTthblMZehgDbxNABOeE8/d///qdEGksEEiKVrVq1UpFLIWOxs7ND06ZNceHCBdX+rV69eirzgZ+FIKQXLKto1qwZatasqRa+WGrxMTwP2ADHtgVRsutmeAUH4rhVb9QYMg/LriaxcROyASKQBUHQO9IskKMe4taZPdi5Yyd27NwPr6CI+FVcHdGPb8Jnr/aY9viuA8dwPbEW04RPoPdh7N6xAzt3H8Hxa0//7FL8AWgIQjfmHdpzyHgzWFfcr1+/18KD49NPP8Xf/vY39TkzvXrIkCFqAszoUbpzex3GVy+KH7/6HQVKl0KpP/Li188/Q65/lkVP1wCE6z7oK0uTF8ivok7CucMv6DVyAzxjKJB7wbiaPfYGP4LfsrEoV6QLxp0MwNVNw1DVeCSsdidKv417gPOL+6F2Je11S2kjTznU778GmwKeJYk+vQq9ic2jcqOFZcYKZEaOy5Ytq1ILk/us3h6lS5dG27Ztk30sJw22b2J9dvny5V+fo8x4+Otf/4p///vfKnJMcca6Vy7mCBkL60ULFiyoosaMTC5evBgvXkh+qpD+sAUUv9Psn8wFMGY4JXeN+NC4ePGiNsm4gxsrJqF8/sboa9MV9cuOxPQN15WLOGHpRnK/m5mDZn0ZWpqQQxCBLAiC3sE2P3T8dXZ21m1JAa+e4+qBqehZ6SfkL5AfBfL/imq9HXH4SrxIjou6jKOO3dDku7woUIAjP7rbnYNvCNVRNB5vd4BZvcL4tUAB5M9bCkW7Tsbm4FC8SkWtFMUxxUQB7TlkvBmc6P70009JBHLCoEiuW7eu2o/HLv17IDOCvAajy9RFK6MVOBQZhagnZ7F3TC/8lq8/7C49QkIGqm+yAjkWsWFusC38Czr2c8cF6ARyRRu4P9POnEfe2Di6OFqYLcMG236oYjoW1nvvAlHP8PRJCEJV/XFMfIupqChEn1+Irn+0R/1h2+Cb6E99+eRGpghk1nH+8ssv+Pnnn//0OSU3/vWvf6lIanKP5bRRuHBhfPHFF8mep99++62KNH311Vcq9VrIWKZMmaIWKJhpcvbsWbX4KAgZBeuQWeaTN29eNZK7PnxoJJSixD3zxwazn/DLv/+D4v1dcVq7HSTAEpfkfjczx5dffqlq+IX3IwJZEAS9gU3+2b+Q/VqLFi2qaldTRhxeXXCFrVkblB3rjoDbgbh93QnWZQqi+1B3nI16iYe7LDC8ezWYLLmK27evwtfNCl2KtIeFy2Xcv38Ai1oao3O3JTh0+zZunnTFhN75UXT4Cpy/F02JlSIogHijpYGPjKSDk4/EgoOROYoOOirTMIoGXm3atMHTp+ldvZYgkOujXV83eOm2Rl7fjak9cqNgu0nwCIqvJ72+tDnKtaqJbiwqfs0LhJ+cgq6/10GfyacQhDs4MCJeIG9Qc/ZwPD1iB6P8jdG5XmV8ZzwRU4+HATc2w3nCIJituPVWneIRONRujk5tnHAwUUAsswTyzZs31QTQ1dU12c/p7cGIaf/+/ZN9LCcOiuDE5+lnn32mhDPbw9ApmSnnDg4OuqMpZBQ8xlxUY2/0xo0bK9MuRr14j8h6XiLy6ROEPHqER+8bIU/w9Hmkqgd/TVwsXkU8R+TL2Dcu9u8jNgoRkdG654hDTPRzhCX3Wo8eI+TJM4S/eKnLfIpDXFQ4noQ8TmZf3Xj8BE+evUBUrO4O9yoSkdq9Mirx+32bWO1vj4pERPT7dso+8HxiuQlNu3hdHDp0qDrPkrs2fGi8aTH2FI/3jEOb741g5eGbpL80syCS+93MHGx5xfIF4f2IQBYEIcuh+Q3Tk+zt7VUUMX/+/Gpi6ubmptvjQ0TiiqsdLLsNxMzLCXI2HFemtkTxbpOw5PpxnBk3CoObT8eehPlVmB9W98uHFmNWwcNpHKyHWWOCR4I4uw+/FQNRJ685Fl94oD2T8DEw+sOJboLo+Oabb1RtJx1FE9yCly9frralf6SIAnk1RpWsg1Y91+C4MiPi5mcIPDoM3X7KC5O5V3Bbm+8FrmyGss2qouOqa8oYiOPFg0Nw6lUYPzUdDRfPMLzCTWwfYoSe5a2xPsHo+MVdHB/bHH989zfkqjQI009pZ0zkWbibd0TdcqOx2jcakbrn48Spxe/10HDYdlx5K4K8yeJXNBvpjAMZKJBpTlOhQgWcP39et+X9NGrUSJnZGAI8NolTrLlIN336dGUIldAShkZedLlmlos+EacJr4RzllkYH/3utOeITXi+LPhTuWDGSTwXHJna3qJFC1SsWFGlv76vFVfmcALrejVFrcKFUbhQIRR6z6jaZzbcL78Rk8+CjmC52VAsPnIbD7QDy88q4XOLidGOuTqvNHGbcMzv78DsBS5YuYdhSE1cHZmBIdrzJv+6DdBhxA4of/rYMIRtt0WjamXUeZz8KIUSZWywzO9JvMu17wa4LHHBnEPvWaQM2I7pc2bA2PVtxzntvev+lqw4X9ICS7l4PvE7T7MutjFLn/tPKJ4ddUCP34bCfq//6/RqfYHlTHSCF96PCGRBEDIdRonZy5L1MKxNpUFGpUqVlHD6+9//jn/84x9qgkrn0pQRg6d3buLG5RsITbSwfdGhEmr2H4vlmsh9cjUQ1y8+ft3uIu6FD9b0/RadbTZh/9mruBEUhOAEp+G4OwheMxJFKlljyeWHb/UeFVIL+/9+/vnn6vM1NTVVDtZcyU4M0+npJpr+/Uy12dqtFTAvXBVNuq7E0QSBTMJ9sL1nGeT9fTimeobA06MT6hT4Gz7/rZhyy+UoU7Y4fmw1FAuP3VQ9Q4HLcDfpgq4lRmPtm14eiL2/DRMafYG/lu0Em0OMGUTh6Y2D2DyiM+oWLosyuucr8XM9tBzpil0BT7U93vAy5Do2DPsODYYvwr4MKg/jQtS2bdtemx+lBENxsWYkiTXwvO6UKFFCZTywXjtxTTwn/7xesT42U0Va+CXsmz4SjTrPxpZbcUmuR0EHp8Kqa3VUq1zh9TlbvnId1LTfi1uv3/odeC+3QPeGvTF4S+L+zXEI2T8bA6Y6wulMQqubcDw+Og+mVSugvO75KnaYilXemTfNZxYJTf3oJJ4Az9dx48aplGvWJTNVNesWKR7i1uljOLBtK7a4b1L3qeTGsqH10MjICjMP6xzPI27hips1ShlNx27fJ4i8tgGWPRrpPrfymlCriIpVqqJ6oxYYuswH93mzehGMM0tHwdzaAcu9IhB5/xJOJ/NamzbNwsj6HdGh7iIc4WvFvcTLO1dw+OBedaz+PDZh3aKhaP3FAMw6cRuqsd3TQBxc3A8WVsPh9q423zfWYNio4ai+0Ee3QeNlBDyXtUe7uuXV31Kh4RDYbL2exP9Dn6AwpjkXI6ks7+FiTEqvhynjCZ4cnIYuvwyE7U4/PNJt1RcGDhyoFpyE9yMCWRCETIGTGdY/rlmzRq1e0i22WLFiytE4IWLDwZpHmrIw/ZbmTWniVRguruqJekZtYbfRE7ffMkaOeXYRHuMboJPxKLiefJC0JUXcXfitnowW1UzRZ+t53Az/yNYPBg7T5emCbGRkpMTZnTt3dI8kZcmSJSrd2scn0cQrvXgegHPb9+LQiQA8TJwZGPsKz/yOYt3yfTh+OwL3753GETdnOM2fo0ys1JjrhCWn7iYybHuKYM8TOLHjIgKTdPqJxoPzW7Fh3zFcvPcmdzrm7il4zNU9lzZmz98Nz/t/Pqdio8MRdG4TDp7zx/0MSlmg2KPxHevPUroQYQgCmQsHjKh36tQJ48ePVws4yaXycj9mObCP6pt0yowmFneOLIdt1TzIV609+m99jMhECvmycxOUKfUV8rUb9focs5/YD3XrVUJj+004+5AiMgAHrKrie+36+mWjOTj1+oKnPfeyHijQbiDMtjFCGQK/LWMxsl5ZtOpsjym65xvYrjwqGw3FghN3U5YW/JFcv34dFhYWShAnhosSLA3gIhsd7znRT3DBz2yCjs/GzmOeCHrPAYndMwbDx0zBjIPxF4rQKwexYsBgmJ28E+97EH4Zu9Yujv/cZs/FgsUTMK5NRfyQqzpMt/vjccIpeP8olltaYsSk7Xj3t/YOjlpNgEXDxTimfo7Gy5s74Ty0P3rqWm4lHZ3QvkVNlPp6EBzO3Xvd5zkqeD1WzhgEa4sNOOk+BW1aN1Mp7q9H9ZLIky8Pvi5WFY3b90f/tUfxKPQIVtqOg91Ye/W3jOzZAO20z8ZFE/T6xoYNG1S0mIssfK/MTuCCffoSgpA9k9DyPz0xdkvSFGt9QARyyhCBLAhCpkCB/PDhQ7V6zT6WTKNOEMU0akr4P6OMvGnRPZdpt6km4jGu756H1r2aoNfSo5rA1W3XEf34Kg6taKtNEPpg7t77CEsywXmAm+6LYF2zL9pOPfyeyYiQUljrxtTVdwnjBLhwwokb066FjIGROaYUsqY4pS6mhiCQGRlmGrWnp+d7TeIokIcNG6aE24fO53Qj9gZ2zJmCYa3bwm5ifzRusxlnnka/XrC5urwVyrephe5bEgv2B7g4qxEKFuoMqzUBmvi5i2OTjdH8sy+Rv1xrNHG8gvjqgDjcX2OCcj1HwHJ/KPDyLFyNauGHX/tgbaLFn8hTQ9D4t7yo2NMVPonTHjKIy5cvw9zcXLV6Sg5mn9DVmucxa0cnTJiAw4cP6x7NDGJxaGJ+DJzogD0q9PoO9o6BuSaQZx3XzqmQK/B0nYvZztc0+fQUl9yssXbfzfjIrSIOIYfWwcpsIRau9dPkbtI0+dgbfrh0xBMBup//zD0cG6sJ5AaOOoGs8dwbu+fPgN2kSaqGPukYi9FmHVHnh5FYdiPpgl106B34bD6AS0fXYNwEK4wcNhRDzcxgxtGtIcqUL4PfaneCmaUd7HafR2jEFVy6/OLN4snZ8Rhn0gi9XPRHGnJOwfKI9u3bq/kH06kzLgMhEpGBXBjdheP+Ia9NIPUFEcgpQwSyIAhZAvux9uzZU6XeJohjDtZHMv2aEea09EF+7ueOuZ3yoPCYw7jxp0jcc9zaY4/BJfOi19r7f75x3fXA9K4tULShC27oNgmZQ0IrKHd3d90WIb1h1HP27NmqBo09f1OCoaRYpwQKafZKZXTzY/ulpphb6+AwdhTM5hzF5V3zMahSczicC8UznRq56tIaFVtWRYdV1+M3KLSJ//3tsK1UFt0st+Ny7AMcGz8MZkXbo9foXijfpBfcgtReCFk7IF4g79ME9svL2DaqPX76vAGMF+3F5dcXyAfwWugIx3kHcSkTBDJT27kQwXP1fdy7dw9OTk7Kt4JZSeyX7Of3rtzg9CQOp+ZUQ/tWjdF1eHLiM36M7lwFdY0mYunlOER6zsaE5kVQ02wRZtkOgnGHFpi9I0iTyk9wfcsS2NtaoFvjhvj9m5owXrIMR3U+gXeOLsOiKTMw3/UgvB7zQ3+OkAu7sGDWFEy2Tfx6g9G9amt06rAeRyKC4eUxGfb2MzBnwUJVM6+G0zIsd3HBymWLtZ9nwd6qI6r/tQwa9hwGy8W7sW3HSqxfMhOzV++Hr3bvjHn+BIEnryO++l7HvS2wth2HJivfdYd8AJ9pozDAaDzmns+gVJhUwPOBCy1Mza9RowZctL/f0BGBnDJEIAuCkCUwCmBtbY2qVauq1gMUx2yxYmtrq4ybWMuUFoH89NZebJpmhnXHQ3U1o4kJRdCpDXAeuAT7Al4lqQElcf6HsGr5LIze7R8/exQyDdaADR8+XKW9pX+rJ4Ew3Z21nZxQU1ykBBHIb2DEiZEnRi737dun25qRxOKeuy1sR4/DQhq3Rfni+Kzq6LbkEgJ0Cjl5gaz95ssrcB2YG32s1uBU9GMcs+4Hk3p2WH54M5y6FEcrywvwDotBiMcglDfSBPIung+RuOe5CONrlUeZnyui8ShHLFq1Cqtc98P7YeZ9J3lsOYlnX+qUEBQUpBYtaLbEFHhGCzO6LdSZeTVRv2xuFClbVd3Dkhvl8/4PeRqPwhLvKIRddYND7xqoUfBL5PqyKLpO3Yx97u5Yu3omxvVohtrtBqPf3Plw6lcbjeo1wMApy7H0+DFsnmmMbmXz4L8l26LDhttA9HVcnNEB3+QugTIVqyR6vRLI/2VJ1GqzEfueXsKmSTXQsH5DNGnaAPVr1UA17lMyD/L8+jO+K1QZ1atWQ7UadVCveVO0bFgXtXvOxpRpgzCqdT7kqdAR5tse4NmtM9gweixmLD2Ga89exkeIr6zGiDEWqL/wnDoOiXl1/yqO7JkHi47jMGnKUQTqtmcFCeZuXHSluduoUaNUiZcgAjmliEAWBCHTuXXrljLI4IouJ0HseUmBzH65jMywFQL7IKdFIL+MuI/bvmcR+DAa0X+a071ExOMg3PDyx73w2ER1pTrCHyLw5lVcvBsm+jiTYX2hjY2Nqo/NOvOdnA1bPDFrg4ZoCa7MH0IEclLYEobtyFLVoz3NPMR+G2P0bNELE3ccxuFdq+Eysh2+6uSMQ3fi02KvvUMgx0R7YnmXX9FzxFqcfkWB3AfGVaZgd9BDXHceg7KFesD6RCCueZijRu8RGLUzUWuzV/dwdn4vVCtXTPlEFPu9LBqarMXW2+GZYry0evVqdR1gX/nUcPDgQXTo0AF16tRRxkunT59OYrKWfsTi+IwKGG47B9sSd4R7i7CDszBt7gq4XuSNKAYvgk5hk6MdWjofx33fjVjcrQHK1bHAfK+387Sf4Oj8JqgzzgkHb2vXwpur0W+kJVqsuqk9qTeuuIxG1wWXcDfBVFIRiBOzF8Fh2HZc5Y9xr/D8ti88T93E3YQbXcAmLJ1ui35rEzXmffkAPrceIiRSd7O8vgmuDpNhspbWUlGIfLgdc2sNw/i1XvAP157o2hqdQD4bv/9rYnHTqS0qNeiB/m7X36RbZzIUxlu2bFE+Aa1atVLGj6k9j3I6IpBThghkQRAyDQofrvaz1rRKlSqqHpnRQqbSsQ6ZLWW4D7f98ccfaRLIj69twCLT+pjifgf3kpgokcfw3zMPE+pYYuXFF0gyv9CIu+yOGRPN0Mb5LF5l1R3egGFLHfahjYz80wcnpAOs72aU7dix11WKH0QEclKYpk6DKLaky+iFnJiHWzG7S3n89vXPyJMvH/Lly4s8v+XBdz8aYfq5+3ihvXzgiuRTrOOeb8aUP35GB+MNOKdd95RALj8Om0M12fPABxtGFkOL4cux0c4E1QeOxujdwZpYeo7nYc8QzmtfXBQiwsPUQkrY6XnoXqoD6g3bBt8Mvi7y2s+2YlyESItTOLMkuOjK36cZE3vpM1spfY2YdAJ5sgO2B+k2JUsMYl5GIOz5czzx24v1ozvj11aTsIpdE27fR8i9W/C7ehWX/W7glnZf5Pu8FRiIwIAAXA+4jfvhkfGLuL4uGDBqNFqtCQQifHFtpRW6O15BIi/AeGIiEf44BI+evEBM1AN4LxyIWhWHY/y2G7gfch/hl5bB0tgIfwzZiOuv4hAd4gPfNeNQc+J67L6uWzDz34z1c+1gui4hwyQcz88vh8V0D5y8ob2b++4YNdYCdeZ76h7XEReLc0taYvycpdibtEFBpsCFEF9fX+UPwBZWFMZsHSn3kj8jAjlliEAWBCHToFlT165dVTuVI0eOqJo+snLlSpUGxcgBiY6OTrNAjol+hid3A/Eo7BW0OcBbxCD6eQgeBj7A08jYP69yR4Xh8cN7CAqNlAhyFrB582Z1bvA8kShy+kJX5gULFiBv3rzKJTiliEBOCs9L1sfSRCqhh3fGEIermvit1rwWOsw/hpv+13Hd3x++Xvvh2LcAWk/ejHOPgXvr26Jiq2rotDZxTXkUIs/NRM/ctdDT5hgCcQ+Hx1AgW8NV+SaF49nhiehRqDm616+KH/uMx6SjT4GbW7HKbgiGrbn1VqT4OBY0aImOzR2x/21Rls7QyJFtyChw0wrvH6yxZzp87969VSsfLsJycSN9riuxODajPIZNmoktH+pZ/vwk3NycMaB/f4yo/F989uUvKFC0LP7oNg+Hti/CqD71UbhAfuTN/Tt+/+035M6bD/nyl0IJ42U49khnnnVxKfqNskLr1TeA0HO46DIG3eb74Pazt/6W2Ms44DITQ0Z7IEC7t0Y/e4jgmxswuZYVBtQvg0m2jVG3ShX8s3grDJqxHotHVEC1bjZYePYOwqN1Yebrm7B+3lQMXp/Q9otE4KF2rj96/BRhXk4YbDEcDRzf7qMei4iQQIQ8DUNUJi4u8/Pkogjd51mq1a1bN+VszkiykDwikFOGCGRBEDIF3rSYVt23b194eXnptsZz6NAhdYOjORfhan9aBbKQfaE5D1u40KE2KioT3IAMCNZk0mCK2RupmTyKQP4zdNfnJDNjnZMvYnW7PKhfZyiWJfZDin0Ez2l1kK+ZNRZfeo4bmzqiUosq6LD6jVKLDT+D1QOK48f6w7Ho+BNN7AZgl4Uxepcdi3Uqu1YTVhHBODq6BUp89ylyVTLF1JNhwAsveFi0R60yY+DqH/d6ATH8uB065K2NegM2w1unozIKehGwJRzP1Y+FQpkmTXRuZ699RpSZfpuwMJt2NIE8vZwmkGdha/wt691cX4MRVhaobbsNgZfO4JznKZw4dhLHvYPw5GEQrvqcUYvF6yYPh2mnlhi17ggOHz2B4z638SShRsh7KUxsbNHIag2uLxsBO3srdFzoi/tvp0C9OIkNC23QbfSuN9lRj1fBIt9vKFSxP1YtnYNlc01RpnZ9dCpYC2OcjuLQ1QdIEmNVKdZ2MHVNeo3wXdcDneuUwB8FfkHpVuaY6/lWZDY2EPtmdMGUeZtxKhO1KT/PevXqqYw0+lekZvHPUBGBnDJEIAuCkOHwJsbUTqbOXb2qKqSSwPYzNNBgGxXCRv4ikA0PRo+YusrWLTwnhPSDtbNDhw5VUeTU1GWKQP4z7JnMljE8lhmDJmB9HND258qoabwePom78MQ8w4NtI1Dr59/R3u4UNi7qjYbF/orP85RWzv8clSuXxI/N+sF+ny8eqnUmX2wx64ouRSywKpFPUSwdiev9G7lKtMWY/VQ1UXhybR/WD+2E+iWqorLu+cr/XhuNBy7H5quPkcEB5Nd9jvfu3avb8vEwzZbPN2DAACWU2a7o7Nm3a2hTQxz8nNrD2mEDdn8giSBk50CMGNoT4xLaNQdsgG2b1mjR1BwLz7wRmS89PbB2hg12Jupx/ZprrhjVthz+L38TmI22wdrZI1DK/jgevr3vrU1wnjwYA1ffwqvwi9ho0QSNSnXBoLlrsdc3DLHXdmHnqpkwcdqHk47mGNq1A9qPc8ObdsV+ODSpDUr//AMKtnDEwUQZ7lG3j+HILne4b92Bk5eC8adO7rGXsLTj/6Flr6nY9KGo+kfCqDHLRdiuifXm/Dy5yM4FESEpvI96eHgkSTVPTiBv27YtxcaNhoIIZEEQMhTWgHF1lymJNOdKCSKQDRNGdti2pUGDBggNDdVtFdIDRqkaN26Mo0ePpiqCJgL5z/DcZConF/wyjNue2LTiADzOP3hLlMYiLsQHR10WYMuhQFz2OYkDaxwwa6qt6gfMMXHyTMw8dCuRiAnFrZOHcNDtDPyTlOJG4+7p9XDZuhdngt88EHPnKFynTMTEhOebshlHbmW0NI5n7NixyiU8I9LXWePr4OCgjOqYws161ZT2A3+byHMOGN+5FarXb4d27d49alSqin4OTjh81h2zh3dANzMrTNRed8KgrmhXrw2a6vZrUL44Cv/+E0o0aIe23NahC0a5eCGIoeAT9hjSpiaqDlgNj7O+CNo9CtXylUejpq2SvFarKrXQvMccLDx/CrvmN8HgwTYYM34rXNdPxATz7ujcoCRqtx6CGSqBKwgn19rCbvxwmHbpjHbWq7Fo/jjMM++JvlOmY7btGAzv1w7tdc/dqXsf9Ok3QC0y9O1thK4dte1GgzDI9QLCX8ZpqjUU/kfW4uCJS7iVgd2d2B6yc+fO6vOjqeOqVatE2L0H1vHT24OLo8x8IbxusdSNuLm5KadviuaUzs8MBRHIgiBkGIyw0I2aLRZSY5YhAtlw2bp1K2rXro1r167ptggfC0sWZsyYobI4UlubJwL5z3CBYfDgwSrTgY77QvrAWlIaNbJPd0Zy+fJl1RuXQpnRR/ZPTnVf62h/HHOaDIv+mnDs8+4xYMwKeFwPwZNb2+BkMwyjV3sjPjDri51TR8FUt1//gYMweMhQDEp4vv4DYbvhItS6hf9e7Np/BKd0OjDq8XFsH2mGQf36JnmtviaTMG9TkCZQr+DExknYo4vkhh6fATtzbZ8BgzDB0R0XVR26jtBjWDd2KPpM24SVazbg3IVLUA2ynp/FFjvtfSV6/j+NIVaw8riE5xTIGQzLsiwtLdGxY0dVJsKFjpQ68RsyvFbt2rULn3/+OX744Qe1qMCoe4kSJdRiVEKLTYpnuZYlRQSyIAjpDlctWUdK462RI0emup5UBLLhwhR8Guuwnix9nWcNF6ZX85gyUpDaNEQRyMnDyBUn6nTiF9KHTZs2KYGcEOnKaFifTKHM12RUkiaRYu6kX/DzYBYaU4JLly4NW1tbcaZOJczGaN68OT799FMlht8enKc9efJ2qzFBBLIgCOkK050SJh1pFTkikA0X1scmmOrQsEf4eOgOzpRE9oVNrYuvCOTkoaEgzaSMjY3FUC6dYBqohYWFSoXOTGgOyMWOcuXKqfRT1rfK4lzWwugwPwd+HpUqVVJ9seV+kHZ27typepq/LY6//PJLrF27Vq5hySACWRCEdOPGjRsqDapGjRrqgpxWRCAbNqwzozkQU/Rlovpx8PhZWVmptPW0IAI5ebjQwGgWHXTp0C+kHR5LRrAohFgKkBUwvXTNmjXK/4DRNmZAscyD7dGEzIP3/hMnTqgU6vbt26vIMTMLUruwJySFXQw6deqUJIr8ySefoHLlypJa/Q5EIAuCkC6wrqtZs2aqlQZXfmNj094MUQSyYcPJMs2BGNWRWuSPg5NLTvpZZ5kWRCC/G/brZh0rW9QJaYcilIs4vH/QTC6rYL0mSzzmz5+vzvu2bdtix44dSlwkdFgQMgaeA0ynZvYQU6mZgbZv3z5liJcaU0Hh3dDNukyZMq8F8o8//qgWgmTxIXlEIAuC8NH4+PioyQ3NH5jG+bGIQBYYlatevbpq3yGkHaatMl09rbWVIpDfDUUT+/UyyiUtZtIO02lLlSqlIvL6cBxZ5sF03kWLFqkoJu9tbD8lQi1j4P2edcYJwtjd3R03b96U453OcOGZi84JAplZRZKh9W5EIAuC8FHQpIb1jUzf+bjekm8QgSwwckBjKTptSvuJtOHr64u+ffti4sSJui2pRwTy+2GUq1WrVkpAiUhOPYwcshynZcuWOHz4sG6rfkChzHsanX9pZMTWOMwaENIPLqhz7sD6b9afp8cCu/Bu6EdB5+pvvvkG8+bN020VkkMEsiAIaYbtA1q3bq0a9tMpN70QgSww7YvRY6YHM81RSD2TJk1Sk8+PMbcRgfx+6Ng/bdo0dR2koBJSR0hIiOqzy3OV/9dHmGJN13K2GGLNOd9rQECA7lEhLTCVnaUJvL4zqrlx40ZxUs4k+H1jKZyUDbwfEciCIKQJpp/VqlVLRaeYDpWeiEAWCKNLTZo0UWnCbFUhpBxGjxnZZPTrYyKbIpA/DBdymB7K6IxMOlMOz0sKI5YAZIdSCpYSjRs3TrWE6tKli4rA6auo11euX7+uek/z2sTrCo0YKZYNgWPHjqlgAhcEsmrQM+Hbb7/F119/rXpZJ7dPZo2BAwdi27ZtuqOjf4hAFgQhVdDxkDc1uh+yBUNGrPqKQBYSYG9Spl+uXLlSatJSyNOnT9UEnunVH2tyJgL5w3DxhtdCHnOaFQopgynV7Hjg7OycbaLvvAZR6AwfPlxN8vm5s372zp07uj2E5GDEnUaBbI3GkiweN0MrnbG2tsY//vEPtcCSlYP98Pv375/sY5k52GKqR48euqOjf4hAFgQhxdDQgQ6fJUuWVGmFGYUIZCEBRuTYV5tpYfpWo6ivMB20QoUK2Lp1q25L2hGBnDLY4o6TPXNzczx69Ei3VXgXTFtmJJEZIjTpym6wBIT1ssxuoTklo2F79uwR06O34PFgiQz7GBctWhQDBgxAcHCw7lHDYsyYMSpFX4iH10vW9esrIpAFQUgRnPTNnTtXOR86OTllqCGNCGQhMUzBY0oeJ1kiPt4PvQBYD8uoXFRUlG5r2hGBnDK4kEP3XZoNrVixApGRkbpHhLehaFq+fLk6T729vXVbsy80GaP7ctWqVTFnzhxV3mDo2S6cHzCbgseDWQJ0AudxMmTYyoxlaUI8zLhhFoa+IgJZEIQPwugIaxk5WebEJqMnfyKQhbfZsmWLmoSyFYz0bUyeu3fvqhozY2Nj+Pn56bZ+HCKQUw4XJNi/m+fp/v37dVuFt2FmA48RU24/pl++PsE0e/49FMndunVT/ccNMe2aC0VcpHNxcVHXIppwsSQrO2YJpDcikJPCNGsRyIIgZEsoRM6fP69qhurWratW+zOjlYkIZOFtaNhFgxyeh15eXrqtQgL8XnJSygk6Uz/TS3iIQE4dNCxs2rSpqlGVbIc/w0Uc1kAyepTT0pHpz8H+7VwkofEYTZDYFsoQ3M05V6CjO43q2L+ebbHWrFmjFg7SI5MlJyACOSkikAVByLaw5pMp1RTIdPDMLEQgC8kRGBgIU1NTFaGhYBbewJZr/K4uXLgwXY+NCOT3w4gZRTH75TJimLg9GT8L4Q08VuxrzgWEEydO6LbmPFhfzXOAPh0tWrRQQiAn+yfwnN+9e7cSfzTvZIcLLqZLPXZSRCAnRQSyIAjZkn379qmVYN7g07PHcUoQgSy8C06s2cORZi9S5xnP0aNH0b59e3VMHj58qNuaPohATgpFHsUPS03YD5e9ccuXL68mvsy2IRQMs2fPVmJh8eLFapuhw0UbLhjQpMjR0VEdo5wOv4t79+6FiYmJMs1jVkFO65/Mv2fYsGEoU6aMMl1i+rxcl5NHBHJSRCALgpDtYP1U48aN1cXr4sWLuq2Zhwhk4V1QoLB3Ip1j2VOSLY0MGbacodlRp06dPrqlU3IYskCm0RJruWm6ZWlpqUziOKmj2MmTJw/+97//IVeuXGpwMTGxOy+jiEy1Zcq7oYtkptgyqshjQUd6Q+sdTA+P6dOnq3sqzQaXLFmSIe0RMxOmynPBg38PB3tC5zTxn96IQE6KCGRBELIVXN2n+GC7En9/f93WzEUEsvAh6IjKycbgwYNx79493VbD4siRI2py2rZtW1X7mBEYukDmpJ+T/1KlSr0Ww2+PH3/8UTlYv133HRoaqkRylSpVVK9cQ4R1ubyncAGB6dWG3C/44MGDqkSkQ4cOqg7b1dVVLfhlJ7jwM3nyZHXN4QLl1KlTcfz4cd2jwvsQgZwUEciCIGQLOJmzt7dHtWrVlBlSeqdqpgYRyEJKYN0bW4gMGTIEt2/f1m01DJhWTXFMf4CMrOeUFOv4VNmNGzeq86xQoUL4+9///locf/LJJ6qXL69ZycEMB6ZiJ5gWGRI8JgnimD1gs/Keoi/QsMvDw0M5zdPlmRF1Glvpu5EX5wc0AWS6OFs2UeCz7l5IOSKQkyICWRAEvYcTF168ixUrpmrnsrqGSASykFL27NmjJuBDhw5FUFCQbmvOhmnVCZHjkydP6rZmDCKQ33D9+nWVJvvZZ5/hr3/96+voMUXg+6C7L4UQeyQzamgIPXJp0JQ4cszIo/AGRtaZBWNkZKSc+bkoTcdrfWt7xVpxT09PjBo1CsWLF1eeJOfOndM9KqQGEchJEYEsCIJew4kLIxwUx2vXrtUL8xQRyEJqYCSZE3GmW7MON7ulLaYULlzt2LFDRY1pDpVRadWJEYEcLxIuX76s6pAZPStZsiT+/e9/K4HcvHlz5WL9IdgHlumoFMmMJLOGM6fCv401tzTksra2VtFHIXlYn82aZGYY0Hxw3bp1SWrZswqe87du3VILOnQdZ5kA36c4U6cdEchJEYEsCILewh6FjGywPQyNufSldY4IZCE1cDLHaAzFCgfPZUZochIJKY5FixZVUaeMMORKDkMXyBQErC+mSGDUnkKZKbK///47/vvf/2L+/Pm6PT8MRTKFIyfJAwcOxIULF/RiQTK94N9CQyr+bQUKFMDcuXPfmXouvIELer6+vsr3gwZwXOhjCUVWGRCyTpxu1Cwp4NyA6fFssWcImQ8ZiQjkpIhAFgRBL+FEhu0ZOAHmBFCf+sqKQBZSCydvnNjZ2NioaIezs3OOmJwz5ZJGUYxest561qxZmWp0ZMgCmXWhFLT58uVTxyDBtJCRNXo18Dyjy3Vq4DnJ2k1mAdB9nAZHOaGnN/+GAwcOqL+LabjM6pBoY+p49OiRyhAxMzNTGTGjR49W2QmZdX5ER0errBSel0yn5rWG8wRD7xSQXmSYQI55haiYWOhXcv6HEYEsCILewT6enPiyNYyPj4/eTdBEIAtphVkR7FFLExnW6LKfd3aO0jHlsmbNmqrHMeuNM1v0G6pAZpowFyU4oWUtLc+rBBgJ7tOnjzouaa0Z9fLywrRp05QYYaSOoju7woUEHguKOi4oZFZ2Q06E1yoaDnLRmrXbTOmnWzQjzBkJ2zmyl3rp0qUxceJEZfwndePpS4YI5LhIxJ5YjC4z18PtcvYqZRCBLAiCXuHm5qYmMrwwMcVPHxGBLHwMXPChkRVFTLt27eDg4JDtoiA0hKJwatmyJWbOnIkrV67oHslcDFEgcyGC6dR0p96+ffufatqZ7r5+/XocPnxYtyVtsB8w2z/xtXiuMnqY3diyZYtqW8Qe0VzMye79ffUJZo7wmHIhmz2kWcOe3tcxGsixe0XlypWVGGfmDSPZQvqTYRHkp2thWtMIlnPO4c0y3tuEwHPpXKzfdg5JrCyfB+KYizGmelzG40wOQYtAFgRBb6A4Llu2rLoocQKur4hAFtIDpgcy+seavr59+6qInb6bI1HYM2LEFN4ePXqoFjBZ6WxraAJ5w4YNKk2Ydd779+/XbU0K69spBNOjzp2lAaw3ZdSuf//+alGE12l9hgsEK1asUMKYNao04jp//rzuUSG9YbYBv4M81rwmpEdJFLMgeK7z+Ro1aqSi1dK2KWNJF4F87yJ2zR8Boy7tVcS/fQdtdK6KP3J9hu++LYtq7XTbtdGp7zDM2Xcf0Swdf7ABxqV+xq95yqBmx87qceNhFpgyczI6/5gL/8xdDY1bd0aXjtrv9rHF/AM38LqXSeRjnN84HMPnuOFocPp5e4hAFgQhy2FtEW+GvMEy9TShlk5fEYEspBcUl2yfwskJU64pQmisdOnSJd0eWQ+/n3v37lVp1OyPyqg3jY5oCJXVGIpAZjopRQLrvC0sLJQpUWZCwc1ey4wk06Gc6d10EH7w4IFuj6zn3r17WLhwoRJVvXv3Vt8nZjfkVNd4fYKCmNHkbt26qYWJkSNHqprv1MLPimZ/FCa8FrJ9EwW3kPGkh0B+eWYJpnUth2L1e6o+2j179kKvXoMwYtxojBg+EH17aduM+2HAQG2bpQ0WHbmPl7GBOGE6GF271kaBuvVQu3J7tWg8zLw7THpWRos62ne5xHcoVK0tWnTvh75DZmDJkQBEqVeMQNg1D5g3yo2fCzXD1IO3EKa2fzwikAVByFIoNmm2wZYbnACy57G+IwJZyAgYqTM1NVUTexrUMfWaEVumumYFTGVkiqqtra1auKIDN99T4nrXrMYQBDJLTSiKy5Qpg/Hjx2dpWyLW81LAMK2Wk0dOqletWqW8IrJKiLL+lddimkYx8tSlSxfVf1zfvCsMAS5SODk5qc+BC2rMkGGq/4eyTPhZMYWfjtQ0UeMiHMsHhMwjPQTy8+Pzscp+HByTVNxE4I7/IzyPV7Qar/DkfgCOBEdq/w2F//4JGNlsDrZc9cS+41tweN8ZBN68hh0TesOoSVXYnQHCvFdi6bz12O7zHEm8yl/448rGEWjcbiLGNK2Hbgu34eDj9Pnei0AWBCHLYDop2zixvogr/Zx8ZQdEIAsZCet5KUq5aMRoHWvwOFlkpDkoKEjV+WWEsRe/jzTDobhgKyr2H2fdHyer7I2rj+RkgUzRQLdlCj7WAbNVmL7A9G0azDGjgJNqExMTVR9Kg0WKZS6i8DqZ3rAvL0sTTp8+jW3btmH16tUq5b9BgwZKkJ07d063p5CVMLOAae70KGCtPCP773JU5/Y5c+aoHtyVKlVSLZyEzCc9BHLEiUVYM8MMNpvvwu/UfTzFS8TG7ccMI2s4rj0HtdQbuBXL7ExQde5lPH14H54rZmHHzefano9x1dEYw0YZoYfpRAyqVx+tO0/Agu2Hcej4bjiPHo/le64mqWOOvnEYm8d0Rp9Fp3Fi7XDU7TAeM3ffRrTu8Y9BBLIgCFkCXVGZplmsWDE1yWEaZ3ZBBLKQ0bD2k2678+bNU/WmTK2lSGKWBSebjOwychYcHKzSb1mzxwWmyMjId4pnRnHY2ob70fyGIoaTU9b27dq1SwliTmj5nSxSpIgSZhTm+txfNKcKZF5jaLRVsWJFJT6zKovgQ/B8oijmecnzk+cp05tp2MTrI7MiWDLDc41p2jz3+Le9L7rLewH34b78HZ7jLDlgix+m8bLNEJ3TCxUqpAQV03D5XcnKWngheZgRxusK75cUHEy75rnMawozVPgz07JLliypsiP0KTvF0EgPgfzipDM2Le6L3qOcMKKUOTbej8TzuNvYNLA1Rs/cDC9tn1enlmLlhGGYdjIOL2Oi8eTWBXhfPI9zWx3Qq9Z3+GeuL1CwwRSsOeOJI9umwrhoLnySqyTaTXHH3gteOHvxOgJDWIEcjVvHV2JS5yFYfTMar3AZKxr1h63DQfilQzKLCGRBEDId9knlaj9bNrC2MbvViIlAFjILRswYMaYAYC3ehAkTlGBu2LAh6tSpo1KyGW1etGiRiuCxLpS9a5mWy0g0W7Lw/xTB/K6tXLlS7UeRbW5uroRGnjx5lAst60o5ST1y5IiaqPJ19Vkck5wokCkK586dq/42Cs+sTKlOCVyQoVCmGPL09FTO18OHD1dp2BTMTJmliJ0xYwaWLFmiHmeUkOZONM9iL11GhRn9ZWTYw8NDXVu5L3+HDtQlSpRA3rx5VTYDz1FmHNFFma/J67GgvzDbgAslrA3ndYafHxf4aPzGaxgNCnkucHFPyDrSJ8XaEa7zJsNq0XYsHFAKI7c+xr3nsTg7syKG2C7CwScx8F3rCPvhDjiu3VpevbiHfZMroErxfMjfzUE7N7phUO0f8NNvBVCkZEn8UawAcv/wI775uhGatiqHqhXzI18pI5hvok/NbXiutELLlpOxzS8Ydx/cgbv5H+hnPQfbk1hhpw0RyIIgZCo09uGEp3HjxipqlR17wIpAFrICRt0YdWGaNcUvJ5ms32fdHhecONGkKGENM0UJHeEZCWYJAyemTZs2VcYp3I9uxKxzZnSH4pnRaKZF6rsYe5ucJpAZLeUCSIUKFVQEObt9HoTXR9aiUsCyLICLMpMnT1YLMqxlTzDQotjl51e0aFElgHmOcsGGj9EMjPuy9poRY6brcqGHYpoZE9mlHEd4A43lWKrBzz1fvnxq0YTXHp4rQtaTHgI5cOsCLLCbhI2efjjp1AelrXfj0v0XeLqhN4ytHLHx0GFsXTYT5tOOqjTouNiXeBrsg0sXz+P8zUd4+CgYDwIuwfviOXhp1w5Pz3O44H1FmzfexI3r3rjko+3n7Y9bT6KAuyewZmBZfP6fH5G7QEEULFgYv//wKf5bZxBmHPv4VmAikAVByDRoOMSJO8Uxo1nZFRHIgj7AxSUKZk48KXC5+MQoHFNRGUVmLTHrNNkOiKmMJ06cgLe3t9qPEWkKGEYrszM5SSDzM2KaMq+RjKLqa9kJzx2m6KcURgZZ385Ua557rFFmpJn9nGngxDR+1lfz72e6Nh9jSjX3ZWSZ5TjiRJ0z4CIfs1e+++47qRfXMz5eIEfh3LJJGGdija1PwhB0fCF6lJ0Mt8v38erMNDQd7gDzcRbY6DgVdvsidL/zhvv7LDG0Q23UrFVHZRYkGXXrot5AZ+wKTrgOhOH6xqEYVLAIOo3fjo1btqgF4x2758CsZgcMGuqBix95yRCBLAhCpsAJX5UqVVT0ihP47IwIZEHQD3KCQKbYZCYAJ4Jsj8N0U32EUVxOGFkXn90XVoSsg4shhQsXViUcgv7w8QI5CAcXT8UEk+W4HBuHx36bMKVMO9juvoGHYTdw6OIFLBszGgvt5mN7Mutrx6a0Rd9+fWDptFr50rwZy+Gy3AzN643Eol1+8QZc4Wex0bQNiuQ2xZokp9ED7BxYFa2bDcGy5D3hUowIZEEQMhy2BalWrZoSx/re4zgliEAWBP0guwtkpgsz3Z2O5azJZEaAPsH6UQpjpvCzVv2TTz5RNezZyVRR0C/opVCwYEEx5NIzPlog31oP69Fm6Gp3WrfhBW6fPorrrwVsELYtWIKZS8/rfk7K6bkd0bNjc3QeOlItFL4Z5jAf3hY1GozGkkMBYGA4/NQ09K1TGF9124yA+F/XEYXry9uiet7yqGd1SnvFtCMCWRCEDIMGP5xMUUxyEsjJYE5ABLIg6AfZWSCz5ISLhm3atFHmavrkx0Dzq7Vr16o69V9++QW5cuVS45tvvlGtwAQhrYhA1k8+TiBH4OpCU3QwMsVg9/Pw9pgLG5uJsJs2DXaTbGBjbQ1rs6YoX7kayjcegAn82XYmZuy9hue6VOgT0xqiec0yqN6mo2pv+Ga0R/t2lZC/7CA47LupBHLYpc1YvGQsZh6/Hf/LiYgN2I8lVtMxYclpBOq2pQURyIKQxVBssRYwoYaQ6cesz2UfUkZeKcKYZuLm5obNmzerekLuQ7dP1nLxd/URpk/RrZRtOGjOkpPSqUQgC4J+kB0FMhcO6eLM906XZ5pP6QMU6FevXlUCZvDgwfjiiy9eC+OEQbGsr/ccIXsgAlk/+TiB/BRn1y7G2jWHcOnWTeyd1gO1atZUpnuvR616ql95w/p14n9u3BEdFp9EqK7jm6/7Emw9cha34n98iyvYvtADx72CEaXbktGIQBaETIb1ZmxzRIOKHTt2wMHBQaWR0K2TrTHo8Ny6dWtVj8Y2SBRidDTlBaVu3brKAZL7GBsbq6jsuHHjlDMkhTNr1+jymdUOnzRk4fvi+502bVqOa98gAlkQ9IPsJpDpFL58+XI0adJEuTlzUVQfoDhmXTHdpr/++us/CeOEwWs6r++CkFZEIOsnH1+DnLMQgSwIGQyjBUxX8/PzU5Fh9re0trZWE7ty5cqpFTW2sWBfxzlz5mDdunU4ePCgauPCCQvFGNsg8Pfp7Mnn4D6MKic8V+3atVXbBPZGpWimcOO+rPfN7LRmTgD599CEgxFwulbmNEQgC4J+kJ0EMq/hzKbhguf06dP1qo6X9ym6RW/YsAGDBg1Cs2bNlIj57LPPVN0xxfHnn3+u+m6LQZfwMYhA1k9EICdFBLIgZBCxsbFKLLLNCvs5li9fXvUjZQuP0aNHK+MTtlzhajwnHIz6UnhFRUWp330XnMhwHw7uz9Rl9s5kijb7CtMNlQ35eQNiH9ShQ4eqmrGIiIgMr3Fj9Lp9+/ZKsLPNDN9jTkQEsiDoB9lBIPO6y36vzAqikz/bkfB6rG+wlRKzfXgv4n2FNch8zwkR5Z9//hmOjo7KuEsQ0ooIZP1EBHJSRCALQgZAwcsas0aNGqFkyZJKpDINmmnVFLIUxRmRdkxhHRISguvXryuByvfA16Zg7dOnj4o+Z1T6NXuxtmzZUl1g+do5GRHIgqAf6LtApjhmKQ3vBbwG0z+Ci5z6Du8j/fv3V6U/dnZ2SiDToIvXvJy68ClkDiKQ9RMRyEkRgSwI6QgnFUx/Zp1w165dMWHCBGW2lZWmJozqbty4EZMmTVKOgG3btlVRgBs3buj2+Hg8PT3RqVMnVTt96NAh3daciwhkQdAP9Fkg02+CLtDM5Bk/frxKYc4OMELMiSFFPRd0+b55nH/44Qd1fX9fhpMgfAgRyPqJCOSkiEAWhHSAKc4zZsxQApSr7rNnz1bN8DlB0hdYB02xzskkBTxrzNh3k4ZhHwP/TtY+8zkZHTEERCAL+g4XwOh6z8WxRYsWqe8660f5PWWZB2/+vFZxGx9bsGABFi9erLJM6GScHaKcRF8FMrN4KI7pUk0jxuzU4o4LqPTHoJkYYRR86tSpStTwXicIH4MIZP1EBHJSRCALwkfCNGZGTvllsrGxwe7du3WP6CesLfPw8ICJiYkyCKMjNltIpbaujFEEmnBVq1ZNGYOxxs5QEIEs6Bt0sKegoSM+he/AgQNfD37XE8aAAQNej8TbEw8+RjMpW1tbrFy5UrWU01djJn0UyEypbty4sbov0IMiO3HixAlUrVoV9vb2SRZ4eX2niaTUHwsfiwhk/UQEclJEIAtCGqGzNAVSvXr1VDT26NGjukeyBzSJYfSXdXE0juHkh8IvJYSFhWHevHnKdIziOKvbSmU2IpAFfYC1/oz6MgLM72HPnj3RqlUr5QXAkgou3lGgMbODpRZvG0PRRZnb+NiZM2dw8uRJ5Y7PVj8U2c2bN1fPxUU0Tp4YidY3fwF9EsgUlFw05HvisTt27JjukexBUFCQyoLiuZRcOjhNvDLa6FHI+YhA1k9EICdFBLIgpBJOEhiBpRM10xXZZom1x9kVmoVZWlqqiTBTARmJeh905maLkmLFiqmJuSFOmEQgC1kFF6e4GLdw4UJ182ZfWopiLnAx0puebdUS+xfQiZ81qd26dcOyZcvUa+lDCYm+CGSmtPN6yAXTsWPHZquUasL3y+wDRr6z0jNDyPmIQNZPRCAnRQSyIKQCCmG6UZcuXVqJYx8fH90j2RtOutkiqkuXLmjTpo2KPCU3+eUNjZO/MmXKqMmgoSICWchs+H2kKGV9KIVqiRIlVO/0j/UQSA2sP+VrUpR36NBBiXRGpx89eqTbI/PRB4HMaKuxsTEqVaqkfB6yG1xU4WeZP39+1YJKosRCRiICWT8RgZwUEciCkELYmmncuHGoXr26MuRiJDUnwZpipkozElWxYkVVg5Y4dZrpd2PGjFGTY07SmZ5pqIhAFjILfi8vXLiAuXPnqugeU2DXr1+v2qplxXeQr8lrwYYNG9R7Yb0qr4vstZ4V9alZKZApLFmzy77zrDc+cOBAtnR43r9/v+p3TCOulJbZCEJaEYGsn4hATooIZEFIAUw5Y00ea40PHz6coycRCSKZrUm4EMCfaezFCSAnowcPHjR4oxYRyEJmQDHKzA5mbFCMssUOo7j6sDjFXrhMwWZbOyMjI9SsWVOVXoSGhur2yByySiDzM3B1dVXXAdbs0vk7O0ZeL126pGrXmTqvr0ZsQs6C7vp58+YVgaxniEBOighkQfgArC3r27evSmvUN4OajIIp1/Pnz1eRZAsLC9SuXVtNoAyljdOHEIEsZDR0DeZ3jkZ4o0aNUlFkfYRRVD8/P7WoRiFPg6/MrE3OCoHMlHL2NWYLJ/7LaH52hAudFPc8x6TuWMgsWIbw+++/K6NTQX8QgZwUEciC8B7Yy5K1ZRTHTKUzJCgCmdZZuHBhFCpUCEeOHNE9IohAFjIStmtiBkfXrl1VKnN2MHzid2LJkiUwMzNTEws7O7tMmQBntkDmdZDRfPaSplkjs2uyK6tWrVIin/8KQmbBcrU9e/aoLBRBfxCBnBQRyILwDpgyxxZIrPtjWrEhwgjD7NmzX9dd64NrrT4gAlnICJi5QSd5pisPGjQIly9f1j2SPWCK8fnz51UtKw2rhg8fribDGUlmCmQuXPDvYs0x63azM3z/FPmMgMfExOi2CoJgqIhATooIZEFIBjrDMhLSsGFD7N27V7fVMGFbKzrXMt2a6ZPZrX1JRiACWUhvuPhka2uLJk2aKBM8tl/LzrAVVGaI5MwQyKzN5cJFtWrVMHDgQFV2k52h63bbtm1Vf+vk+h0LQkbwPPg4tjvPwRLXK0hyRQi/imMrd2PP0UBIFXzWwdalvJ4K8dCbgVlc+kq2FcgUWGzJwVXa7du3q5qLBQsWqLpOFxcXrF69Gm5ubkp8cT9/f/9sPyHKKbCmjqvqNOTavXu3bqthw8gQI8jly5fHvHnzsqVTa3oiAllIT5imy5RklnLQoTqnkBBxzUiRnNECmVF8Pn+RIkXUZ5TdYVaQiYmJWvw1FE8NQT+4e2AMWn2bC7l+6Yd5wYmyFm6vwLD8ndBlyDZc0W0SMh92Kfn++++VTpExX5UXsvWpvpJtBDJrKbgSu2/fPuVsyUjbgAED1MHlSi3FFg1M2D+XNT80PWKkgI+zxnXYsGFYtGiRahPh7e0t7n5ZCPtAspURFzGEN1Aks/cxU87ppmvIiEAW0guK42nTpqFevXqq/UlOY8WKFSr7ZOTIkRnSGi+jBDIXAbl4zXpjprwzIp4TaiZZb8we2osXL9ZtEYTM4e6hyRhY+S/4xw+l0Wz4AQQ91+YVfODOWowu3Rt9Ru3GNbWnkBXQ74ILmtQpMkqr+xaFsr6i9wKZQvbcuXNqpdzS0hLFixdXE2cKXkaKd+zYoUw9uA8jxGwNwTYddIxk30gaFbBBP+vNKKQpnpnzzggmxTL7TUp9UObBKAejOKzFkHrbP0P3VlNTU3WOZmdzmo9FBLKQHvA7xPIFLpju3LlTtzXnQVFWoUIFdY9M78XfjBDIvPavXbtW3QtatWqlWiHlBK5du6YWYpgNFBERodsqCJlD0O5xGNfvF9Ro1AutCnXF2ENPoRpmPlyHMWWM0ddSBHJWwiAI9QZ1ioxoVV6oz6379FYg8+Zy9OhR1f+RKw00MbKxsXndp5I3WK428wC/Lx2VJyOFM/d/+PChau1BYc3n5epFu3btsHXrVjWREqGcsdAgh8edEVJGDoTkoZs3TWqYJcF0dENEBLLwsfB6w9ZINEVh5lFOvr7zOrFmzRpVosE0vpCQEN0jH096C2S+N6ZS58uXTwl6LlLnBNiKitFw1lBLSychKwjaORIjB9bGoGmbsWpUKxQdvgYX7kUCTzbBSgSyIKQKvRTIt2/fVsXsbHTOOh6mJVy5ckUJ3PSA4pvp2mfOnFFpaWz30bp1a1Wbps+rGdkZHldG85kGv3HjRrWwISQPJ7vMemjatKmqrzfEhRsRyMLHwOsLBSMjx/SpMISafi4Ys2yFPXf5t6fX4lp6CmQfHx/07t1bldhwoTqnGBIm9G1m9JiL8IKQFVAgD+9dExbbruPWqfEwLlQKFk7XcD9wJ2wriUAWhNSgVwI5PDwc06dPV06WrB1mWjXTpDMSmn3RyMva2lpFlHnzFtfJ9IdRAtZecOGDn7PwfjjhYiuX5s2bZ3tH17QgAln4GFhyQ7HC9GpDgtlSs2bNUqI2vYRaeglkZmoxDbxBgwY5KqLPxRdep/Lnz68WJgzdYFHIOpRANqoIsy2hiA2/BG/rdijW2REbDy7FpFom6C8CWRBSjN4IZK4kMz2JNcI0KvLy8tI9kjlQkDg5OamIA9+Hn5+f7hHhY2FKPCdYrDdj72MhZdDdtWXLlrCwsEjXlMnsgAhkIa3QhJHGjFzs5HXd0ODfzP7yvObevHlTtzXtpIdAZo00n4clNidPntRtzRn4+vqiU6dOapGd1y1ByCqUQO5ZAQNdQ+M3BG9Cv6alYTSyB1oXNMNw6z0ikAUhheiFQKbJFhtGU0CtW7dOtzVrYI1z3759VQ0o09XEaOPjYSbAr7/+qkzRhJTDlEkKRNbfHz582KAiEyKQhbRCx+py5crlGOOntHDs2DHVxYER9I/N2PkYgcyyKHNzc1StWhXjxo1Ti6U5CYpjzhdoqhgaqhMlgpBFJAhk03UP4t2r8RB+S1qiZclf8Z+/N0afKYfgr7YLgvAhslQgsy6Vook34Dp16uD8+fO6R7IW1kCzryQNT+bOnSurwh8Bj+WQIUOUg3hOaOGR2TACRAf2KVOmpFsNfnZABLKQFjw8PNT9hOUJhgx78fK7Q28NNzc33da0kVaB7OnpicGDB6vSGl6/clrXAh5jW1tbJf7pryEIWU2ghyn6ty0II5e7eL2cHnYWqzoWwd9yFURVqwMikAUhhWSpQKZbb4cOHZTrI0249AmKubFjx6q65Hnz5klLojSybds2VUdLQzSpzUo9NBti71a2QslpqYnvQwSykFoYnWzTpo0qS8gp5k8fAxegeW/t2bPnRzlFp1Yg8165adMmVarEQZO0nAgzzGg2tmjRIt0WQchaHnkth/Ps4XA8EqqLIMfzwnMpRnUdC6vV3kjfJnCCkHPJMoHMaDHrdpiepK8kiGQaiyxbtky3VUgpFDkTJkxQKcJC2mE9PFvVzJ49W0UtDAERyEJqsbe3R/v27VV6sRAPSzO4CP0xZmWpEcj0SmCKO6/5jB7n1F7uXHDgoiXNRB88eKDbKgiCIOQUskQgs26HUUW6jOpb5Pht6ApKkyS2m5Levalj8+bNanJFV1Uh7fAcZAsRfmcMZfIvAllIDfSKaNasmSpHEN4QHR0NMzMztXCQViGXUoHMEhDWGbMLxZIlS3LsYh5Fv6mpKYYNG6ZKiARBEIScR6YLZBqGcEWbbtEXLlzQbdVv2LuRqWKcZEgLqJQzatQoVZ8lK+wfz/Xr19V3xlAyGUQgC6lh/vz5asGVPfOFpPCYcIGXxygtfEggM5U7ICBAGW0y0+X48eM51m+CfyuPRfHixbF+/XrdVkEQBCGnkekCmalevImuXbtWt0X/Ye1sgpkY21SI2dSHYZYA698Y+RTSB9YS0vDsY+oJswsikIXUQHHcv39/6bGeDDwmNJ2kgE0LHxLIu3fvVtF7GoLl9E4FLA1jydX06dMRFham2yoIgiDkNDJVIPPm0rRpU1Urlt3aJ9EsidE71laxz6bwfuhayhrztDuTX8XByQPQpWpVFYV+56hRBy0GzYDbxcj4X3t+H9c9psB2jReusgVqlBfc3DZhzcF7QEwgLiyejBYdlmHn8zcWFrcP2sGyc3XUqFUbderWRP1mzWFmOwWjWrdAk+rVEr2etk99I/RffBx3Xv/6AxyfPwXL3I7jSrRuk8bTwJNwt52M9ReeIL2af9AVtl27dip9MacjAllICYzonT17VhlzrVmzRrdVeBveuyh0eax4zFLDuwQyU43pFl6zZk3VA5iZVjkZRsmZxcMe04bUUUDIftDQk/4+0npMENJOpgpkmnawvzBNh7Ijjx49UmnDjFTkVPOR9IJp9BRzrIFLG3fht2cTVsyajelTJmHSpOTH2K5VUb1ZD4zcEn8jePUgALvHNEK/JafhzQX+gOUYP34qLNbdAWIfIejgBkwcbYVhnSdi1YFgcJoT4rsNGxYOQveWtVGheDuMnjUJC2cORp2C9dGp7whMnj4TM6ZPw5RJg9GzUwc06+6CKwmG3C/2Y9JQGyzZch2v/9K4+/A7shiD+s+GZzpbRjZu3BjGxsa6n3IuIpCFlBATE6PqQRkhNYTMirRy9epVdd0wMTFRi72pITmBfPfuXVVyRMHIrLCc7hrOemrWV7PfcXYpDRMMF6b/f/vtt+p7KghC2sgUgcwUZZpxVa5cGU5OTqlewdYn9u7di9KlS2Pfvn2pnmgYCnfu3FHpfB+bXv30xh5cuHRWk8rvwcsBdlYWsNzCNlxRCA0+joVmE7H3jk7Bes3CwoUrsfRq/I/xBMNz9kac8IvR/Uwe4vwOZ0yxOIhIxCHq/DwYdV2A3bdiEHn3Mm7euo9XeIFrB50xsb8rbkZHIvLqLswdXBu5/6iJRm36wdLSFgs3XcPth344PKctfivVAiYDBmGomRnMLWdrgjwADz+y0xUXmHr37p3j3axFIAsfguL41KlT6jzhfUXayL0b3nNdXFxQo0YN+Pv7p+oeTIFsbm6u+wmqbRM9ORo0aGAQdbh05razs1MtH8+dO6fbKgj6C1tDFixYEPfvS1MnQUgrmSKQmU7NFX6uvrI2NTvDKDJdQZlmJRGL5HFzc1P1x7t27dJtSRtn59fEsBH9sSpQtyE5zsyJF8jbKBhDcPfUZHQs0gomlpMwc8YcTO1dHc2atUTb4TMxY8YMNWbOmoeFzouwYN4szHLeiZN3uNARgvPbl2DKiAOIQAwivObAqOMMbPR+jCOOQzF5hjNOaPuc3ToPYwduxu3n9/FkwyD8UbYOajdpg9atGqFcnkKoZzQNyw4fx6LuzdG0bUs0b9ZMlRVUyFMC7ce64eRH6lpGa3juMd06JyMCWfgQ9IJwdnZWZS9HjhzRbRXeBdOru3XrpkRtajJ7WN89ceJEtSBBkU3BzHpjfe9AkV7s2LED+fLlw+TJk6XGXcgWiEAWhI8nwwUyb6oXL15UK9fr1q3L9lFXrryzt2T58uVVNFn4M6xHY8QhMPB9yvbD+Li0wcDuDTFwppsS3cmNVeO6oHOvwRi3m8ozDKEnF2NUo9qoUrECKlYtitw/FUCRIpVQv1F9NbFTo0EDNGhQH7WrV0altjZw3H4C5w4tx8ShvdCu8Ui4bFuL/W7T0LnDbLj7hOCky2jMmLcCp/AYXkogb0Lg09sI3WaDvo6X4Pcy/v36LrfH1AGNYOowB2PHn9XezRvOzxuK6U6rcIiB7o/gxIkTqvcmeyLnZEQgCx+C58jixYvVguXly5d1W4V3wZZE7Es/ZswYPHnyRLf1wzRp0kRlrVAc877H9kaGUmLEBf2ErB3JGBP0FX632Q4ygeQEMjMhGOARBCFlZLhA5o14zpw5qk7sYwWTvsALDW+Y7O/L/wtJadWqlZqEfSxX13VH+3L/ww+5C6FQoeRHgZ/+i58qd8P4XUkdRZlBGBu+BbZ9hsBihDMOnTml0jFPnTqN02fO4pyPNwIfRiDqVRwiPV1g06U0fv3pO3z9v59RrkZlmE+yRav287Ht8j0ccRqPec6b4IMn8NoSL5Bvhd1F6NaxaD9iCZZu98LZs0ew1NIMA2pXw4Dx1rDbfBX33tyvcGqWGaYtXo3DHymQX758qSLIvXr1ytalCh9CBLLwIWiURGd3Q6iBTQ84gaZZF6/PqalNpAHaf/7zH9UqKqcvzCWG0WL6ppQpU0aMOQW9ZsWKFXB1dVVGcpwX0Fm+SJEiePbsmSrHunbtmrpOSlBHEFJOhgvkmzdvol+/fli4cKH6suYEmJ7GNlWcnJ0+fVq3VSAUcGzjxXS0j8V7aUtYDO8NhyOP1MpncuPWlsmwGTsOU/Y/1/3WG0I8rNCm5Hf45qffka9IURQuXBiFi2ijcD78/kNu9Fl0FbcZ/Y2JRPjT03B3soW58QpcenwdAYfmoHvH6dh8+TQ2WtnAbqY7LkcH4eRmB1j2c0NQxGOEuo9AqYJ58dNveZE3b2789HVu1OjmjOV73bHcpoEmkgNwV9cR7NTMwbBPB4FMaLTDSDhFZE5FBLLwPjgJvHTpkoqSMJMkJy8WpSdbt25VKemsQ/4QvJazp3GJEiXU2LNnz0eYLmYvmPm2aNEiZUJG8SEI+syxY8dQp04dleFBfxxma1Ig01Bu3rx5+Omnn1SpF7M5BUFIGRkukFn3xBvywYMH028SExeLmJevEJPgyRIbg1cvo1VNmhrRL/FSu5FHJ/wcpf3/VSzScwrF1CvePDk5E+KhSQ4NXFjntmXLFt3WtHNxSTOMsTLD6uu6DckR+xxhoSF4/DxGOy0SfcJxN7Fp6FiMatsYJnMd4XjoEq5on9mVy5444m6JLl/WwNBFl3Hzta/PLZzYvBCThu/BM2iC+cxc9OhoD/fLbljavRryfdsKI3Ztwd59zhhv5oHg5/dUBLnDqOVYuccbPj6nsNyiN8xMZmJbyAs8PLcaS0bXgq17EIIjgHPz0k8gswcnTdCuX3/fgcneiEAW3gd70FLAsD5Wonsph8eqefPm6vpMAfwuGG1mfTeP72effQYrKyslGg2FQ4cOqd7O7FrBOYQg6DMMPtEXIFeuXMiblwv2efHpp5/i119/xf/+9z+1fcGCBe/9zguCkJQMF8ishciTJ0/6mnOFHMCS3qYYbrMfgU8e4KLTYFQqX1a5S5cuXQZlylVA+fLlUK6M9v8y2rZKrdFpxgGkp6UWjcfo5EnTJzHuiIc1WuzRy5rA9IisX3RuDkvLgVj2ofaacTdwZu8aTF95XrcIEoW720ah/4hlcD+xBe4uLli6ThcxiQnAwdnV0XXQahz1e6HtmYAfDrnOhc2Q7XiMMDz1nIdubaZgyworjB/TBj/lM4L5gt0IfPYQwYFPERd1H089rNF7ricu6loNnnMcA+uBE+DOrPu4KNw+MReTjWdiw7V72L3EArOc0kcgb9u2TUWR+d3KqYhAFt4HS3eY7svWRUwrFFIGU6stLCyUK/O7evmydypNFosXL67qjtnnmC2ODAXWbdJQlNdYaZMjZBc2btyIUqVKKTH89mAwR3waBCF1ZKhA5qrW3Llz1crWvXv3dFvTgRcBOLfeFoPr9oJ5+0EYMrwr/t3QDPOXr8E61zWYa1wBTbuOwIi567F+vSvWunpgy6kApGeCN6OlU6dOVWZUcuGJh6uTtra2atWdfTc/lvNOTTBy1AAsu6Tb8C7u78XCKcNRZtwh7YdXQNBWjC/fEabLPXFTk8BPbx6A2+iB6Nm6JZq16YSBdotw6GYYXiZJKXgKX9cRaP99EVRu3Batp7tg//q5mNJvFGY62qDvoImwmnUGMdp+d67ux+Kl2xC0xhL9Hc/BW+dXc14TyOMGTsTG16d6FAKPn4N/aCA2TeiP8TPW4HA6rKUwK2Po0KGqtj+nIgJZeB/0sxg5ciSmTZumSi1SygOvZZgzpCVaNKqnUhITRr1GFnA6+kBnrPcI/rvnw7pVCzRp8GafOvUaYey6q7j7OuvkAW5sm4bRPUwwfUcQnicKztw9PheL5k/Eas8I3ZYXuLC8M7o0S3i+BhgwfQsuJlwP4iLw/PgCdG3VMP7x+o0wfOF++CVUUcQ+xaP9s9FO9/t1G9pi+dlHiRb4UgYXFhwcHFRtLcuf3oYL2RTHfA2KYy56smY5cZunnAyjxfR4YAkLr7OCkF1goGbQoEHJCuRVq1ZJJoQgpJIMFcg0BmB7J07kmRKXvrxE8D4PbBxvDWv7cShltxe3T7pirq0FjGv9jj8qN0FTo2EYYWmL+esv4HY6t8ikQN6wYYOqr2bNR06GkyR+lkePHn1vmh3r0+hgTYOuGzdu6LamncDVvTDJzg7rPhT695mLGSNaocfWR3jx+CTcu/RAvwH7cU6ZZEXj7s4x6P7bf17fLL6pPQ/7E82pQ886Y/rgVmjYoD7adrLBZPuZmD55PAZ3HY5+s/biqu9qTLcYj5GLmNL8GJf3OKDTgIXwcxqkTVRboEGrLujatQPqlymPJl1mYuufAjPX4dqiL0aP24Jz6WCESnHAKJClpaVuS85DBLJhwkkehcmHxAmvR3379lUu1qnxtvBf1wU1S36mXQN6YfTo0fHDYhh6Va2AUn0XYNU1rnbdwbHJDVAj139Rof1ojFT7jcJo4+qoX7kpLOcfQ4Caa/rDa2YD/K5dU74uuxhHnr5ZcfNd0Rpd21XAsK3RiHsWgKMu/dG0cUW0NR0e/5pDW6FV9RowtnCDjyaCQ3y3YHGtzmimPT6cj3epgtJlTGGy4gbC8QqhFzfAuVZDVO1ijmHa44M0gV3ZZDYWez/QvWLKoGHPmjVrVInG222aNm3apIy43r6nMc16xIgRup9yNrzeMBONfbUFIbvBrLKiRYviL3/5i5rrfPLJJyhXrly6zMcEwdDIUIF88uRJdSPmlzY9zT2Cjy+Cw8adOgF0ER4LrFDUbB42mVdDyRpt0MV0LMZYjoTFcBO0q1oetRuMwipNZKVnDTJhnRJTsZjakpOhQGZrK9aucaLk4eGRbFo5VygZaWA6XnBwsG5r2om6uBjzhvRAyx66iew7hnGbOuimCdid12/g0JKW6Fl3GKzGT8bkSdp5MNoao01MMajfSIy2mYGZ9mYwG2gOC23CO4a/77QL2zY7aAK5O4xGL8aW88HwOTAV0ydaoWe/tdgWzJPsClaP7Irm9bpi1Oh+MO7bC6bTDiFgiQnKV2uI2i0okNujVpGiqNliCraEx+H5ncPYZG2FsZxYj26FykUHYJKLD9LD85wpgIzSDxkyRLcl5yEC2TDhdYVlGozgsUsArzvJQXFnZGSE5cuXp6rEJcDVCLXblEcr17dSZ09MQIM/esB06WW8wBOctGuEznkawOGC7nHFVWzqXhQla5pg0im2SQrAxUVmqPzXvPj9l9Jo7uEJdbnQuObaA/17NcSEwy8RcXU1xjT4Owqbbtd+I4FHOGRRCoXzFIPR1iCE+B3C+jE74ZuwkBt5ABNrVEGlZvPgGXAbRxb2R7kK43EoQQ8HLIBRjeboNHoHbqZi0Y33YQphZnXR5Iwwquzo6KjSMLt27aoWHxLDz8IQBLKXl5fyS6HBJNPMBSG7we8yg1IJwQAK5NWrV6uSQEEQUkeGCmRayjdq1EgJZUZc04trm8zQqnNlNLR3w9HTO+HuOA7FhizANpvmaGI8AfaLmVrNsQKT+3VCj07j4KrptfQWyH5+fmjTpo2KYuR07ty5o/5WXnRz586t+mnSkCtxHRuNXViXTROpdLkgx1zHsfkW6Fo/IS0x+VGv9QhM2v1Aey9eOLB8AFxOXoTb5F7o3oiPD4WdewCS+j37YYdNC7Ti7w91wq7ARFHxe8exalo7dF56KlFKfjQC9s/A2E71teerh9Z9x8Ld6xmentkIp32BuKNb+7m93xXrl7jjfGwcQq+vw4xG9dFAvccGaGyzEvtvpc9NipM3Lgww0pNTEYFsuBw5ckRFQXitqVy5shLMvIckXmSlmGG0c9euXakyj1ICuXV5tFx7R7dFh/d0tC3QHQMdLyJME8inpjRBx99qw+6QKtp4TYzXTHSs3QGt7E4jAoE4O8cWrX/pCbNJZZC/iSU2eoaB7+ama3dNIDfC+ENRCL++HjOafY+iLcdi1sHb2u/pCNyIuQ5mGLUlObM9H6xrWxJNK47EJs8geG5fioEemnh//WZOwrFKaxh1dMGRVKw9c7Fzx44dytGWApkp1byWNGjQQJXHJNff2BAEMvvI0lySdcfJpZ4LQnaBASmac1Ec00cgcS9kQRBSToYK5ISWEulq0KXjwYGJMLEZCntnF2xbrAnkYY7YatUApUqWRdnKNZWxSM2a1VC6YFFUa24Lt7fmQ+kBxWGTJk2UO6AhwLTHBBMIXnx5EWY69fnz59Wx4ESVEy/WuAkZC1PZO3TooPsp5yEC2bDhouO//vUvda3529/+pnrRcpuPj49KE2b7kqpVq+LEiRO630gZAW590LhBPpQfuliJ69179uPggb1YPaQDynefiDknOZl8iOPvEMgI3YppNfqg16DduAVNuE6zRPuy47Di2ibYV2+OXuMO4OwL4I5HT00g14fVHk0uRwTj3MJeqFYpN76o0Bt2zpu1196N/WdvIvgd4jbykgNG1miEDv034Yz2fEl5jBtb7WFa2RxWjmdSbT7JfvBVqlRRRl39+/dXi4zv6zqQ0wUyo27MeuIiQUraXwmCPpOQyffNN9+ocgpBENJGhgpkpuLyRpwRN52Y8GA8eHgXT/2PwsNxPEoNWYAtY5ugmTbxWb37Ai56X8TFC8ewfFRv9OkwCqtvp38EOSQk5HUrCK7G5+RBIzKmO1aqVElNWjn++te/4vPPP8cvv/yi0n3PnDmjJltM1xMyDrZL44SOaZI5FRHIOROeu4wEM1KZOCLMOmK6UTN1mvcL1sAy+sGFOF5r2Gro//7v/1RvT7Z32rx5MypWrKgiyakhYMsgtC/zGT7/7jfkz58f+XJ/jy//9Sn+/fUA2J+8q8saCcKRdwnkh5swoUovdH4tkEegdXF7bLx/Hz7rTFGpfm9MPPQAl3cMxqBe9WC5JSH9OxZRT9wxq24FlMmXX3vtvPilSnsMWOmJsLe8cyIfHYPjwDJoZjQaK8++THLfiosLRej+WRhUriMG2R/B5ZjU39W4uFCyZEnVXYKmPh9qk5WTBXJC54V8+fKpUinpp5094edIbw5eP5KbvxjS4FyNWSHff/+9mrPx5+T2M6TBspF0NQoWDIIMFchr165VkxwKyfTm8ppemDpzGnbuP4djLpPQa+YB7LVtjXIlC6FgwQLI+3se5CtYBAXzFEONdjOxJQO+G7yZtmzZUvWZS+g9l5MHJxH//ve/XwvkxOO7775T0fSvvvpKpbcLGcukSZNQrVo13U85DxHI2R+62idOf2at8MWLF5W5IVs0JXb/Z7YRr6W8xtAUytXVFcOGDcMXX3zxp2tNsWLF1LnPfW/duqV7hpQRsKE36jctjjrTDqm0Wn+vZRjX6FtUNlqMw7cSxNGtdwtkH0d0KdEWlYftx32dQG5ZyBZuT18i8pU3VvYrBuOxmzB/hhmGmzTAmG2hiH0VjWiVVx2H6JAHuBccrL32deyY3gbtWrbQ9km4P8Yg8uEJuAwqjwIt+sL+0G1EJ1HHLxAetBrWJVtjmN1heL+ISdOiL1OIKY65yJYSB/CcLJApIPj3sWQo/Y1EhcyCJlQFCxbE77//nuzcxZAGr4s///wzvvzyS/X/5PYxtMHjQTd+QUgNGSqQWQvBGrL0jyCHYO+4rrC0XgJn9xVYOroBJuyMRMjDW7h68Qw83a3Qrl43baLigmPnfHDt1hOEJ5nlpB9169ZFz549VfQ0pw+mWDN1/e0J608//aRSeo4fP64eZ4RHyFgokPndyqmIQM6+cOGQ0eBly5ap2mFGdwhbv/E6wcwHijOu7CdE7CjaWBu7e/duFdFkKnXZsmVfR5ATBsUxHYYpoCtUqPD/7J0HWFRZtra9/8zcmTuhZ3q6p6dzm3POOecsKKAioiCCGVExixFBxQQK5oCIEUURBBNBUSRJFEHJUTKShe+vtSkUDDSUhELXO895pt3nUOHUqVP722utb1W5FU/4eXUMUeiK8adL7bKykGC3HKod20LL8AGCRcC3NII8BEYuJGvfknldH4MHKGKMqa9EOEfAw3g5JrTchHNphZLjipFrvxITui1Cj55tobJcCYau4Yh9cAbGo/bjRmJ+uccqdjWCpuoYDNhHZllFyE84j12Du2LsdEOc8nyJzHfVb14iEmxWosMgfex9VDX36rLQZ0MCmTxCKsPnKpApqkQtncg3oyqtwhj5gxbevvvuO/F78aG5y5e2eXt7i3vo48ePP7j/S9vIW4DKA6vTC4n5/KlRgUwmTpSCTKYr1Xth+uLMakNYnDiPy6fWQ7e7Go5HFCM75wmuzj0BZ0dTLFpjgeWayrC8fhz3k6V/Vs3QqiVFPWgi+CUQGhoqRFnpZJVqkKnVEE2CS826Zs+eLfpDV8VZlqk6BgYGwlX8c4UFcv2ktM8umTNOmDABp0+ffmP8RGnU5FdANbAkiMsa+b2b2koCmFKqS+811KrEzMxMTPyoxo7EDf22UOS5VIBXBiGQJ3TC6CNletdnheHm4j5oPmoddj2iaG4S3LaNkgjkodj1sOQQQYYzDoxthJ4jV+FwIL32EDw0WobxLTbCOjm3JNKcE4+LK8eh/dcN8K+Bqtjpno0sv3NYM7gRuhjb48WbeuJk+BlPxoiWw6BhE4fsuNs4s7wHJqntwNUnZRoql6UoD/nxz+ERGo+kPNlXfGlRgRYf6HOoDJ+jQKZrb+PGjcIzozp69jN1C5UNULSUP0vmQ5BPUPfu3VkgM1WiRgUytUGitAYSylVxGv1dXlhCe/V+rDfZClNdJfRWsMKDlAQ8OLoIm9bZ4YmXNVbr7sS6TStxcNdCrN9yHp7lbYw/GZrQ0Qo8RY+p1vpzhyahU6dOFZNV+iEicy4yuUlOfrv6QBNXWpGnNhk0Ua4V8p/Ccb8uJkgmOjTZGT91Loxulo0GxCLgwm6sVVXB5Aklx4wdOw7jJqti/930t+7Wr6PxxHor1i4wwEmP8k6uEXeMcfD4Edx8Kp2U5sXjvsUUqEyUPt54Baw/44voarzEK4JSAanGiPrAfq6wQJZ/aLJBq/OULn3nzh0xRsKD0lap/RLdHyh7iO4LVYFMHUtdrMmIy9TUVGSnlP0NoQkxuepT3WhVWgg+t5yC7kOaoL9Z+brbwqiDmNmmCXorm8M9LRq+e8ajX4P/xW/dxmKMuGeMwdh+jTFg1HyY2oYgWbwUf7hunI/B36/C6aRslL6K/Njj2NTnn/j3P4Zh1U3JaG4Sgp2NoDG9A0aOGi29B/VGrz4jobPWEQEvUxB9XQ9D/9AAf27aHyMnKmLS+JJ7y9xNp+Ba2jGvMA1p7mehv/cqbke87zZdGegc2tvbY/To0WKxoTJ8jgKZyr8old/a2lo6wtRnKIJMqbQUMWWYd9m1a5fIOGKBzFSFGhXI5DBKfZCvX78u6tGqi4yLizB++S5M11qK7Ys0MPukK+7b7IPhtsM4e/4ADHSGoFUvbey8n4C4p+dhsnQh9M6FQgY/k49CApkmGhQxpff3OUPimNIeacKmo6MjUufJSfZdqM0TLRhs3779g+1Cqp2YOzihp41RI6ZhysKFwnBGe85ETFBUw6Lzj1DSVSkQlzU7ovP/+xG9lEqOWbhQG9oKHTFksAb22oThJd0zi7xxfUk7fNXgL2g15QbKNl7xMOmKsVMnw9hVcmCyH+zMZmH0yK5Q0F5Q8nhq/TCi/0Ss2nsPobVQxkaR/NJ+058rLJDlG7r/7dixQ/TN1dfXh6urq3TPp0GfO3kYUPcDKiP42ONSJJoi1LQ4WZXflrRAW1iel/xO+LxtT1dCDPyOGsPiwE08yZQIUX87nDRYB329hVgkvbcsXLIcx10T8PYr/hIxD27h3AEXBOYUivZOJbxClOMJnNl7FnfD3i4ORN7cCIMVi6T3IF2sP+okeS7a8wppfnY4arAR61bqQXex9Pkk2xaL6/AuzaYuzECGpw02HXKAS9TbJnRVgc4vLV7MnDmz0tG2z00g0zVFmV+0yFvVxRtGPmGBzFQEC2RGFmpUIJOooogiRRiqM+U27dEZnLdzhbW1Azxc78EvIhxB9sdxxTcPYdf3YpmmMqZvPIO7UTRliYefx00cvxpYrQKZvmiWlpaitoEiJp8zJJCpXpAyASqK1tBkY8GCBdi8eTMSE2WvkascSfDbpIZRTadjjmUocqWjKA7G9a0D0brHYhy7lyIZj4StdhdM6aSJM2X7oaTcxb7hv6CDwg6cfEZK2g9O69XQ9n9+wG/tR2HuowjkSu+lXgeHYprWbJj7FeHVw23Q7P8PdF33+G0/U4mctlL5VvJ3o7HyTs1Hzul7RQZGxsbG0pHPDxbI8se7KdFUSkFbdXpM0O8ElWzQVhFUX0e1oxQB/NBiHfNhKM2dPCIo+4QW2irD5ySQqZ8/XTdqamqiRIr5PGCBzFQEC2RGFmpUIFODcqrzoSjD52aCQVGLxYsXi1pQto8vgcQzRX2oLplqBGuOYonAvYhVA1Wgs9IB5afnxXj9yg47OvaDpsFthBREwmlRdyi2nwELf+khgmKkO6zEwN6zMO9MCArgjxt6G6DQZIrk7zqipcJueEhbgz05OEQikDVg/qQQaR47sXzQD+imYYFzAWklDyUh32s3Vhoux7bbpfmQNQfVEOrq6oqFp88VFsjyAzlF0+dA7dvoc5EHSJRThJXqktPS3n4PmYqhkhiaLNICG7XFqQyfi0CmBVx639TvmMq/mM8HFshMRbBAZmShRgUyQWnIAwYMEHVlnxMkkAcNGvRZi5SqQvVtZMpDUWQ3NzfpaE1QCNzbhoGTlkDjrD/eveUVZnnjpMZvGD7/AJyTg3F3ac8SgVyu7PA1EHEaK9rMwRKTx0hBIOwW6GLaaCOc9TuBte0nYeHREIRLnurpsWESgTwL+zwkcjnVD3YbRqFN2yb498iVsLx2By4ubnAPSUTa2xzLGoVq3+fPn/9Z18+xQJYPqEWfoaGh+CwoW4YWPeUBeh3kdUClBtSuiakctLBAZTBHjx6tdFujz0UgU3sxajtJiyrM5wULZKYiWCAzslDjApl6XVK9D9WVfU71PlRj26VLly/GwbqykPHLlClTYGVlJR2pCSSq9c5W9FdcCo1z/uVapxCvXyXBfmNTjFu2H7cTgz4ikCWPEXoCi1tqYL5EIKcKgTwfioOP4E56OJx3TUXbcatwNDAd3qcnYKaWOna7SE26qDVMwEGJuG6J1o2pz15D/DRyPoycnuMTzGUrzZkzZ6CpqVltdZ/yCAtk+YAmnpTKT/dvSmWWlwkGLVDSPYbcrakemakcdH+miWJVFjA/B4FMra0ockz+GNzv+PODBTJTESyQGVmocYFMaVxUh7xu3bpaqEutHWhydvnyZZE6XrOR0voHRXbIzIucZ2sOiQp13Y4hExZB09KvjDlOCcW5L2G/tgUmrjiIuy+fflwguxhhaMOpUNzrjVdSgTyxtxnuFRcjI8EOO1VaY96eBzhuOBlai2Zjj0seil4XQbJbQj6yol4g7NkzPHv2EMeX98eEafNh9uBNNXSNQd8lchSvNafwOoAFct1A9zZqwVSaSk3Ge7QYWJVWSrXFrVu30LBhQ+FwzVQOWlRr1qxZlUpg6rtApgwDqjmmuuvqrJdn5AcWyExFsEBmZKHGBTJNtCjKqqys/NmkWdOEkSJ4K1euRFRUWecnhtKstbW1sXbt2hoUcBKFmnkNmwcrYe7iK/ArF0J+jfw0e+zoNgwLjVwQVhgFx4XdJAJZDYcCpIcICpBopY12vWdC88JzFMEf14RA3gsnsT8dqSc00bPdCowe0RiTVy/BMf8IhNmcwK5plni3g2j21cUYpTIN087U7ASMavmpx6ySkpJ05POEBXLtQx4Cp06dQs+ePXHjxg3pqPxCJksjR44UkWR2I/596H588OBBIRarkipfnwUylQhQKv7gwYPx6NEjYS7HfH6wQGYqggUyIws1LpAJWuEfM2YMbGxs5DISURXoB5beD6X20fuhiAtTHmrKvmjRohr+sUrHMxNNjGo0GdMO+uGNTU+uN86t7ILGfZfD8kE68hFR4mLdcTZOvZAeQ8Rex7YBP6HnVFNcDKeo72NckQpkx5IjJLOrZ9ir2hVN/t0A30/Uh1VIJlIdjTGrZ2sMPR0gkdilxMFdbxB6dlbGUruaNaOjiQBFj8kp/HOGBXLtQvcxup/169dPZChQSqq8Q4KP+oGTMSC5EzMVExQUJO7LdH+uSleJ+iqQ6beaFnyaN2+OkydP8uT4M4YFMlMRLJAZWagVgUyr1evXrxep1pXtvSivkAsoOWGS0Um1mcNE3MOhI2dh7vxCIujqP9SihT5r6rdZo7z0hK3hcigOH4eBU6aI2udJEwdjzDRdbLkZiAQRVAqEjVYXdGjwb7QZXHLMlCmTMGlAUwwZr48Tt2OQTkGF126wVp+Jwa23w07yz9I4Q2aIAbR++3/4Z8PZMPUUA7h3YQkUFTphokLp4/VG3z4TsWzbLQS82161miGjGZrk3rx5UzryecICuXah803mb1TfXradkzxDUWN6vbT4Sj33mYoh5+bRo0eLNGvK9Kks9VUgUxr59OnTxWuvzjaTjPzx+QjkBETeuoB9K2/CMyuPCsGYaoAFMiMLtSKQCRcXF+H6fPbsWelI/eTu3bvCnIsESrVFjx8aY+hIVQzZ5yUdqN8kJSWJKCdFdmqc4ki4W27FXA0NaEi2OYvX4vD9siYsiQi9eRJ7lutiwdySYzQ0NDFn/jJYeua8XZAoikbg1as4ffA+qDvo20S8lwi03I1Dey/jQbR0UlmYAl+r+WUeTxvrTj9EWC20Y6XoHjlYf+4RMxbItQPdw2ij9GqqN65vkAjq37+/cM/nyc/HoXNz+PBhdO/evcpO5PVRIFOtMd0nZ8yYIdKsmc8buRPIRYVI97PDdWdfBCaULkZlISXeH07eFV+P6feOYPnAsdjt/5FFrPwIuFzYgE22PkjOkaFkICUYIY/uwVbEqiQSPM4F57auxXJdXdE+8s22dBmWr94GowseiMgtubfmBd/EqV2ryh9Xdlu2CmtNzsMxJPk9b5i6hAUyIwu1JpDpR2rTpk2YO3cuAgLKFYPWGyh6TCl9s2fPrnJ9bWbkfTha7cXevbTtw/4Dh3DszEnc8UtBzv1DmDZrFcZttMDta5L9+4/B8nIoSm+jSYH28PBxws3Ll3By736YHbPBNb8kfLTqriAZka5W2C95rn0HT8L+acabdOCiFE+4Xjog2bcPB85cx8M46Q6kI9zjGvx93eBy/RqO7jXF4av34RuejBfOZjDfb4aDR9wRkFrwXluld6EJNwlHPT29ep9SL0/Q9UfRMspg+NxhgVzz0KLlkSNH4OdXzr2uXkH3F/I7oMkZGzB9HMp2IpFLv79VrdeubwKZFnvIrbpPnz6ws6N8IOZzR/4iyAWIPKyCybr7cYwyzyTkvTgDY6V++LX7TGzdbiKZBx6AxYljOHLjEZ5GhSPe8yasDh3D/s06mNqnAbqrbIWR2SE4+vjB+95tXD1yEKY0f9y6THK/mwa1I86Iy8xHQsB1OHv6ISKdniVTMl90xpWTR2BuWjrfpM0MZ1xCEE8RgURPuBxbizmbD+NJUhEKX1zFntlKGDdqlPA3ebON7IfeHdrgx+FGuBlfsvqf43MR+1drCIPaD24Tu6NxGxXMP+4FecpDYoHMyEKtCWSC6trILIPSrallSH2CRB9Fv6lVBLXKqKrZR4K7KQxUu6Jr1+7o0VuytfkB/9fgWyib+iHl4Vloz5iJlkOGQnO65JjW7dC09QxsCZWI58JiPNreHqMHt0OPnooY27Utmv63IZpNMsa9l8Xvr9IVpCH67iksVeqDdl07o2OnFhigJBHeQVnISouB/abJGNi+Edp2bY82bdphvN5VhEmU+GuEwEqrIRQURmLiZC2M6dwKzTsPxMC5W7BOvQ16d2qOX/4+GHNPeyC8Eh8d1blRGvrDh+/aWTGycvXqVQwZMkREgj53WCDXLL6+vpg2bRpUVFTqdXoy3YcpdZh+V6i3L5swfRjqma6oqCjux1U9R/VJINN7I9M2Mm+j3yDmy0BuBHJeJlKe+8A3PB3PjmlBa/1x2PinIynAHRe36UFnyAD0790T3Xv3xaBBrfBjg//B//Vdg1OP3eC3YzK6fftP/LfdIAwc0B/9O/+Mv/7xa0zdZ4i1YxXR71+N0KprVwybqosz/tLnK3qFWxubYbTOGpwW65xBuLV2HJo3+Bd+at0VXSTHdxVbE3QevgoW1xORITkqI/QKrDb2xeK9TxH90flcAsJvGGGqiinuRGWUZNW9isdTLzc4Ojp+eLNaDZUJS7BKIpBL+iDIByyQGVmoVYFMGBoaijZAV65cqVIdVF1DdbVUb7pixQrZHFOLi1Akeb9FEilakBmER/uXQ6njRhz2TkDRi9PQ7PQ9/txlLg75FqIg3AF75zVH83lW8E3IhNf+Hmjyr46YuOsJ0gpj4Lp5JIY06oK11wrw6p3ve+HTM9iyYAa6r3JEQmE20iIvYNfQRdh7ORw+tqsxqdVQDF97H3GFSfA3n4nRDZtA63QsknJewHZRC/zcdgwW2sbidY43zmn1wF//0wtzrUPxMsUHZ7UaYZjWLthWokMI9b+mCThFkevT5yzP6Ovri+vvS4iUsUCuWcjNWF1dXdQd13dRSc7udG+eN28eYmJipKNMKbQYraOjg6FDh0pHqkZ9Esj+/v5iEZEWfuLj46WjzOeO3Ajk5FB4Hl0CjfUHcWy1CjQ2H8GpKzY4pzEfqhNNYfMisyQDLz0STzzMsar3DKw1cobo7xJ6DXama2AsEbHpEqGddNsMunqH4Rh2FcemrsbaRXYlx5WlKBt3t7TBhIUbYCVEsz/s9KZicLN5OOhfgOzCQpFlU/j6EY5NGget6YdwWwjiXCSHX4PpyvPwS/5Yac1LRDvuwHQSyNFSuRvjhD2LFIRJ7Qe3jk3wY7uZ0L8iX3MUFsiMLNS6QKY00TVr1oh0DDILqQ9QehpNvkjwfbqBTSQCDy+DamdtGNsl4GWRZHLqfxAq7Seg24IrKLEwi8Gz0yswofkGHAuMxc2DvdF6/HRsuF3i1fzCfgWWj+qANdfykVlOexbj+WUd6KgOxIILpSngr5GXmoFXufl4uHcAFNTmwMSl5I/yn17BFtWf0GjVRQQn+OHG0jYYIrkRnwqivU9xe9U8jGhrgMt59Miv4LypBcYvNoZNoPjzCqGIOwk6Wsmvryn18gRNcnv16iXSpb6EKBkL5JqFsnni4uI+mwmDpaUlJk+eLPrTM+Uhd/Jhw4bBxMREOlI16otApnsklZ+QiSGn239ZyI1ALipEduJTXFrXDRpjO2GAvgHU5x+Dnbk5zmzZCI2JB+GYEIaQ8xsxsp86Fh/xQVTeaxS9zkVWcjjczhhh7ay5MLJxwE7VlTC9+whPU1xwZOwirJhjCdeUVFHel/oyAQmJacjKysTtbR2guHgjzopplkQgL5uO4a31cLpcB9KXuL6kG2aq6+OUXwZSEhOR8PIlkl6+QoFkDlqU/wppyZKx+DjxuyC2mEdwOb4ak4RATkVOpuT46BcICfSDj49Pyeb7BE/8/OH/xBe+9O+b26A+QRsLd9xAWGIKUnPko8SOBTIjC7UukAkycSIDDYpgUE9heYZW35YsWSJ6g356KmIKgm2WYGHLbli0PwzRpfeOx6aYPHE+Jux/KE1LiUWE9RYo/7YGB/yicP1gLygsXIUT3iVf7jDHNVg9sTPW270rkHPgcVABKqMHYuU1SqQpSwJurGyPMdMX4bCnVGDFeeDs+pH4Vf8s/GK8YbekNWYvM8dNUZf8BE6rl0Khs4loeyR5Jtzd1AoT9XbiihDQv8+tW7fEosLu3bulI4wsUMaCkZGRWGwgk7gvARbINcPnurhCUWQSyBs3bpSOMKXQ79fAgQORKJkUy0J9EMg08aVa9Hbt2tV7I1Cm6shbDXJeoh8e7laGyipTHHBMRGZ6GjL9rmG3Qkf81qEnOi0/ilsPwxBXmt4ccAk75/RH88a/4Id//h3//uEnfPOP/6Jh61ZovVgHU7v2xvB//YTfmjdH82bN0KxZS3TsvRT7XGJwdXsPqCx9K5BvLJ+OoS3m4aBfHrLy80VNfn60DTYPGgG1pZuw12wTZkoep0WvMVhuE4/cvEIk267BlIFt0Iwe/83WCA1/bopfFPfBKc4f9sYTMbJDO3To2BldOndCx44dpVsHdOok/XebRvjh2//ivz80RPPBatC+KB9da1ggM7JQJwKZoOjxuHHjsGzZMumI/EE3ForYUbT7+vXrnzy5jHI2xLYZfbFsj2f5Ol5vMyj1mIGBa25BNI4qeIFAk4Vo+etqmPhHw14ikFUXrcMZH3E0Qh1WYeX4Dwnk1wiyUofW1AFYcfVdgZwHN+MeUNScD3OPkvdREHEb+xe0xM/LreAf5ysEspb+ETgJk1NfOK5ajAmdjHFDck/JL87AnY0Sgby08gKZVvTJdVlZWVk6wshCRkaG+PGh3sckHL8EWCBXL5mZmXBwcMCNGzfEf3+O0CLS+PHjxXtkSnj06JG4/35K3/T6IJAptZomwFu3bkVa2puu+MwXgvyZdCXi1sruUFy8AVuMN2HVhMEYpLwQhqeccO+eG1zCEvDy7h6cuxuOMPpJfxWHUG8X3HFxg4P1UaybMgALD9vh2t27cHpiBcPhM6GtYIgTl4yxTUsBfecdwVUnb4QkpcHRsBMmLykVyE9xd9NktP/Lf/Br687o1LkzOtPW+kfJ80uezzMa0eEBeGBhgOVTB0HBLBQv014h9vh0zF68FZuOXRdzXbHZHsGB1eroP2kPbkXHIy7YFc6OjnByugUnB3vcsLOD7TEjbFXrA8VV53Hykh3s7B1xx9kZzndv4ea9h3gcJR+/NSyQGVmoM4FMkVnq6Uor26tWraqyK3RNQ3WzpqamYnJB5kifRgHCnIyxQWsMVhx0xnutcp8cwtQWP+KnMTvgTOXNWY9guaA5/jHxAJwiUvDItAemLFyD094lh5cTyO983zNvb8IchQEYtEOqYgtdcWGuGvZYhsD1qA7GdBoDZdMIYbiQdHU5pjT7N8btD0J0RihsFzWH5opDcBSlW58ukAlKeaSFEKp1ZEfrqkOp6mRCROZw9P9fCiyQqxdqS0ft6cjgrT62c6oML168gKamJhYuXMitfSTQbyoZcykoKCAqqly+ZZWQd4FMJVB0fyRTSK47/jKRK4Fc+BopDnuxWaMzhqxdhhm92qF5gwZo0OCv+LX7BKioKEN5/HD0afoVvm/SBZ37zcamQ2dx+eJxbNDQxPQJw9C7dWN0G6uKaTOnY7/DUWwetBWGGzyQhmD4nt4OnfOl8+Uc3NvWDpPepFgHwmmtMnr9dyCmrzfFPjMzmNF28DDsnyTgjVxNeoib21Ux43AYElOzEHdaA5tPeuHxu+3CM8Lh6RmDPGlsKOXhTqzbuBEWXqURnii471PDKIsQvMkFjb8Fu2s3cPOF9N9yAAtkRhbqTCATlDp66tQp9O7dW7QFolUrebiAqcfsggULhJnYuXPnqsFxOwI3lnZEiz/8GY2HzoXOHHWRXq4+WwsGVl5IcNwL5WF98F2vUVi+Sh1q48ag+0RFrL3/Alm5+XDf1BhDZy3BYY+SR3tquwgLBzTC8muvkZ6di6CrK7HvrAN8KDU6wR9Xdi/AsGG9oag+A1OVumFgTzUcsI1EVIgPLGYNk0yU+0FBfTLG9GqNgZOM4fK8GHlFITit9g2U5+/DddFi1xPXF2lgUEMDXBECOR039f+LwVqbca7UQbESUFofRZGpHyWJPaZq0CSXzh2ljlIa6ZcCC+Tqg0pa9u/fL1r8BAVVYXWrHkK/IXTfpgnRl87x48dFW7jz589LR2RDngUyzSEoakwL2fITPWRqG/kRyK+QFXEPJssMYLZ0HKYb7cW2XVY4s2AchvVoi7YTl2PTupXQ11sIjRFt0GukKqbPM8apG3dhtXUsBv7n/9BskDZGt/sB7Rv/BY1GLILp5ZNYr7gO640fICPLHc7mGzD72AuIFsjF2bi7rT0UytUgq2JEmxWwrqCi4vUzR1zcoAK1oy+Qnl+MFCvJXPTgHdx+bx0tH4XPb8HomgdCXuYi7tER7Nm1GHomJ2Gx1wpXdulDb1Yv/G+XMdh9LwT3z27HIs1J0Nh5HrefUU8p+YAFMiMLdSqQCYrUkomImpqaiDReunSpTuvk7t+/D21tbSHaT548WU1RzzgEXTkIQ8kEVUNtqnDYFNv0mVh98jHin7jivM097DtmiuNbaFwX+qf9UbKYV4wwx+04cuEaPET+tWTCG2QLWwsj2D8FcnJzEXB5KXaetoOXELaSv3jpgRsmapgmeY6p6ouw63YiSiV+TtgFHNswQ7JvGmbqbYeVX+n7i4en9SZYXbmPYJGdHYNg24s4ZHQLgZKP43VxLp7Zb8Hhy7fhV8VFeupFSdErZ2dn6QhTGejao3NH/Tw/B7fhqsACufqgRSpq70MGiZ87VI6wYcMGDBo06IsWTCEhISKqSgsjn3rfkFeBTKnU5G9B5oVeXl7SUeZLRF4EclH6CwRbb8Cc3bfhtGMWFm8+hcuRkh3Z/nhoZYgt5rZwlc7jUq3nYtu5ZwgmzZbyGBeNZ0Bv23HcfJiI62uUsfWACbaZ28HTbhcWr96DrVckE69UF9z9HYFMNcjDWi7E4eBiibz9MK9DbsJm2yzMPBSOJzfs4bxfAcuPP4CL9LW94VUk4qz00Er3LG6Hlj6aL07o9MZf/z0Y8+auwsZ5fdC9e1v0HLQKK/RWQPf4BdyNka/OJSyQGVmoc4FcCkXHKNI4ceJE7Ny5s9adj2nySP0TyeiFInb1xWG7PkCOubTooKWlhYiICOko83tQazGKhu3Zs0fuzeyqGxbIjKw8f/5cpNtS66cvYVHgXSjrhNo60aIz9ez/VORVIFNNPZkJrV+/HllZ7+aGMl8S8iKQXyfHIczuAm6FJsPn2DzMWXcYVj7SzLl4L7hZ7cReNxKPxRKBPBvrjz6COyWGBZzDmVOncYnEdNoz2G3RwD73ZNw9txtWuqOgtOUirMMl+xLv4E45gfwKTusbYviclTj5RPJviXi9On8iev6gAdOAjwvk4nBnXF47Hp0VN2Cx+hpYrB8O7eP3IXnK8ryOwYsjKtDY74WQ7FzEu13F2W0boKM2CaobT8HNLxHPjkzHmn2nsHSSDlYsNoGpkx8i5Sd4LGCBzMiC3AhkgurGtmzZIkwFpk+fjosXLyI4+L3Ob9UKRVcoakz9malPJLUm+vSUauZdfH19MXXqVHGeP1eToOqEoiPUQ5pq9OWtPr82YIH86dB1Q+UiX2Ifcsq8oPv5gQMHZOtbX0+h3y7yzqBewB4e0pqcT0QeBXJoaCjmzJkjFrO/pM+X+TByZ9JVlIvww9OgvOwATnqWKS0ryERsgBNuXbuAI/PHYom5Bx6XVk7lpUn2ueDyUTOsmqoOM79kpGd6Y7fWbKzcby8y+RDtgJv7VmKqRRiySesV58LrxHTomxyB43N6kDA82L8eC5V24mpEMT5W1JYf5ojDM37Ad+1HQsPsIbyOL4SW9kqsPmAPR0fHN9vV0/uwcnZXbLrmjyf+l3BwSj906qSOJcdv4Mmju7httQcmOlOx1iEDyYW+sNUajZ7D5mDpoYtwdPXB85fc5ompv8iVQCZoMkfOm5qamuKGN2nSJOFKShM9mjRXx2SPBBr1eaMoNUWtSZBTDRMZ2bCRVM1Akxiqievevbv4PPk8fxyq1abadzLYocWbLxEWyJ8GOfCTUNq+fbs4l18adL+hEhkqT6CynS/B/4De45UrV8SiGr336nrP8iaQS/sdU2sZTq1mCLkTyK9zEXNxBfR2nMXVwLdznbw4D5xe2gytmjVF0yaKWHMxDHGlFRDhd3FycW80bdoeHQfsgW1SGgqfHIHKxsOweCita4tzw/0zu7H8fBSypV/v4teFKJTMi4vE4xSjSPLfhYWl//4wKX4XcMpgOIwcs5AueZzi6EswVuiHtk2ohdTbrWnzbug27zBc4vxxbfNy7D5+BwE5+Qi/ZYglg1ugRbMW6NBbF+beOSDrx+KCXOQEXMJGlW5oNngu9t57t5tK3cACmZEFuRPIpcTExIgoADX979q1q+ine+jQIdjb2wvXSpr00STw9y542k9ijJxbKSpH7SCoLotWnmnyRAKc3LTJyOZLjLTUJhTRos9TSUlJfn7I5BDqH02lBtSa5Uu9obNA/jQoPZ8W/YyNjb/Ya4ju6STsqEaV3PQ/5/NA740MyujeSnW51dnqSJ4EMtVT00Lr4MGDhSP7l+TLwHwcuRPIEqH6OicDGVkS4VgmFlBcmIvMlxGIjIhEZHQyMnIlQla6DwU5yHgZjcjIaMQmZCOvWLInLxNJmTnILpRe56/zkZ+ThYyc15Jrv2RIFl4XZCM7Mxm5b548D1kv4xETFSHK4N5skTGIS8tDYXEBslNTkFlqZ52fhpcxtD8KMfHp4vW9fTn5yEyKRkRMEtJz5OOeywKZkQW5FcilUHsKErCbNm0SUeV+/foJYTt79mwcPHgQt2/fFqlkVGtFLR7oC0B1ZxRxpvRs2k8ungYGBsK4ZcCAAVi8eLFwBaYJBaVqcTSz9vDx8RGfAX2eX2Jk6/egRQRyUKf6yS/JtfpdWCB/GtbW1mKBhSaOXzK00KqrqytMF+l35HPl2rVrYkGE/Aqqu8WVPAlkyqihXtfLli1Ddna2dJT50pE/gczIEyyQGVmQe4FcSkJCgqhjpboIag1lZGQkhC7VKpOYoHRU+iGniRDVX5GDJ/2Q0n6qVVq9ejWOHj0q0nup1Qk9HlP70A2K0oeHDRv2WU9YZYWu69GjR4so8pcMC+RPg4Thl1p//C50Lui3gn4b6N7zuUF9+qkrAk0Ca6L/s7wIZFr4JvM1+j2PjCQ3I4YpgQUyUxEskBlZqDcC+V0o0ubp6SlWzkloUcTE3NxcpBRSY3RKxyYhTfvv3buHZ8+eSf+SqWsoNZ5qv6lWjmrmmJKFgzNnzojFHbqZf+nChgUyU51QJhJlZlD20dmzZ6Wj9R+6f1L50Y4dO2os40QeBDJleS1cuFAYr1HLMoYpCwtkpiJYIDOyUG8FMlO/KZ2wUto7RUC+ZGjyZ2lpKVLP165dK0oFvnRYIFcdqsekhUPKtPkS2xv9HqX3HKpJpvrV+ux+TJ4atCA8YcIE0RaxJj9veRDIdH/s0KGDcCVnmHepE4Gc7oVrF27htneSdADIS01AgNMlPIzKQhYV5cY+xD03L9x/8YF7TXER0j3OwuicI27LW1+kSpOBFG9bHFp9HE7hhSi/rJ+GWB832Ju54mn+63f21S4skBlZYIHM1BmUAkpRAYokU0/LLxGKplP/bVoooDTQFy9eSPd82bBArjrkWkwZNLSRkSHzPnReKHuFSnDIB4HKbeob5JtBnhokXOmzpkWRmqSuBTIt+NBvBH1evPDDfIg6Ecgpbji2VBvzNlrCrbRiLzkcV/SVYfokF0ISB5ti447jMPlQ0oNEIKc6m2P+Ig3MtbgFvwov7XTEed/CZQsz7N25XXQnEJvRLuw+74nQTKnwK05DvK8TzluYYs+O7TAqPW6XJW4/zXojUvPTnsPT7jjOnPdDRFnNWBiLYCdX3Ln1DInSIclMDb6nDmCfccljGe2yxg2fFOljpSLpwQlsUlaDzqyDuOodBh+PQASHRCMTMXhsboA5v27E1TrWpSyQGVlggczUKdRui5ytyXzN2dlZOvplQFEgEsfkyLpkyRIR4WJKYIFcNSgLgQzwKIWYvBZo4YX5MDRJovIbqvVfsWKFaO9H15u8Q+2NqLODhoYGxo0bJ6KqtVGKUZcCmRZRyZBTU1NTLAwwzIeoqxTrAq9D2LZ8FdYdfYhnLzxgu88Yiyf0xcxN5rA4aw3rbTMxZZoWVNcdh63TQ4R+wCLgtYcFDNesweZzoUj/qDN1MG4s7Y8uDf6Kn9v0ElkwtPXs0QY/dxiLlec8kESedUV+cFw1Bs0afI1f2vdCD+lxvZp3xcCZ5jgjUeH0y5AVZAX9Hg3Q4P8mYp1PWomYJ7LssXfEDIwffRyk6QtePcOTi0sxq3lH9Oha8lg9mvfFwMl7cNw3EW/vmg9xVm0VDl26iT2LdsD06D0koRiRlw5iVcuNsPS6iXOXLuGyrSeCX+Z8tD9zTcECmZEFFshMnUOTIHKa7du3L1xdXaWjnzckYKgWslQc0zlg3sICuWrQ+aIadjIjfP78uXSU+RiUjk7RY+pmQPedEydOyK3xE4lgyiw5cuSIWAChVk61+RnXlUBOT0+HoaGhMHR8+vSpdJRh3qfuapCLEXLpKmwO7IXVpfVQbNoYP3/7T3zfqDmat26N1o2+x3+++wH//a0lBk1bibMB0j8rRypcN2tirsoKHA7/WEeVENgu6A6FVlNg6i0dklCcH4Kruh3Qf6YBTvjR3/rDbtlUDGm+AIeCqeGSFL/TmNWjG1pP34vbWcUofGaDbWMb4K/f/IieWlfgHy9tN/XKEQfGa2CKgjX8kItY1/WY9XVTKGx5hEipii58cgiLOndAs747cT0pAwkRvniRUrpQlwbH9SuxduUuXHhwE2c2r8CMH6dgkd54dOjYAj/9Uxlr7EMk4rl2YYHMyAILZEYuIIFIrTtoAkimallZWdI9nx+ZmZk4efKkmHiSOOaa4/dhgVw1KIJMIiosLIyjx1WA+gXTNUZGV5TJQgt0ZHZF6ep1DX2mlFVCPZzJuXns2LHCdDIjI0N6RO1QFwKZFgXoHtmsWTNhwMn9jpmKqAuBnJ+ZgHjJvCU6NhmZr/Lxuvg1kgM9cFpvKnbefYHwV9nIdt2JtVvMYGifiNy8gjK9gssShKuLB+KXr3tC4YgnPiyRQ3BtYQ8otVPF0RDpkKAIUYeV0U5VH1tc0iX/DsKN5dMxvNViHAsj+V7Ka/hZjEeX8SOhdSMd+c8uwWzetxigOB0jfp4MfeswiKKcfCccnDgHykoXECgR7i8u6GPCtwOgc8QbEW9eWDzctk/G3EGLYHLZHZbr+0F7jyMex2UiLTkQl/SHo8+vP6Fhk0b45btv8c333aBx3AuhL9xxZMYKmN7yRm0vRbJAZmSBBTIjN1C6NaU8klnVhg0bPstWHjT51tfXFxM/io58yb2OK4IFctVhESEbZNZF6el79+4VadcklskdmloB1oWbPD1nYmKiEMP0erp06QILCwshluvi9dSFQKZ+x6NGjRIZERRJZpiKqAuB7Gc5A5M6N0YLxc045ZWHosICpIU9gbW+Kvbej0O8RIwVeeyBwfZD2HE7XXx3C19/QKD5HcGSDQvRvP9UbFy0CRc/aB8hEciLe0GxlSJ2338lfh+zs3OQk+mLswvaY4jGVlgF0r3BXwjkYS0X4nBw8dsIMuGzH2rTZmLUgWBEPbPGnkVtMGOrDc7pT0GnhQdgE5IjOcgF5iSQFa3wRCKq00MvYMPAb9D4l18wdZc7/BMlz53zClmpcUiJT0ZaRjbSQl1xY48O+hvsxOo5AzD0P10wXPcC7j99BFvDZVBvvQ4XX9FvUwQuaqyB+S0vyX/VLiyQGVlggczIFUlJSaLObuTIkVBXV6+XJjofg368afJN743qB2uiZ+nnAgvkykMR45o2avoSoO8j+SDs3r0bysrKGDNmjJhYBQR8MC+yRiBhvH//fiEOqb8/tSt0d3ev9ahxWWpbIFMWhI6ODhQVFcUiBcP8HnUhkDOiveFxaAF0Vppi0Y4jOKjTHm1btsBv332NH5u2RmvJ71f7Zj/ivz/8jB8at0X7oTOg8V6OdRrcjYZCXXcrjp5xwKlNCzHIwhev31vrDIHj6tHo85d/4admkselx+7QCZ06t8bPExfh8J1QpFEKdJHvxwVy4AlozZiHkfv9ECYRyLu022LWUR9EPD0I3W5toW3gioiXPjilRAL5FDwkf1JclIXEp3fgukUBbVq2RdM29NydoLD8KFzL/OQUJD3D4+cv8PTJVexWWgIDiwdIQSGeW++Ffoc9uIMC5BXdwe6uS2Fy3hcx0r+rLVggM7LAApmRS+zt7bFy5UpMnToVW7durdcCgFIlt2zZIiaaa9aswYMHD6R7mI/BArnyUPRz/vz5bGJUTVDa9a1bt8R3lu4/5DBPgplclG1tbcW1WV2QKKfPj1o2TZ8+XUSMVVVVRTuju3fvCiO/uqY2BTIt9mzbtk2cBxI9DFMZ6qwGOdQSFgeOYcVJd/jcPAELkzWYN/KvGKRuiO2S8WMbpmHiFHUoLTfDMetruBH0TsZY+CVoqChgmrEDsjNz8fi8IWbMWIfbsRLRKT2khBDcWDYQI3/qDtVNksc9tg97FwxG4wbNMXyH59uU5dcfF8j5zsZQGj8Vo80CSwTy3GaYcSQY6TlxiNqpjJ6TdsDs5gWcmL0AKgon4S79O0F2OO7YnsUJye/xMXNdzBuhgOka5/BArNvl43WsK06ZXodXQhjst++Gmbk9niMVAVamWN5oEbbv08DgMe3xQ/cNuPQk/SOp5jUHC2RGFlggM3ILtWQhcUwRV0q9ro/Ckia5FA1RUVERKZwcEakcLJArBy0cUcSRXI0/x5KEuoSuQfJDoO8tpfqSkSAJZopsqqmpiTKQS5cuwcvLS7QiovMfExMjPAZKobRKSuGm9Ghvb294enrizp07QhBTizsSxVRfrK2tLTbqaUz75YnaFMhklkYT2dOnT0tHGOb3qTOB7G2BncZ7seG29N+RV7FRcybOBEuFWOhR7DC1xkGvkn+W5wVctHphwJht2O1VkiGSHXQdlrpqGHb8OciU+i0hsF3YHcrt1XCyND859RFOKo/HkNEHcCIotUQMVyCQk21mot/oAVA4HYf0kLMSgdwU0w4EI40OynDGimmDMXWJEmYOXArN6efh/zoez10uYe3N5yifv5IHT4mgVu07EXv9Jf/MSUD42YUYp2kBu6cBcNhsjN0HHSTvTiKQLfdiWbPlML1ijk3bjWB4yhx7Ta/CyTOmfHS7hmGBzMgCC2RGrqHWJlQPSGZWCxYswI4dO8SkVZ7Jzs4WkaalS5eKNE0SyC4uLtK9TGVggVw5QkJCRF9fExMTNueqYehcU3soajtEIpmELX23SeiSwRfdo2ij7z0JSjId1NPTE/+mcTqONor2a2lpif8n4U1ime4P8lpyUVsC+dGjR6I/NZ1TWlRgmMpSZwI55DjMzE/A+HY8klwtsEVFA7MNPfAiV+oV4Lod+hv2Y/PN90skklw1oNZvENbv90Z06a07Lx5PHUwwSmMGDrkll4kih+Daop6Y3EYZZm9crIuQ5r4Dk5q0wdit1xBIirrYF9f1VDGizQpYv21kLJlIBcJUtQsajZ2L/SEFKAywxE4SyGb+SBbPnYMXF2ZhzqCf8NVfh0BB8zqevY6Dr5UmWnechuOPyv62xOPa6uHo01sRB55KXkV6ONy2d8Os/fcRkJ4K5/VbsOvgTYQjBd7mGzDnFwNckf4lks9CZ5YBdlr7s0Bm5B4WyEy9gFyuyahm0qRJb1IQSSjXZW3eu1A0jxxnKTV85syZon0MTYBJ5DNVgwVy5aCMBCcnJxHFpFR+pnagc03n/vr169i3b5+oW167di1WrVolBB5F9CdMmCDuA5qammLfnj17RLSfRLaHh0e9+bxqQyDTuaRo+owZM7hUgKkydSKQixMQZLEG6uPmYunRq3C3PYPd+ufgVbYqIuUR7rr54kHZRhVFKQi4vhc6M7tj/pE7CE6TjkspTH2Ku3sHYYrGchx3eymRrkQwLmm0wsifx2AXFQe/IR6e23qhW3clLDoTiYzCYNzUG4O2f+kGxTWm2GtmBjPaFiqhV4/Z0Dz4WPIXQLqnBTZN+wbjd/kgsTRUnR+EG7r98K8G36KR4jn4SIYyIy/ilHIvqCluxJY90sdapwGFvpMxdIUNvPPykBl0E3sn9cS6q08RW5AB++WbsOeYM0ifv/K/j+vbXSViWYrfTmitPojT92q30RMLZEYWWCAz9QpyuqabHZnYkFCmient27dFCmNdufjSc5OxGEW3x48fL1LCbWxs5Eq81zdYIDOMfFDTApkyH8jZn/od02IPw1SVuhDIKR77sHbCbIzrMw0rthlgv40DbjrdhL3dNVyztRVZZLZ29nCwvyHGbO88gov/UwTeXA2d8d3Re/1FPHn5YcFWkP4Y51f0wST1FTh86zkSsmJxf6821qkZwOaZ9CCBZM4TcA5Lp8yB+s77iMlLRrDVWqj27YUe3boIB3yxdZuKddbBQhwTGc/sYWWsgk02z5FeRtAXBZ3DlunzoWZwC286j+fcxuGJQzCg9LG6joLm1psIoOlWXii8D2ije/MNOP00BfnIwP3N67Fq2Rrssb2G6zck79/JHnbXJOfi8nmYaylAddsFODyvXTd+FsiMLLBAZuodJIQp4nDx4kUoKSlh4MCBYoJFbVGePn0qos1UB1gTKacU9SGnbeo5S3WHJM5LW1NRXSL1UeVI3qfDAvn3oe8B1bjyjz5Tk9S0QL569Sratm0rIuwMIwu1L5CL4XXEABbnJUJRcg+Od9uN5cNaoVXrVmjZogVavNlaomVLyUb/PWIuFDbtgaXBYOge80Tk76yfv37lg/PLB0J9zTHcfiEZkNzv6Z7/oTBAseQ34HVR6T7J/xe9xuvCAtHPXWyFRe/8nfSxPvhgJfvK8boQhW8eS/KbU7o70Q8O+7QxYOt1BCeXzHtePTgE/cld0Jzes+S9t2olff+SrXmzhdjhHInatlxlgczIAgtkpt5CN2syxblw4YKoAaTILYllqu2juj6aeD179ky40lJdMNW10d+QgH3vB6AMdBOlY+hY+pusrCzRr5gixQ4ODiKFmmrlmjZtiq5du4q6QkqZpOep6HGZysMC+fehVFRqS0QLNgxTU9SkQCYjRsoGIsdwblXGyEpdRJDzX2UhVyIWBa+zkZEUJzLcProlpeJlRiayM5KRWcm1+4KsZKRmvJI8j3RA3pAI57zsDKTmFrwVza9zkZWahIT3zkE84hOzkPN+D6sahwUyIwsskJl6D0WK6QYcGBgoagLJsGjevHmYPHkyBg8eLHoP0wTsyJEjQkxTnbCbmxueP38unGdJAFM6NP13qeggd1o6luqeSXzTzZVWQOkxabJINYX379+Hv7+/eG6memGB/PtQxI16hXM/baYmqSmBTPdNTU1NzJo1i+uOmU+izky6mHoBC2RGFlggM58dFO0NCgoSUV1ywKY6ZTLLokivhoaGmJBRajaZwpCZDt04+/Tpg6FDh4rIMO0jp1qavC1evFgcT/XFFJEmp9Xw8HCO2tUwLJB/H3J1px69nNLP1CQ1IZAp24ZaWlFpCi1WcuYN8ymwQGYqggUyIwsskJnPHooOU4sW6kFK7VTI/ZrqlclIy8rKSjgzHjx4ECdPnsSZM2dEFJqOoWPJHdjPz49b6NQyLJArJjc3F0ZGRqIXL8PUJDUhkM+ePSsycg4fPizq6BnmU2CBzFQEC2RGFlggMwwjd7BArhhasKFFHzKLY5iapLoFckBAAMaOHSsyIMhMkWE+FRbITEWwQGZkgQUywzByBwtkhpEPqlMgU3mKtrY2Ro8ezWUqTLXBApmpCBbIjCywQGYYRu5ggVwxJC6o1RnD1DTVJZCpVp68HHr37i28IRimumCBzFQEC2RGFlggMwwjd7BA/jjkuk61m+TGztQdVAdObeZoCwsLE472ZAxILvh37twRHgYPHz4UY7SPnJrpuMTERNF2rr5QHQKZTLjoeqXUau53zFQ3LJCZimCBzMgCC2SGYeQOFsgf59atW6K9k6WlpXSEqQ3omqSoPbWHI8FrbW2NdevWiZZvlDZMLeDIlbl169aiRzpdv+SOT2O0T0tLCzo6Oti+fTtOnz4txDO1liPBTI8tr5O36hDI1FWAugQoKioiNjZWOsow1QMLZKYiWCAzssACmWEYuYMF8sc5d+6c6O198eJF6QhTU5AZGkXsg4ODRU90TU1NdO7cWQhgage3efNm0WOdXPDp86DoMR1bKqIfPHggxkp7qh84cAArVqyAiooKhgwZgoEDB4qWcnv37hURZ2p/JG+O+Z8qkAsKCkSbvfnz5wuhzDDVDQtkpiJYIDOywAKZYRi5gwXyx6FUXWpDRtFHpuaIj48X4peEbL9+/YTAMzU1hb29Pe7fv4+nT5+K6C9t6enpFQrbvLw80W6OjqOUbHIgJ/F8/PhxIZhLe7JTH3YS3fTc8sKnCGSakG7atEn067a1tZWOMkz1wgKZqQgWyIwssEBmGEbuYIH8cehHnn/oaw5fX18sXLhQmElpaGiIyC/1TaeIcGpqqvSo6oGiq1FRUaLfOtUtHzp0SESUSSyvWrUK3t7e0iPrjk8RyLSI0L17dxgaGooFAoapCUoFsqenp3SEYd7CApmRBRbIDMPIHSyQmdqGaoJ1dXWhqqqKefPmiUhuXUSk6Dl3796NpUuXYsaMGeK13LhxQxhd1QWyCmSqNSahT+8hOjpaOsow1Q8talHZA2XXMMy7mJubi4U6FshMVWCBzDCM3MEC+cNQqi6lVz979kw6wnwqlM68bNkyzJw5E3p6ejAzM8OLFy+ke+sOqmPev3+/EOzKysqijpdEfG0ji0CmdHMjIyNMnDhRpJIzTE1C2R1/+ctfhAkcZX986RvdzzZs2IDFixd/cP+XtnXp0gXt2rWrs0VGpn7CAplhGLmDBfL70I87TQTnzp0LGxsb6SgjK5mZmbh06ZKI0FL6HblLy2P7JYq+kgkYtUgaM2aMcDGvTaoqkCmVmszIyMGba0KZ2oB8AOh7TAsy9D350rcOHTqgQYMGwj/hQ/u/tI26CBgbG0uvFoapHCyQGYaRO1ggv8/r169Fayc1NTU4OTlJRxlZoH7E1KKpb9++wo2aHKTlncDAQEyZMkW0iyInc6q7LCwslO6tOaoqkB0dHdGqVSvo6+uLRQiGYWoXBwcHtGzZkr9/DPMJsEBmGEbuYIH8PiSGqH+ugYGBEEdM1aEoPAlN6iPdtm1bnDhxQhhl1Rcomnz06FGMHj0aI0eOFM7QNS2SqyKQw8PDRU9oamMlj9F4hvkSoPtCixYt8PLlS+kIwzBVhQUywzByBwvk9yFxRwKJWgRxZKDq0PmjelgSb1TT6+HhUSsR2OqGBH1ERIQQ+dQ+6fr16yK7oKaorECm+niqkyYznLqolWYYpoQrV64IgZyQkCAdYRimqrBAZhhG7mCBzFQ3jx49wvjx44VTdVxcnHS0/kKLJdQSasCAAbCzs5OOVj+VFcjU05n6Od++fZvdYhmmDmGBzDCfDgtkhmHkDhbITHVC0WIyayGhFxMTIx2t/1BKs6amJvr37w97e3vpaPVSGYFcuvhAdccMw9QtLJAZ5tNhgcwwjNzBAvl9KI2WXJe5xVPVIPFG4pjEW1RUlHT084EMx0gkUySZzHmqm98TyOnp6eL5KZrN1ybD1D0skBnm02GBzDCM3MEC+X0oLZhcly9evCgdYX4Pd3d3Edkkgfc5pFV/jNDQUGhoaGDgwIEi3bo6a5IrEshUw009V6mdjKurq3SUYZi6hAUyw3w6LJAZhpE7WCCXp9Rgilp3UIsf5vfx8/MThlx6enpISUmRjn6+PH/+HLNmzRKC1sfHRzr66VQkkOlabNeuHfbv3y8dYRimrmGBzDCfDgtkhmHkDhbI5aGI4P3794VQ8fT0lI4yH4Pam8yfPx9Tp04V19KXAtUk06LAggULkJiYKB39ND4mkAMCAkTkmPpJJyUlSUcZhqlrWCAzzKfDAplhGLmDBXJ5yBWYJjskSjIyMqSjzIeg83Po0CHRAonMub406D2TcKUezzk5OdJR2fmQQKZrkfodz5w5E8HBwdJRhmHkARbIDPPpsEBmGEbuYIHMyMqFCxfQr18/IRBrsj+wvEJ1wYcPH8bkyZOFszWl538K7wpk6sFtYmIiRDgt2DAMU7fQomDZe92HBDItlmVnZ0v/xTDM78ECmWEYuYMFcnlI5BQUFHB/2d+BjLjmzZuHKVOmID8/Xzr65UE9kinCS+ciKChIOiobZQUyXYeWlpZo3rw5Tp8+/cnim2GYT8fa2lr0Hy8VwNevXxd+FeS9QL8ZtKhF39d79+6J/QzD/D4skBmGkTtYIJeHJjgnT57EzZs3kZWVJR1lykJijRyVe/bsCTc3N+nolwmdC2q5RFHk9evXf1IkvaxApvTtMWPGQFdXF6mpqWKMYZi6xdHRERMmTMCkSZOEOeGNGzeEeR71fKeuB3RPHDdunGh5xzBM5WCBzDCM3MECuTzJyclClOzYsYPryj4CpRNPnDhRnCOOtJdw4MABKCkpiXMjKySQN2zYgLS0NCxcuFBMxGnizTCMfECmhPQ9bdCgAXr16iUE8d///nfx340bNxbjW7duFb+rDMNUDhbIDMPIHSyQy0MTIC0tLeEYHBsbKx1lyqKpqYkZM2Z8ES2dKgulnNM5IVdrWdOhR44cKSLzlMEwatSoL9L4jGHknaNHj6JZs2ZCDL+7de7cGd7e3tIjGYapDCyQGYaRO1ggl4fSqs+fPw9nZ2dOsf4Ajx8/Fq7V27dvl44wpRgZGYnoEl07sqCgoCDqGSlyzN9HhpFPaBGVFgk/JJDNzMz4d4NhqggLZIZh5A4WyOWh6F9ubq70X8y7qKurCyEXGBgoHWFKIadp6ge9ePFi6UjVoL/9n//5HyxdurRa2kYxDFMzkBHXr7/+Kr6vJIzp/5s2bcqt2BhGBlggMwwjd7BAZioL1cYOHDgQ27Ztk44w70J12WSuReeqKlDtO7XMouh8SEiIdJRhGHmESip0dHTeRI7/3//7f9i3bx/3zmcYGWCBzDCM3MECuTzU4ikyMpInOu9AkfUjR46I+uyHDx9KR5l3IZdbMjA7dOhQpWuRqZ/y5s2b8de//lUY/DAMI/9QG7ZvvvlGRI8bNmwofjcYhqk6LJAZhpE7WCCXh4y5VFVVP8mN+HODhF5iYiKGDh3KDq2/A7UJ27JlizDcqmwUmVqKdenSBX/6059gbGwsHWUYRp6hWuQ5c+bg66+/xq5du9jRn2FkhAUywzByBwvk8kRERIjWHRcuXJCOMPn5+bC2tkaHDh1ga2srHWU+hpOTk+iF6uLi8rt9kamVGJlyUdp6t27dhHs6w8grpR4NZERFi0Ff8kZZRrSgRbXI5MlA//7QcV/SRvMJ+r1gmKrAAplhGLmDBXJ5SgXyxYsXpSMMGUYdP34cysrK8PT0lI4yH+Pp06dYsmQJ9u/fX6GjLYnj+fPnC+Mzuu7Gjx+P5cuXS/cyjPwRFRUl6uTbtWuHtm3bftEb/W7+9NNP+MMf/iDOB5+TtmIRVVtbW3q1MEzlYIHMMIzcwQK5PJQWe/jwYYSGhkpHGDonlDZsYGAghBxTMampqUIcUysYEsEfgqJNZOrTt29fuLm5ibHRo0ezQGbkGj8/P3z11Vci0+HUqVNf/Hbu3DlcuXJFuFp/aP+XtlGHA5pPVNZ/gWEIFsgMw8gdLJDLQ3VkdE74B/4tVJfdu3dvYdKVl5cnHWU+Bl1DNHEePHiwOHcfglL4W7dujQMHDrypXRw2bBgLZEau8fX1Fe2MeAGR+RDm5ubo3r0712MzVYIFMsMwcgcLZKYiSBBfv35dpA86OztLR5nfw9XVVaSienh4vLfYEhQUJGqUNTQ0kJ6eLh0Fhg8fzgKZkWuePHmCJk2a4PHjx9IRhnkLmZX16NGDBTJTJVggMwwjd7BALg8JQn9//wprR78kSMDt3r0bKioqCAsLk44yv0d4eLgQwNTuicxrSqEazmXLlmHy5MmIj4+XjpbAApmRd1ggMxXBApmRBRbIDMPIHSyQyxMTE4Pp06eLVEIGor2TkZER9PX1xbmpLLnJoQhyd8LN61dx+fJl6WaDK9cfIfRlAUpiqrnIjA2G1y1H2NmWHiPZrlyHZ2QOCsQxhOS4KH94ubojMCEXZQOyOYlBeBrsi+cvC6UjQGbYLThdtyl5LBtbuPjH4q1ElZAdCd+btrgi2W9z7TGeJpZ1XS1CYVIAHO1sYCP2Sx47rWIn6g9BLWC2b9+OlStXClFMkKP1zp07RbusO3fuiLGysEBm5B0WyExFsEBmZIEFMsMwcgcL5PI8e/YMv/zyywcFzOdEYWGhMIr6vUg5nQ8dHR0cPHiwXDrw7xF+dQGmdPkz/vZ9I7Rs2bJka9EMDf/TG8p7XOGbTYI2Gh6m0zHsj3/Ff35tiRbiuBZo2eg/GKZ1EDcC0lBS8RwO732K6Pb37zFgyV1E5IhBwbNzM6E9exjWXM+WvKlcpIbewh6txmjXpnnJczb7Cb0mLMXhuwl4JZmzFeZGI8RKDyrt2qCZZH/zH0ZA2dgBj9PpmYpRmOyHR2uU8VvT5mJ/0+/GQf2QK/xevZXrlYGixmT2RkZdpfWadnZ2oqXTjh07xL/fhQUyI++wQGYqggUyIwsskBmGkTtYIJeH0ohbtGjx2dfbkjP1+fPnRUSTIsPUyulDhISEQEtLS6QKk6CuLC/OqWHQqFYYuNNFRKHFFvsCHntnoOPQxVhrH4kivMT9bSOh8N+eWHU5EXHiuAQkellAv1dDDJu6G9diKXr7Ar4Hp6Ftg//DV9/NhUlIMiRyWBBydjo01QZj3a0iFEbfhZnWr2gyaT2snkTjZVISEl9cw77JrdC7+0xYBBUgLcwJR7W1YHLjKZ5Kni/q3DKMGqmK6eZPUFSchuArm6HVYia2O0QiXLI/5MR89B+lAZ3TPnhVBd82StWnVmFTpkwRiwxxcXFCAJNA/pgTOAtkRt5hgcxUBAtkRhZYIDMMI3ewQC4PpcZSS6PPvd6W0n2tra3x22+/oWPHjm9SqN81lKIJMdXLktirioN1+Hl1DFHohglnIqUjUoJModZ8FhaZ+SAdqXhoOBpTGw7DzofS/YI8hB9RR79BU6Fm+Uzy73D4mG3AyK+GYcSYH9Fk7Qk8iimJ6JZEkEdhk3MOMgKPYt3wr9FP3wFPX4ndgkjr2RIR3B5jjgXidV4mXkbHIaN0/pZyAWv7qUJpyS0kFgTA3lQXHRdfRFSpAn99E8aDJkB91hk8rIKBd35+PmxsbMS5CwwMFAsRc+fOhY+Pj/SI92GBzMg7LJCZimCBzMgCC2SGYeQOFsjlIeGYkpKCgoKqpdTWRyIjI0UK8P/8z//g3//+N/r37w89PT08ffpUegTw6NEjDBgwQLgyV6X1Vfj5WRgyqSvGnSzbDqYIyVcWo1cPTeief4YCpMB9+xio/DYYhveAt1XEEmLPQn+AGlSW30YiIvF41wYotdPD7pt6mNJpBnZZv8BLyWFRF0ggj8D6O69RmPgQF7Ra4dtGHdFxxQX4Jktfb0ECnj/3hk/0+xHwfHdjKA9VgaKRG9KLJeI55gU84suo62w7GHZVhcZ8G/hUYc5H5+r+/fvo16+fiCJPnDhRCOaKYIHMyDsskJmKYIHMyAILZIZh5A4WyF82d+/exQ8//IAGDRqI7euvvxZCjcylKPIZEBAgRJ67u7v0LypH+NX5UOzxD3zbupcwpRo2fBTGjp+EwS0UoGJmjweJlNIdC9ePCeQMO5gM0ILmAgdEIAqPjVdgcuftuBgXCLuFE9BLZR9OP89HlP0c6MwejjU3coHXuUgNdITloVkY8EtLyURtoOS5h2H0koOwfi59XEERivLv49zcqRjZ/D9orrINx55+IDyceg+HVadjhvIhnA9IQhnZXCm8vb1FdP5///d/hRM4pbVXBAtkRt5hgcxUBAtkRhZYIDMMI3ewQC4PpcZSzejHanI/JyidfOPGjfjqq6/eCOSy25gxY0SEuU2bNuKcVIVwG21M6P9fNBmlJdK3l2qNQMd/NsC3fffDMUF6ECLh8jGB/MISiztPx8iFjogmgbxjOSa13o7LKTl4+fwENEd3x5JTPrh1Xh96mkOx6mpZs7F4+B8xgeHqlZLn1oXSxAGYOH8z7INK3aolArkwEPf2bsPG9VpYoDoTxsZ28EmW7sZr5Od6485CTWiMN8SxR/GQpelXcHCwqGcfO3YsYmNjpaMfhwUyI++wQGYqggUyIwsskBmGkTtYIJeHzKQozZiif58b0dHRcHNzeyPWSCBv2LAB//jHP94Tx3/6059EWrC6ujpatWpV5Zrs8HPqGKzYHZPOlarh53DdNgTjJujguFMiMsX8qQKB7LELY7tNQM/1bsikFGuJQJ7QcjMuZBRK5G0WnpkMwcRxO6A+SwELl4+HgVMs0l54w/mIL2LfyQTPdlwBdcWBGGvxofeQCedl7TGy8wQYukoFdGEKku6tQ5+fpmDd1ag3hmBVhVLYqcabzNAqAwtkRt5hgcxUBAtkRhZYIDMMI3ewQC4PiZq+ffvi1KlTohXS5wBNVqiWeP78+SJiXDYafO/ePfz4449vhDFFkwcOHIi1a9cKUUxR0GHDhuH27dtVmvRQDfLQiZ0x5kigdKQYxc9tsLXXj+g64wSuxZA7dRxcto3C1EYjsKfcekQKPAxGoPtAdSyxi5b8OwyPjEkgb8K5lHyJQJbwwgF6wxTR+Pu/oZO6KnY+jEO880EsbDoS853Cy6VDv7qyEkrDRmH4EU9kJwXC46I7wt6EhJNgrzcIw4fMxK5HuSVDBWlIc7PCsgM3cC+mXAflKkHnrnXr1mJRojKwQGbkHRbITEWwQGZkgQUywzByBwvk8lA7HiUlJXE+Ppc0azIcW7hwIUaMGCEEcSkULSdn5T/84Q/417/+hV69emHNmjV48eKF9IiSCbGCggIuX74s0s8ry/MzKug9ogUGHfSXjkgozkfctcXo0W00VPe4ITE/AQ+3j8SovzWHqpEj7B0d4eh4E47HF2FG1/aYvvQsPETr5UC4bVmEYT+vgeXLbJS+igiH+Zj8q0TY/zgBG+++RnGiF6y39EWH2Ythfu6G5LHo8Q5hi0ofjOm1BEf9YpHkdxLbeyph8ZYLuED7L63F/P6KUF9kg8elH3dRPvITn8MjMApxWZV/z2Uhky5qFUYGZx4eHtLRimGBzMg7LJCZimCBzMgCC2SGYeQOFsjlIQdrQ0ND4UBcFddmeYacuW/cuCEix6Xvicbu3LmDn376SXz+FFmOj49/b2Lj6+v7xoG5KgI52m45VOeOxexz79QuFzvjqEJvTFLeC6eXMXhxUR+qjRqjSdNmaNZMujVtjGlbHd+6UCMM3haG0Bq6D9dTc/HWXzwIN/XHYXIfTex2LYkZF2WG4YpBF/RqX/p4TdFFaR2OP8wGPVpxURpe3jOBTrf2aC72N8F4vVNwiSnzWeclIem6MUbOPwCrQPLKrjrUEuvChQvCwdrfv8wiQQWwQGbknaCgIBbIzEdhgczIAgtkhmHkDhbI5aEf9uzsbCEg6zsUOSZRS6L43bZV5KhMvY2NjIxEWvnHouUkkGWJIFO/4bT0VKTnvpum/hr5qYlIfpmBHMk5puNSE+IRGxOFqCjpFh2DlJyyixOvUZCdhfSUV8grKhZCt5TXr9KQnpyGV/lvR19nxSPuzeNFI47+TrpPUJyNtLgYRIv9MXiZmSd5hjIUS15XdhriJK8xK1+26yAjIwMWFhbQ0tJCaGjZVlcfhwUyI8/Q959KNRo3bswCmfkgLJAZWWCBzDCM3MEC+fOExKGpqSmuXbuG3FxpbW0ZqL46NTUVWVkV+zNTT2QNDQ0cPXoUmZmy1+N+aaSnp+PgwYPQ1tautMEZC2RGHikVxtSqbMaMGfj+++9FqjXDvAsLZEYWWCAzDCN3sEAuD0Vbyd05JCSkXgtCS0tLdOnSRfQy/pRoOEWXqSeysbGxOC9M5SCncDpv27ZtE7XelYEFMiMvkCimEgwzMzOoqqoKszkqtRg/frwQyH5+ftIja4dX7kdx6NhJnH1SPhOGkS9YIDOywAKZYRi5gwVyeWhiaGdnh6VLl8LHx0c6Wr+gaA/1MFZTU/vkVHFaJKBIqKKioogmM5WD6o7pM6AI/rvp7R+DBTJTl1BZgIODgygNmDRpEnr27Ilx48aJeyFlo5CTPbUsa9iwIby8vKR/VUvEn4GRynzMWeeFVOnQ+yQi6IIdrph6Sf6rLGnwP7sSVtc8ESUdkZmiMDgZL8HmLafwWBgIfoDsJ7hlsgxq48eLBYV3twmTVaA6Uw1q05Zi3f4HKMkvyUNOhgeuHHKEX0Ra+ZIPFCIlPBD3zI7jtuMhzD3vg6CXZe4pMe5wvmwB8ztJKCijS3N8z+CEtS1uBMpmNCgLLJAZWWCBzDCM3MECuTwkkK2trUWrJ5os1kcePnwoIr4k0j7VaIz+/urVq2JSzHWHlcfT01OYhFUlFZUFMlPbxMTE4NatWyJSTF4D1NKNjOWoNICyH8h7oGzmCBn9NW3atEbvBYWZkXh0YSVWLZmP+To60JFs87XHoMc/fsI3/+iOMdIx2uYtWIRDTtF4Sbe5FFtsH9EZv/5vD0zSnS/2L9FdBqtzZlBs/T/4b5NeGD17KRbPl/ytviF2OseiMC8LYbeMsXXVIiykccnfLNtljbthH17UirTVwdL+X6HJT7OxfJe/RHp/gNwQuJ/cgVXzJa//zbYAC5Ysx8r1G7B0bFP8kdrq/W0s5h/zkYr2TKTGncay8Vtx9WFJn/qyZATehYXyKpx5eA7qBpowdwpCorRyJu2eJUz1VsH0bfMBCVl4vF0P6/aew50M6VAtwAKZkQUWyAzDyB0skMtDP+zUlofaIrm7u0tH6x/VOUGhaFGHDh3EggFPfH4fcrAm129aZKFa8MrCApmpDcg0ztXVFXv27MHUqVMxYcIEkSFC/71582bY2tpKj3yf2mjzlBnmAtPp36BD/1EYNXGSiGZPmjwDs7W1oK2liin0b8XJUJqmhpkzpmPX1UikFEbB69hWaI/pgB5DuqBFJ0VMn6YKrTkKWKY0Cf3GaaBzi0Zo3aEt+iqpYMosPayyj8SrJC+cmv1HNG/bBwNGlzzXjDUWsAt6VyAXIt7NBKtUB8PAdA9MDfZCa+wqrLn/vpj9ODHwungap3ZshO7c9dh02gfl/rrAAcZzjsA9Ih6xfpdweuc2sUixbdtmrNBWw9geE6C6fjXUBzRA+/4rcNA7FCF+NtiuOB4D2o/EnN07sePACdzwjkfBq8c4OG4CJk6ejWU7DLFt+w6YHDkPl5AsvP60NdMKYYHMyAILZIZh5A4WyOWhiCnVjD548KDStaPyBDlw02dandB50NTUFGmWZD7FVAzVba9fvx4GBgbCLbyysEBmagJK8X/+/LlY+Nu7dy9mzZoFZWVlDB48GGPHjsWmTZvg5uYmPbpiakMgpwY9wpmVGjgcVFZkZSMpLRWJZcz2i1KeIyQxD4XFOUi4Y4ZVurtw6Px1+PjcgtUFL6SlR8D9nAnmdFaEoWsqAh9exPkd+3H+QcqbVnFpEedgPKwT1ljH4+OOE7mIvL8Lc8e2wpT1F+GVTWNBuLFHD91V1uOAp0SQiuM+xmsU5EYgwNoQeiMHYca6q3hSNqqbm4porys4Zr4Ek/vPxGrjvTDZNg8ak8aIMo3RI4ehb+em+OVf3+C3tr3QZ/g4jB+1Ccc8r+LIFlWM+Lkt+gweiP5d26F1syYYvMEZvrY7YKg6Ej379ke/3r3Ru3NLtOs6EFMtwpD9bmOBaoQFMiMLLJAZhpE7WCB/XlD9NBl0VSfkdE0Ta0o/pD6oTMWQeJg+fTouXbokosmVhQUyU13QfT0uLk5kf+zfvx9z584VqdOdOnUSUdKtW7dWuv1YWWpFIAc/xln96djrHASviDRkUQu3jJvYv9kY63Y/LhGjL0PgYqwE9YOP8DQtDg/3n8TluwFIRw5CL5pii9YY6O4ygHq/oRjQexl2XH0AvydOOLlgF/ZtdUO0eKZcJPuZQvengZi97hxs3N3xyC+qnAjHq0j4O5phw9Re6LzEFA6hCXgZl4D45GwUx7jBasMM9J6xDRZ3AxH94U55Egrx6uUlGMwwx/1woa7Lk/0czkaT0aH1z/jPv37Ab00mYMF+O9x68hgeHo/gFfwcXrfPwWSGBswep0vORxqexb7Ey+z7OL9zN3Ztdy05Jzkv4L1/GiatOY2VWgthdcsb4aU6NeYenC3WQe1IGDIqf0uqMiyQGVlggcwwjNzBAvnDUNSFtk+t4a1N6PXOmzdPRIeqE5rskKNtr169cP36deko8zGuXLki0quramrGApn5FKiXOWUskIilBa1FixZhyJAhaNGiBVRUVIRQTkhIEPd88lqQhYCAgJoXyCG+uLR6ArYeM8SUaXtw3j0GRXiKy9r6WKp0EmSdmBnhg7NLVbHHNRoJhQXIjItARNhzhLudweaJv+If/+8rfDtuC857eeKJ3xGs6fwz/vm3Lhi98jycA0IQGhWH+LQYxNmuwLC/fYOvf/gNjZs0xs9tJmHuqYdIzs1BXkowXM0k99Mu3bH0UDBCswpRlH4dO5caYPW++8hEMYoynsJz7wJ07joNS48+REhcDKKioxAeHl5me4LHbrsxb5wBrG77IjwqEhFv9kUgKiYZaVlxCH92Aiun7sDl+5FwOzcDSn0bo1mzFug0Zg7mbb8CyzWzcexxLOKvm2DCxhM4H+qE2/uMYaB3Bv4xMYjxc8bVtcMwRnuRZDsIu0cxeNPgL94Vbkc2QP0oC2RG/mCBzDCM3MEC+X2oR/DNmzeFGExKSpKOyj8ULdLS0hKTlOqGJt7Tpk0Tj01ut8yHoWg7RefI7KiqbcJYIDNVhVzqqc85Oe5Tn2JdXV107NhRbORiT9kkFCmOj48X9/pPhZ6n5iPInriwYQZ23LiMdUqzYGj5CJEoxONdy7BK0wg3s3MQFWiFDTP3437cK4l4TsF90xkY11IiJlUWYOmaJZjV/u/427cN0apTJ3Sm9OS//xl/bNMV3XoPwti2LdG8nwpmHrBBsNkitGs8F3pX7yPwqQ/O6Q1A65HTsPb4BThv0UW3fhtg4RuCxNLA78tL2Ki1HIuN7r51086KReDjA1jfqysWqYxC/+F9hJHZ260xGjX8Hv/+x3/w06+N3tnXHgOm7IdDWiFeZV3Hdo1DcA7NhqflUCxYOB/r1xtj49J5mLzmGE6t7oS1p+xhrKqJ1UdcEJT3HM7rJ6P/v39EY3qsRr/hl4ZNMGqtDTzO7saMrYewzzUWBbTGG3MX9yzWs0Bm5BIWyAzDyB0skN+HBDK1NqI+tr6+vtJR+YeivFQnXBPtqSiSfuLECZGmSe1emA9DDuKUzmpubl7lFlsskJnKQvco8knYt2+fWBRr2bIl+vfvL9ynL1y4IFq9hYWFVSnF//egOuY1a9bghx9+qMH7YiHiPB1xQGcDrJ6HwXW/OrS3nsPteCDWRgfrV8yBpUskgi9tgrrhI0RlkBDLR8pzTzyU3Jec/V4gOiUNyaHe8PZwh5uLC1xc7sPd0wveYc8Q/MQLXndv45abJ7zDE5AdF4EnfgkSiS3FZzdUu45CxxnH4PYsCPe93qlNTrTB1vmrsWyX8zsO1hmIe+yGQM+HcHvgKpzB325XcdFqDVSHLMCOoxdxs9y+u3B7/ByJ+VlITbqITeoHcCsoHZ7nJmJi91/RtFkrtB8yDdo7r8JlywAsWLoMP6ua4pp/KooQgktbV2HpTCNcpse6eBgmOqMweacHoqNj4We/A5PW7sdWV8m7S3GDMwtkRk5hgcwwjNzBAvl9SAw6OjoKMUh1pPWF5ORkUXdYnZPisoSEhGDQoEHYsGGDSOdk3odcZ+kcpaZ+vFvrx2CBzFQERYqdnJzE4p2SkpK4b48cORJ6eno4c+aMWCCr7l7l1Nbp6NGjwtWf+iK3adMG3377rUi1rhnSEOZEKdFbcCEuCSkBe/mUzeoAAFobSURBVKCjZYTDEpGX/mgLtq3WwdzNdri2ZQ42u6Yi7R3DqSz/U9ipOR5jx0kE5sR3tvEKmLLSHNbPK3CpirwMvSmz0H6RrbRO+R0+KpArJj/9KrbMOoJHUR9Lbc9Bzis7bJmxHuvUFsHk1HGcvHIBF2yuwuFhICKjwxBqooYOLcdiyIFA6Wt7Auudu7Hb+IFELEvIj4TXvulQ2fUAEo0tuWDCcfPgEizbcx533bzw8JgBZh1jgczIHyyQGYaRO1ggf5gXL14IJ2JKtWZKoLrFVatWCQMqilAx5QkMDBTtctTV1aUjVYMFMvMutOhF7dUoI4FEXr9+/cT/Uyq1iYkJrl27hoiICOnR1UNKSgru3buHJUuWoGvXrujTp48w6NuxYwe2b9+OX3/9tUayVATFUQhwMMUcxRPwT81AUb4t1nTVwTpTD0SlhcDf5xYsjh2GkYYB7rwseMc9OgPuB9ZAe/gkLDA1Fdk05bZt6hg2dTGWnpSK+/RIeF42ge7FwDdiN+GiJqZMmAx1y4gPO1PLJJDTkRhphbXT9+FWQCI+KM8LkuBu3hvt//sd+o43gp3oDleMJId9WLnACJstjuLEkvb4R/flOB7wAl7XLeHgchRbtxyCmclD8RB4HQ2f/aqYutMNAaWVQbGPECj5rAJcbsN25yKoHQ5hgczIHSyQGYaRO1ggfxg6LxSNefnypXRE/qH616rWvVYVmhiPHz9eRLGY8hgZGaF3796ix6wssEBmCGoTRtFgSp+ePHkyRo0aJSLGmpqaor798uXL4rtendD9jjwXKBpNtctUJkDPR/9P33UylCJIjFPtLLWMqgny42/h/J5JmGzsgZJYaxaeWT3Ak8DS+1o8XtwywzKjgA8IzSx4Hd+EReMUoC0R8iTmy23r1DBy5nKsORdScnhGNLzOb8RwlRGYpbNE8t7nYczIPpi65gDuR5Yc8h4yRpBfZ9li67S9cPRLeO91F6c8x5PLRtCZo4h5ixbikNVV7NtlAH19Pcm2Enqa86GoPAatxrRB/9ETYOH5GEdmLYbJmU1YvVEfGv0mY77kc9PTmQnlYV0xdpsrQt/kjEt5fgpH9Qdj/plkZFXck+qTYIHMyAILZIZh5A4WyJ8H1KvY2toa9+/fl47UDFRXS9EkDQ0NMZFnSqCUahIWZGQmKyyQv1zISMvd3V24T8+YMQMKCgoYN26caMlEfYrt7e2lR1YfdM+wsbHBnj17sGXLFsyZM0eIcVVVVRw+fPiDZRQ12+YpE6E227F0UH8suxYEr3vHcNzcHIdPHsWRwwdhtn8/9q/ThNa4/mgzdRNM9kj+bWoGa+cwJAr/sRx4Hl0C5TZN0HnECIx4dxvYBr8MmIkFZ8ukoRdlwe/UDKhNHCk5ZiTG6h/D1ecVhFjjz2Gt+hLM23rrrUnXx0gNh6/DSezfb4Stm9QxZPIe3HuWinedCYoT/PDwrDFM7mRA9EyIuorN2pMwYtxK7L/+GN7O5liyYSVmH7CEzZb+mD9dC4MGGMDS9zRObFHD8B/bYyC9vwE90Ln5L+i/zhmhkheXFnwNl05IzpHkvG3UmYRpChNgFgjk16B2ZYHMyAILZIZh5A4WyB8nOztbpBtS7Z+8Q62FSKBdvHhROlJz3LhxQ0zejY2NeSIkgRYNKP2UxMynCBkWyF8OdE+haKynp6cQMBStpVZMlM48duxYbNy4UeyrbmhRi/wVaDGNvr9Uw9yhQwdx77h69ar0qI9TswI5DoE2p2E21w7uGdFw2DcCo/p2EWneXbt2QZcukq1rd3Tv0RO9e3RDV/p3t56YZnQbgSLRJwf+l21gfcQe0hhxeXI9cO7cBZy2fy4dkIFUF5zefQgHzvnid2P4Ea6wWjVO8rolr7/nUAze6YAX7xZN/x7P7GC6czVmW0t7Vhfcw9Epo9Bf2xy3E73hfUXyfi2flETbc2MRdH4TNp0PQmSG5LO+vhhzxpSct67dJ2DqEjvUtOUkC2RGFlggMwwjd7BA/jhkREOTV6rHk3fOnj0r0iNdXFykIzUH9VumiRBN6N3c3KSjXy4kFii1ms7/p/TNZoH8eUP3WmobRw7QZmZmmD9/vqgnJuMrql2nNGASsLTgUl391+m7GhMTA39/f7GwtXbtWrRr105sZLxFTsrUwq2yjuvBwcEixbpmBHKxeN/FUm1VXFSIQmk/+jdboWRM8lpfvy58M1b4uqgk8kpU5rR94qkVr7FSz1OMIunrLCyUvGaZnlfyGBKxWVZuFtP7r+AFlO4pLnoteV7pOZI8f21oVhbIjCywQGYYRu5ggfxxKO1x9OjRwqxL3qHIDk2Aq9uw52NQfTaZdVFKcX2IsNcUNPkkobFixQpER3/Q97bSsED+/CBHefIFoO8n9Skm46u+ffuKtkz03Tl06BASEhKQnp5ebd8jMtOjlH8S22TiNW/ePHTr1g0DBw4UkWlaRCO3e3pdVREyJAwpDbxx48Y1Et1m6j8skBlZYIHMMIzcwQL549AEcvDgwaK3qLxDESCajFc2EvSp0ASIJt9Us0jpxSQUvzToXJ86dUq0dSLjpE+lxgSyiHh9YtiMqRIkUklEkihetGiRiBKTSJ01axbOnTsnHM8pskv33+qAPl+6HmNjY2FlZSVMvTp37izS/qmu2dnZWWbTQXpcej9kzEX1yf/5z3+E4GeYd2GBzMgCC2SGYeQOFsgfhyaddF4uXLggHWHKQhEvSgul9OIvMaJE75kWUA4cOCAigJ9KjQjk7CiEXdmDKevO4V5c9Ygx5sMUFhaK6Cy1FCIh3KpVK3F9LFiwQNxDqByB+gpX9yIWtaSjUhASw7RYQ2ZbFCm2tLQUopZaRckCvU6KGGtpaYk6VnLUppTwH374AX5+ftKjGOYtLJAZWWCBzDCM3MECuWIoilzSOqkAmaFXsH/8KIwkx9AxE2FkF4VkOQnM0eSbJsq1DbV/IQFA6aJfkqs1nWtlZWWRvkp1pdVBzQjkQHjtVsdXI7bhXDRPWqsbun9Sr3TqU0x1xGQoNWbMGFGPTunTtI8it9UNtVsjUUxtmChaTN9BunbIfZqc7GW9Jun9ULsninqTGJ45c6Z4L7QQZmtrK0wAGzVqBC8vL+lfMMxbWCAzssACmWEYuYMFcuXIib2NSzv7YmQPdSzS1YWeancMH7Ae+6+Go3rk0adBdbBHjx6V/qt28fb2xrBhw4QTb23VQNcl9B5JjJBArs5U0/cFcjYS7+3Hcp3ZmD1rFubMM8LpOzHv9V8tzs+Az8VlWD5vlohczpo9FzqLF8HgwFk88g2H/xF9NJ6yCybmC7FebxY0dUxx1i1J9GPNi3uCR9c248SFU9itowNtDR0sMLLB3agKPHqDr8BsnbbkuTSxZOdZOMdJx5GP5w6rsGqeBmZLXsO60w8RKn2YlBf3cO+MIewcbLF7wXxoac2H4dVQ+D24CMsts6Exdz0MD/kiquRwuYZqhskJmvoDU9SWosQkjkmkkpAkR3lKda5OSHBQNJeek8QrRXXps6ZoMQnlhw8fCrMtWaC0axLFhoaG4nFJdJMwpmvxzJkzIhW8FIqA15xJV02ShmCrndgwZ3bJd0R7PbZeCcHbwpBncDc3xJqdF3Enpkx7q1dJCL17SnKtPsbz1JLOzKW8CnPEeTMDbHUOQ35Zc+pEH9wwWw/9TWY47vduSnsEfA8ZwkDfGBZ3ovBK8r/Eh+ewd9lizNcq+Z6L1yc2A5ic90f1Xkk1CwtkRhZYIDMMI3ewQK4MqfA/uQZzew7GhifSkHG+L0zHdMOEeQdhH18yVJdQLfDq1aul/6pdKBWTokv9+vUTk+vnzz+hjYqcQxFzOs80gSVRUp2UE8j5CQi/cgDqvfqj40QFTFFSwqAWP6L9LENYvcguOUZKcV46PK3mYb66EpRUVDFz1nB0++YbfN9yIS4GxCP48Dz83GUEhk8eLNmnhFFt2qKL9lZcjCvG68Az2DquARq1V8TEScqYPqYdfvp3Byhvc0RE+aeRPJFETsR4wUxfEyMmjIWS0kgM6DESmrq3EPQyA+GOxzC7e0O0HzEWUxS6oHPn0Vix3xtxEvEQ7bwRC7r/Ed1UlkJTeTpU+zfDb/2mYMRUVSzRnoyxvdqhY+fZ2B2YjgI5nFtTxgClT5MYJfd2anNGKcdUk7t582bRT5hSrKuTjIwMkcZ/6dIl4XhNz0kbXXv0OqiumMS6rJDwpSg3vQ/67lLv5aVLl4p0cLrOP0TNtnmqKeLx9Jwe5nXri8GDJd8RyXdJacx4DJFci+tvvkCy8Ih2wJ7Of0eDBi0x2dwHbwomkgJgt24o/j7LDE5hZRaNsuPhcnYOfmvSEB1HncLT/OK3TtNPjkB7+DeSx+qA4UvulFlAlRyRcBba/X+R7GuKcatcJOI3Fl5GSmjX4Fu0GKgABXptbzZ9bLP0wadZ/9UuLJAZWWCBzDCM3MECuTLEIuDyORzWtUeAdIRw39oMk+auxEmfus+zphRnExMT6b/qBopC0USbolB1ke5d01DkmMSxurp6tYtjopxAzg6D79HdmLn45ptrLsdGCR2Up2CeTcWp7Gnep7B9oh6Wbn2AGMn/gner4D9/b46hJt4SMQAUuOtiwuihmHYwAslRNlg36m/4ursRbuZJdha7Ye/Q/2DE5O2wfedpivNSEXVcBR2UtsDUmw4uQJj1QZjqnsUtPy9YaXdE0x67cEFothBYKf+KTv1m4cCzbKR77oBWj2/RdM45BNPc+fkRqDT5GT9P2A1Xie7Ie7QZeuOaYKpZCDLLB+rqBFr0CQsLw6NHj4TJFX3mU6ZMEX2Dx48fj02bNuHOnTvSo6sXij5TT2JK36eeyBSlpmtj8eLF4jv2KUKc0r2pJRzVSRsYGIjI99ChQ4ULe2WyIeqdQC56jZwIc2i2bo7BGsfhUap8c0LhsF0BrQbMwtGAVGS/dsPRYd3R7s9/R5Mpu3AwiMpqJCQHw8lQAb8uPIp74W9r+PMCjsN0jwqaKW7Aqo5TsdcvERmlpeVPjmGh7lT87fuBWDhlHa6VPmdRAVIvz8K4ucPx019mQH/dPcm3MxoeRloY1XguzAOlx9VjWCAzssACmWEYuYMFsiwUIuXpWeyY3QN6xlfwSA5yrI8fPy5SMOuasiL5c6pJjoqKeiOOa+o8fyjFOjXUHQ/u3RVi7MrGyWirtBB61yOk+9/lNVIfmWB173GYpnMBj2ndJi8U/iba+Ln1auwPTi1JKc1xxIFRWpilcRO3Ii5h46yf0d7AAQmkeSVT9it6bTFn0XZcfSeIWJAeAuvFv2Ls8kO4886+jOBLMFH/BYo77iNCGmiLOquKPpNHQ/36M6R7GGPFyOaYefgF0knfxVpiWds5WGzsCkrAyHDfi02aLaF2OLTOBHJ2drZo1UX1tRShpWuY0ujJfZpEMUWKyX26JiBRTBHqI0eOCPFNz9ehQwfRSu1THNLJ2Z7Sol1dXYUwJiHcsWNH8Z6WLVtW5fdT3wRycU4sHm0fi5ajlsHIrXy0Pf35FRxfOhG7b8bhZd59HB4yFQsHjUFXJWWMXXcWomQ/5SluvyeQ8/H0zFIYLtTGnusPYbm6MxQNnBCSKhWFFEHWWYeOI4di9ZrhWOZAKduSL+PrOFxf2B0GG9UwpoM+Fq68xQKZYSSwQGYYRu5ggVxFigqRHmODPbM6Qln/hGTSVERTnzpHntr4UPun/v37Q0ND47MQyRQNJ+E6e/ZsPHjwQDpa/ZQTyK/zEOd7EqtG/YLmTZqiadMWaPbLt/jrAG2sc3pbE1qWvJSL2DemPWYo78b1SOkENSsET8wW4LexJjgfkVEyluGAPcM1MXW2A+xfXICJdlNMM/NHihCmkbBZSgLZCLbviODcFDeYKX+LQTrmcHonQSDJxxxrRvwHY7a44IX0adKvLsXgqdMw7UoQUh5skbyXFlh+JQ9Z9NIijmFxM3XM23pP1Fimue7EOrVGmGr+rNYEcmm/4Pj4+DemV1RHTL3PqU8xiWPKyiDxSkKzOlOoKUJNzxscHIzbt29jw4YNQri2bt1atJWjDAUS7PQaq/rdJnFCruokjK2trYU3QKdOnTBkyBBRI02eAWQ8SI9dVeqbQM5Lc8Oh6b9i1KKjuPXeragYxQV5KJB8FsVwxN4+k7Fs5VmYH9SG7pTJMHSWfOaZobhjXCqQpTUHhX6wWbkOS6bb4AWyEe+2F5pTd8E+LB0iiPzkMLTmrMSwmdrQXz0V3dY5I0fyv+I0W6zuvgwWBzdh0fjFmKtHAjkGnjvnYNhPClh13gc+T5+KKL/YwuOQ9Kp+tc9jgczIAgtkhmHkDhbIVaEYuXFesF7WBoorj+FOaL4wOmLKQ5N/ShGl1E2KgFFErrrrM2sDeh9UA0o1p7RR5LgmJ37lBHKUG07qjUGjSZtwPiACMTEv4L1nBjoqL8TSdyPIxUXIz/LG+RW9sGilOW4+LzOpzg2D/445+KnRIhj7pZZcryHHoNN9EnrMu4t7EoG8WyKQZ5gFIFnopQhc1m0LzQ8I5MKMCNiuaYMpayTX/jsCOePZDZgvaIlpJm4IlwrksDOqGDRtAubdfIE0j13YotwDG2/k4xWdwqgzWNVtPvR2uYE8vtLdzbBtXmdonXiOrFoQyCQ6KWWejO0oM4Am9dSrmGqKKRuDFnbIvIruj9UFXU8kTOPi4uDk5CQWXMgRmjIuKN2ZxCc9L7VlkmXBiwQvCWPK4li7dq3wJSAnaurFbG9vL4R+iSO/7Pj7+9crgZybehcHVX6G5lZ7eH602xWd65vY03sSFi53QmjYLRycMgltFS3hkhyK2zunoBEJ5NKi/GdW0F+2BMO2uiAlMxVR3hdgME4JhjcjIGLUAYehoa4LhS27cdZoBcb1NYVLeiISb29AD20LXL15CKaj5mGWEMgJ8DebhZ5//Ae+/bkxGkvOLZ1fsY3Tw/Z79cmiiwUyIxsskBmGkTtYIFeFLCT6HoZ+88FYbhWOROmoPJCSklKtk/lPpaCgQIhLHR0dEbk6ffp0vRLJ9FrpNdNrp1pQX1/fGp/0lRPIL5xwYM4AfKdyDB7iaUNgN70zvmk3Hcscy9v25Kc9gpVeL0zS2ICLvtllnHkl5EYgYIcivv1nI6hYhCJJogUSLkxF75GDoHQmARkh1tilJdm33/+NQL60pDVmL3w/xZrqOTMTghEen4xMkY79lqL8LKTEBiEi6RXypbWYOcnPEfIiFNGZ+XidnYSEiGdIzJIcSzsLUhH7NBoxia/E63396iUSop4iKiUPRbWUDEF9vEk0hoaGCsFHCzlkTpWTU8bFuJogsU3mV1TDTNFpMsYyMjIS5nYU0aVo8qdAr5si4N27d0ezZs3E45MDdVBQkIiSVxf1TSDnpbnAfOrPGKd7Avc+apFOV6Qj9vaeiPkLbRFclI9Im/XQnj4MS4/dg922KWi25BicI0qui9gbelDp/Q3+8nMztGvTFq2aN8QP//4vhm52RgiVF4QchYbqAkwwv45HjuYwmKwPi0fBsNnYDaMNqDf1JZgNnSsVyDHw2jUHQ38Yg0WHbuGWm5to2Sc2n2cIT33niybnsEBmZIEFMsMwcgcL5KpQiLzMKITeD0VcWqFcRY/JPdrKykr6L/mB0jz37Nkj6jnJfZcm7PIOpTeS6Vnfvn1FW53aMhwrJ5BzouFzYQGG/fMXtO7RE71768Bg9lg0HjUHqpbPkJ/oDqt966Bu/QDxEcex+qcG+OvXzdG+50AM6NtbcnxvDFJbjeO2j+BnOgffdFXE1Bn9oTC2Nzq2GwzF3WcRlCYRiT7HsU3tv5ho8gQvhUB+gfM6DTFdaxMuf75m5LUC1a3T9UOOxPTZUkumLVu24OTJk6Le+FP7Z5NYpbpoMvKitHBdXV0R/SZHbRLd1b0gRa7X9Hw//PCDSEmvDxRlR8HVYBhajluNPR4p0tESCpID4HJUHUdd4pGU6wrz/hKBvOAyhPTPccGNjVMwsrkqdOdNwE96lrgflSt5QF9Yqo/H2N4zse7UOXHPPWt9DCe3aGBs12049ljymcZYSsS1NkYd8ERs+C1c2joVM43MsKzNQKw57InoKAeYDJwjFcilNcjasAgWL6tewwKZkQUWyAzDyB0skKtCDtIj7uDcioO45pXythWIHNCrVy+sX79e+i/5guo3b926hRkzZgiRQGmtn5rqWRNQ6itF4UjQUFsdqt+ktNjaopxARjEKMwLhbr4HJkZG2L79BrwDvHHzsRfuPE1DYeZzPLp9Bcc9niMr8ym8rU7jqOke7NqxXdSZ0rbzmA3u+8ciNdQbF+4G4uEtM8kx27HD4jY840rizHnJofBzO4+7QanIE3PaLEQ8vARX9yeIpGhYZii8rp7EimNueJH3CeciOxrPbp7Gcos7CMyoX1GxqhAQEIAdO3aIa50WWahnMaVPHzhwAHfv3v2kLA9Ku6bIIqVMU10xpYOT0dbWrVvF/bsmRCvVSFN99IQJE8RzUiuo77//Hn5+ftIj5Jyi13gVshfTWrbGsAVn4f8mOSAWD3bORs+mg7DeMwFpBW6w6EsC2UaasZGDtPsXsLHrr/hno8b4X61T8EyQ7Ag2xdS+YzFC3wnlOhzHHcGS77pg/m4fpAXYYLG6Fobu9UFhbhAebB+OfzZrj5+b6uK0dwoKsh2wva/mewL50FPpY9VjWCAzssACmWEYuYMFclXIRXrUPVxacxg3fFIgLbWUC0jU6enpIStLaiEsh1BklsQDpSxTv1Vzc3O5aAdFtagkKMmUiV4bGTN9asqrLJQXyHJC/F1YLVfGV1MOwVM6JBPpnri1eRr+NmY3HOVvbURmaAHl/v372LlzpxDDtLAyc+ZMsdG1TmZbn2qgR/foc+fOCQd1Sp2mdlNUumBmZoaQkBDpUdUDvVaqtScRvmTJkjfvh7I/9u3bBwsLCzRs2FBEqOsPkfA214R6l0EYpzhfvKf50ydjePtJUNx2H34FBSiGPYxbDcJMdWs8KK1RKEhFkNVMtPl3AzSYvBfu8Ql4vnsYOg9QhPalWFG5XEIRCjJdcWDE/6LF0LW4cHgnVFXV0W2Tm+SYFIQcV8avDRrgK6VTeJhWCGRdxOrWypg89waiJBLZc7sS2jf4GV0makGLXtubbRV2nHRHSK70aeoBLJAZWWCBzDCM3MEC+fOAWrhcunRJmPTIM5T2SVEwEhNTp04VETCa6FO/2Zqo/ayI0nY+9BpIdFAaeF1O/OVSICe64vK2JWikaooLN3bBbM8OmOy/A5/49520inLT8PT2fpjtNoaxsWTbsQf7zQ/Ayv4Bnj8Nwv39umiosg+nrprgsKkxdu1zgPvzEuOjvIRgBD2yhpPLLVzYZQKTXftwwMYLIRkVOHZFOOPikd2S59oFC9uHCHkjvPMQ88gcFiY7sWPnXli6RiBFGvxOi/KEn/NFeDx2x3kTyfPsNsVlrxREBzrB4eQO7NprhUt3YirMDklLSxOimL5zlHJMzteU5kzXEC2ueHh4iPrmT4GMusjojkT2mjVrxAIYGW5RtJiyMT718d+FMjrIfV5fX1+I70GDBomoMX2OFEUuhQR506ZN600N8lsS4XNwDRZOGi9aaI2fqIEFBnfxtoogAI5b9+O0pRdelNF2hRlPcGPfEiw+eQdh6bEIvrgeJman4RIhPaCUglwE2q3Cos37cf36BRw9Y41ddqF4LRHPGeG2sFqoB1PbF0ilyznHG7Zbj+OodSBSkYnYe0dgoDYNSgrS1/ZmU8Myk1t4IvUGqw+wQGZkgQUywzByBwtkpi6gSBWZeJEgJLdrNTU1GBoaCgdemnxTP9rqhhYPqO+rg4MDDh8+LFJGx4wZI15DWFiY9Ki6Qy4FcpI7rm3RxDc9J0NtensM6tsdLb7tgfH7r8M7o3zKdWFmNG6ZjMCYgT3Rs1c/DBzYBr/971/xS+9VsPOJxmPTefi+tzJUpnbEiCE90fb7Lhi20QoeEmGb88gUBpP+hLZ9VTC6e0/0bvcD/vHTSCy18i0RFWUpLkRx4lOcM5iJ/v26omfPtmjXXRkrTQMRl5WNWDdrLBn8HzTu1Bk9Ov2MNgN1JOIkViJFgNBreljU/2uMmL0cKj17oV+zb9F4wgpo6yhDa1J3dGjcEp0Gr8eFhHJWZ0Kw0uIJmWqRaKVrZ8SIESLrgKKqZOL2qdA1f+/ePZHaT8J00qRJ6Ny5s3CCP3/+vPSo6oOEvrOzs4hO03saN24cBg8ejL179woR/qF08PrW5ompXVggM7LAAplhGLmDBTJTl1BEmcQFReLIMZqMsai2klrvXLlyRUTjyNiL6oMpykUp5NTOhlyyPwTto+MyMjKEqCF3X+pdTNF1SummFGqawFGEbNOmTcLFWF6QS4Gc6g27Jf3xh6/bQ/nIM6S+KkDA4aFoN24G1l2LxMfju7l46XscBsN0MEf/NqKKI/F481j8/Z/NMHLXY8RmAxHWiug5dgJ0bdOR/ewoFvf+M/7TbSfsMrORH30GKzp8jVEax3FX9M55S3FOAqJOaaHdlK0wI1MkRODuxlXYMMcKTn4eOD2nNxp1MoRVbAZepzlg+4Dv0GvcRlxNLEDS3dVQbv8tms09jyAqR3DejAE/f4efJ+/FPcn+6KvzoDGyCzRPRiIpJRVRUZG4ceOGiOJS/S21ZKJUZ1pguXPnzifVqNMiERl1UekBPQddj7RY1KVLF1GrT62ZSMRWJ+SmTYtE9Nopc4OuuebNm4vUbYqI/977oe9i/YwgM7UBC2RGFlggMwwjd7BAlh2KSNZ2WnBFUC0tOee+X/NYhNzkBMRFR0n2RyMxraS1jjxBKaMkBmjyTu1wKM2zbdu2YjJOUV4SzIcOHRIGX5cvXxaRPIq2UYseSvskIU1pr+TgS+KFonqlkb6BAweKjfrOUm0lRcdIKFR3muqnIp8C2R02C1XwXbsNsEyWXleRx7G04yzobLxTJkW1PEXPz2Dr8MlQ0zoLl+zXKM4NwH2Dmfhv0+Uwff6qpH7z5Xls7K8OrVUPcf/ZMegq/4y265xQIgmfwkqzMWYtOwzHGDHwhrykJzin2xAjV1rhQen6Rl4ucrJykeBtCWP1hphk7IkEqYmz777BaDdRAStcIpFydw20h7SG6uGIEnEfegRzG6thodkjkNROv7MBG+f1xMit7lixah3maMxC69athSs4mVVRWj4twNACjay1xSRCacGHrtWFCxeKfsUDBgzAypUrcfHiRZHNQAtB1SUy6LXSYhF9PyhFmxaHOnXqJL4b9Bqo9zItKFXG9Zpqqhs3biyyPxjmXVggM7LAAplhGLmDBbJs0CSXokokuKqzz+inQIJw1apV76QnF6Mo3x4W4/uhe9NmaNasCQapbcXlp8VlTGbkC3K9TkxMFKKXIl1UG0kTe2plRZE1qvWk9FOKtrVp0wbt2rVDnz59hMigSBjVEmtrawuxSVFjMh0iM7DSKLSswqamkc8UazdcWjcHDacex8M86XmLOY/V7TShtdYRH7KIKi5wxOFxbaE8YQcuBGeXtENLewIXY238OukAbiZLXaxTr8Oo7xzM0XOFU/BhbNZshWlHQlGybBECa53mmLPyCJzeEciZ0XYwmfJfjFl1AY/jpINS4tyMoDfiFyjtf4LSp0m+OB+9VOdggdMzJDmtgN7YLljnUCR5XZL3E2wB7UbaWHnES7gSv3Rcj22L+6Hz4qvo2LUnVixbKqKllIkga30/XW8kPmkxjSLGFBmm1OyffvpJXLfkcE2LPCRiP5YZIQv0PaIMCUrZJpMtEsYrVqzAiRMnRLo4fR8q83x0DAl2cskm4y5ysa6OlHLm84MFMiMLLJAZhpE7WCDLBk16jxw5IsxUKBVYHqDPkCbCN2/elI5IhPyreLiY9Yaiqh52nHSEo+NOrB43EZOVj+JOsvQgOYcWI8hVmkQEpaNSHSRN1snY6/bt20JEU3SMhDBN3Ok46r9MEXV5Ny0ri1wK5JQHuLxEDT/23IUrr6QC2XMfJjWZirEbbuNdD/Li/GBcN+iFudrbcckrTSp2JWT6wXWjBn7ssBkn43Igps9Pj0GzvTKGrXyAuxKBbDinDTSOhaPEkygYVnObQVP/fYGck+CBEzo/Ydza83j4zr4kzyPYPPUnKJh4IUH65EHmo9Fm4iQsvv0CiY7LsHRMJ2xwkgg/EshBB6H5y2wsNX+ERPr7m2uwclZ7KJkGw93TC7Ex7zxBFaH7BPUPJlFK9b0dOnSAioqK6I9M1y5dr9XtPJ+dnS2yJMgEj6Lf9LzUAo6+HxQtrmzmBJUrUL9mEsWUWk6LT9S66scff6w/bZ6YWoUFMiMLLJAZhpE7WCDLDkUlNTQ0sGfPHjGZrGvo9VDElCKuJeQhM/IKDFoOh95ZH5QE2wolumQBZo4aAn37VLmNIn+JyKVATvOC7fy++Nt/BmCde8lQwqmRaNxXAXPOPpOK2RJyXz7GFcPxUJ+3HtefSQdLyQuB+7rR+Oe/OmPhjTxQpWvmVRV06jcMKmcSkeRvjs2arTHzyPP3BLLjO35tRWnhuLWhF5pN2YFrvuWbrRVkxOL5Ewd4hKWhtG1zSuhdOD5wg//LbOQlBcDf/S6CJWpYTOEzw+Fz0xv+4Wki5To/MQj+nrfgH/f76caVhbIWSFBaWlqK+ywt6FS3KE5JSRFmW5Q2TSUJtFBGZQlUZ0wR66rU2tO9zNHRUWRpkDs3ubxv27ZNPA6VNzRq1EikmjPMu7BAZmSBBTLDMHIHC2TZodRDqsWjyW9l6vdqmtJoFW0lFCA33R8uFo8QHJ/zpu441mEhlk5pjyWXs0pEAiMXyKVATryPiyvGokHTgZg9fyrUZ07DgH79oWhmDe8EiaQMd8HZE6bYeNsPScH7sOBfDfDXhoMwRlkdaqrTRMRx9jpz2N91xwPDKfhTswGYOkdJIuSmYXjfvhhjdBgPJWI1574R9JW/h4LpM5R4Jwfg+PRvoLzQDI5JQHbwBZy1WI1j99Mkl/UrJD66iEVTu+HRg1vi6C8Ruv+QCzWVeZBxGJUgkEDeuHGjyGqhOvvKQvX/VPtPvdSp7zE9FgljinyX7VVOmRls0sV8DBbIjCywQGYYRu5ggfxlkeJtBZMFwzBv9UG4RkkHGblALgVy5gsEODtgywkH2B6dhflaaphtYAuPJOmCULgbzp06iC13/JGZ6Arb1augpzMHs9XVROsu2uYYHILDg1BEP7qJraduw/bEXOjNU8Oslda4E1GS7pv1whmO54xw9mGy1Bk7Ed4XDHHe7hFe5EkE9NNLOHdkHU48SHuT9RB3ZxNexVRPJDPxyUXccLTH4yjZXalrCzLxov7dJGRHjx4tFiHWrl0LOzu7KruyU60/mdpRJgyJa0VFRdGj/GOO1tzmiakIFsiMLLBAZhhG7mCBXD2QiQ9Fk+Uh1ZrMecjdmRyhy05yMyNtcUh/AKZpG+JisHSQkRvkUiB/IXjt7YUJU6fA0FU6IEcUFRUjRPJ9phTnY4fMsHb1SiFkR44cKZyvqRa/Kjx//hxXr14V6ddUm6ykpCR6LZMz/O/1H2eBzFQEC2RGFlggMwwjd7BArh4o1ZEiL1QHWJ1OtLJALVtMTExEhOnVq9Iq0RQ46HXDxGmLcMhfOsTIFSyQP4FXkXj28AauX78BRxcPRJYtjhZkIyXMC/evX5ccI9nsbsDB6S5c7gQhPKMAj46OxuzF02Fwxhfekv03bj3Ag7jSFm55ePnCBzEhT+D56KHkb+1x0/UxfBPee5K3FKQi1tde8lx2sHO8h5CU128i34WpYQhwpn034HTfG3GlnlmZ0fALTcCz5wF45ueCe87uuOfqgTOnDkN5zBj8+a9f4ZsW3bBijQGiIiOlf1Q5qPyCFs0oZZpENV1r1LpqwYIFVWrZxAKZqQgWyIwssEBmGEbuYIFcPdCEgNq10MTT399fTEjrkjNnzggX26ys0km8J85rLMamdTfgXffl0swHYIEsI7np8Lq8EmpDGqJ580Zo2a4HFphFIDrndZka+0g8Nl8E5ebN0bxFS7Rq1QJNv/8n/vCvudjpmQr3S8rQ1umJMeM1MV1yTKOWbdBq3gm8SCuWPEYMrizvCp2xfdBjxGQ0b/YbfmzYAa1WXUPsqw+0Syt4hRduh6A76RfJ62mCpo0aQXndffglFyI3Jxz2JkoY1uJXyb6GaNWuFxacSkYqrand34lhk5di4Mg2GNi6Af7wP//A//25Cb7/7le0a9gQjb77Gq2mWeBGSE6lzPUom4UiwnQ/IuO+xYsXCxdtavVETveUXv2hNOqKYIHMVAQLZEYWWCAzDCN3sECuPsisa926dSJ9sa5Trak3M7VEejsBzkLKixjEx2W9bb3DyBXyLJDpeibnZTJ+IsdkcmauLWM6mmxT6yK6pmmjexa1KipdhMp03IppOrOhfPgRYmO94Wa2CtN77MD5yPQyLtuFyM9KwcvYOMl3IAbRvo44pjsCv2qawzGiAFEXlTHg17+g9aRDcIyNlgjuJZjduCOWW8YioSAODsvboGGzvlA56oPYyFs4Nns4/t1sLky9c9/7PhV6ncJaXWX0235T8nqeIuzaNmh02YCD9+Nw324WRg/qgnG7XJGU6IHrKyfjpxaaMLj2FJ4nV6Jno2/xv3/7P/z483fo0ezvaP6//8IPHTfjXOhTRFxYgR6NdbDgYghSpM/1ISiDhdo5nT9/Xph3kSimnuGUVUKlIPTZySpgWCAzFcECmZEFFsgMw8gdLJCrDxIMJB7IEbauI8jv44WL2sthuNEBPnVfJs18AHkUyKVO7dTKjEoIOnXqJNoIGRgYiBr3mob6WDs4OEBfX188L9XekkHVtWvX8UoimiXyGM6b+2H6zMU4GFDyN8hJRVRQDJLzykaQy5DzHC5756LvzG04HJSEXInODz02Fp0H94DSkacSKS0h6QHOLRyKlvqX4ZPwFHdWd0Lf8fNhJnRhGgJP62Paz2rY5Z6N8g2b8hFwSh3aiqOx7p50qDgLccExSMqKww2DrlCZvgCHhQdAIR5dNUTXH7/C9806oWurhvjbH/+L8RvM8CD4Gfwv6ENvcnMo7Q4tEfrBFlD7VQNLjnniQ1ZcdM+hfuFU5kF9i4cNG4YdO3aI1kxBQUFiceFTYYHMVAQLZEYWWCAzDCN3sECuGWiySrXA8jNReIkXrg/h4xWNZJ67yCXyIpBpocfFxUWYOFEEsnXr1hgyZIioVyV3YycnJ/j4+IiFoJogOTkZly5dgrGxsYh89u3bF3PmzMHOnTtFD2ESe1FR0dII9hOcUmoGleH6uPC2G9HHyQ/F41266NhaE7p3X0jkdQm+5iOgOGcGtt3LKxl4GQR7YyX8rHsSj6L9cHtVR8xctBO24jkSEXhpIxY1nI39j94VyFFw2jAY09qPh9l7pb1+uDCtHSZ0UcT09Ycwa9ZsjB7UDiO7/BNdJ+nimP50dB4wG4ttn4qjcz1NsUWnLeacTZDcT/KBwEPQaaqDNSe9pT3NS6BoMX1WtHgwePBg4UhNztRubm5VavVUGVggMxXBApmRBRbIDMPIHSyQa4acnBxs3rwZlpaWIj2UYX6PuhTIlD5NdakWFhZQUFBAt27dMHbsWNEXl8YoihsSEiI9umbw9fXFtm3bRPSTRLGysrLo6UsRUSpf+PD36BkuareH+uSVuPBcOvRR4hB4YjvmdluAxReCEC8dJfwOjcRQNQWscChJXn4d+xBHV7TF94sPwyMmALdWdsAcvX24IUye4+F/bj10PiiQk+Gyaxw0B07EQW/pkASqVL7vegwjWv+Kfzb4Cm27DcQy/aU4uVcby8f9CsVNDki4thPj1NZj4eUSi/mXLjuxQaMNZp2IRkGRRLgHWkC7yXxsuhQmeRaJMH7+XLR3IlE8b9480beYPitX15qz4maBzFQEC2RGFlggMwwjd7BArhmo1ZK5ubloxULRHDrPDFMRtS2QKR2XosFkLjdp0iQRJZ48eTLmz58PQ0NDXLlyRRxTk1BPX4oUUy9fEuaqqqriHBw8eBC3b9+uRKlCHtx39sTgKZOxzqNkpOipE46uNsf1gAzJ3lIi4G21HSvHr4bhqRjp2FuCT4xB+8YtMXSbH8gvqzj0KFZ1/Bv6b3JBSHokHCViWUN3D64L8+iyAjkH736z4+11sWBGT0w+9lTyHu5gt9EWaKmpYqzqHEzo/zW+/fE7DNQ7hiJEI+/edgxu3Q0ah70RZ2eMYVOWYcGlktT1UoGseVr6GTw9gmnNJqPXyAVQX66HeVpa0NbWFosIDx48qLGIfllYIDMVwQKZkQUWyAzDyB0skGsOqt+klipUM0kROoapiNoQyNQDlyKM+/btEy7n48ePF6KY+uBSxoONjU2VnY2rAgleLy8vkS69Zs0aEfWcMWOG6MVLBnfu7u7SIytPkocZFun0wwBlXWzapIfFk/pi+BATnHmciqD7Fjjv5I5wPxvsHNwKf/9rL6hs2oHtmzZJjpVsm0/ghn867h0cjmFtf0Cn0VtgsmkDlmgOhkL/BbjokYus4mhc0PoBylqGuBxOzxgLn1OS1/0vFex6kIaMpCe4e/QOPEMzEfEqA9fNddGvx9do0HQgGjdpigYNGuBvTUZBd9dpeF1bj/VaA9BXIoS3Gy6BxoDOaKNoCftnWch32oAOQ7Qx62xJH7Zcz70wntcW0w+F4bazK1bPHoKfGvyE/zbpjfGzVLF161bRuqk2YYHMVAQLZEYWWCAzDCN3sECuWWJiYkQtsjxCr4sEibe3t9y+xi+J3xPIZFhV1YUWErskij08PMRCzaxZs4QYpeeiFGqKPlJdb01CqdEU4Tx9+rQQ5rq6uqK2mDYy+yJn5U8lztUUBpP7o1+//hipogPLAMl7l0zSA86oY43ZWXi5PoDd7gUYOWooBg/oJ9K4aes/YAFMnOLx0GEnjl9YD6Mt27BcMj5AQQtGt0sjsvFws5iHfYevwiOJ/p2KmAfWOLH4ONwl/86JcMDSfpL3pLoeCrrzMW7sGExWGAuFkUOEUdbYSSrYezsDpV2Vo+/twfrJAyXPPwCjZyyGdanXWeB5rN1xGqd8k8X38eaxlVAa+B06TVmDOfMWYcTwUZg8Wh37LzpCvIw6gAUyUxEskBlZYIHMMIzcwQK59iAXWRIrVJ8sD7x48UL0RqXoIaW5RkVFSfcwdUFFApnMlug7SosZvwcJUlqYoWPJvGnu3LminrdLly6YMGGCiJzWtAM1pfuS+zXVNR85ckREq1u0aIHRo0fD1NS03mdUFBUDMXEx8HzsgStXrmLL1i0YMKA/2rdrhxUr9BH8tMRoq6q8kpwXNxdn0ZJp2nRVdOveA4oKE8Vnn19Ayd91C9WJN23atFYczJn6B323u3fvzgKZqRIskBmGkTtYINce5CpLTsB0rkks13UrKHIBJvMjStWkaJ6dnZ10T0nfW+o1y9QeHxPI5Oq8dOlSkQ59//596Wh5aNGFrin6PGmSunDhQlH/3rJlSxExpsgOiWY6jlL/awISxbTIQtFqeg29e/dG48aNhTgmszpakKH7TXX1T6bHqqn38iGKil4jNSVF8j7CYXfjBpavWI6+fXqjT99+WLNuDZ49CxECt6o90LMy0hFN583TC4csLNCndy+xkHDqtCWePPFHbk52tZ2zT4UiyD/88INwGaf0bt54K7vR/atz584skJkqwQKZYRi5gwVy7UHihFxme/XqJVJN5cXdmqJ5sbGx4loohVJiySiJTJTodda1mP8S+JBApr7aJI6/+uorIZDLOkmTaKJriqJ6u3fvFqnLXbt2Rdu2bYXZ1cmTJxEREYGkpKRyn211QdcELaKQMH748CE2bNgg0pYpgkRGXySigoODkZCQIEzrqgN6nMzMTCHUKDpO12dNQ+c5OjoaZ86cgY6ODgYNGiQWH2jRgb4ntCggS49h+kzovFFEf8CAAcI5nEy3yJwsLi5OLheoSAT98ssv+PXXX0WqNW+8ld2+//57jBo1Snq1MEzlYIHMMIzcwQK5diGxcvnyZVy7dk1uUq3fhSJg9BpJCDRv3lw4DMsiAJiq8a5AprRq+vc333wjjJ4oKpyYmCj2kbDau3evaO/TqlUr9OnTR/QKvnjxokhtpmhtTV5ftGhCtcuUEUGRYpoUkyEdLapQpgTVFVdn1JMiUiSKqWaa3LZJiNNzV0f9ckWQuKfaaWo7Red55syZYuGBXgtF9mWBvl9Uw0tiuGPHjlixYoVwEifzNPrc5Bl67ZSlQJkM1CubN97KbnRfqo1FK+bzggUywzByBwvkuoGitvKahkbGThTBovrRLVu2iEhZac1oZGSkuFaodRVNlOt7Lak8UVYgU3slEpzffvutEMd//vOfRVSYoqYk0ihKTMcvWbJERDZJrFK0tiahRRKKCtProlpmql0ncUfXB10rVF9fnVFPug5p0k0lACoqKpg4cSJWrVolsjBsbW3h7+9fbZHpslDU3cjICP379xfnmKLGpc8ZFBQkk/Cn10nniEQ9PeaUKVOEQRktRFFUlssZGIb5UmGBzDCM3MECuW6hiBFFxezt7aUj8gWl0dI1UppiTa+XIpdqampYvXq1iBgQtJ8EEkXGSKjVZm3o5wIJJ2p1RBw6dAj//ve/hTim7Y9//CN+/PFH4TxNIpFSqq9fv17j0ZrS1OK1a9cKgU5RTxLxJCCvXr1aIxFcunZITJKxGKUyUwYDCXGK5JZNMa9OKE2d+pZTlJ7aTlFknlLbqZaaIruyQt8dEsHU45kel8Q2nUtra2uxCMUwDPOlwwKZYRi5gwVy3UIRWYrI0QSaBIC8pzJTpIsibA4ODiKd96nUrZeifbdu3RJChloJHT169I0AoPZEJHguXLggIpBlI38URaeaUk7hhhCDVLtLwpcixKXiuOxGAplEa01CItTR0VH0RSZRp6mpKYy21q9fL15bTbidU631uXPnRB01RVlJoGppaYl+yRRFpvtUdUOLOo8ePRJReEVFRdEPWl1dXTi6U69mWaE0eHovdL5IcNOiAm30/a7plHCGYZj6BgtkhmHkDhbIdQ99BpTKTJFkqlGuj5DQffbsmajPXLNmjYjGlYoBEgwUddbQ0BDima41qq8lSOxRGyCKRpMY8vHxeZPCSkLt+PHjIlpKEVWq+/yc3VEphZgcYEeMGPFBcUwb1cFSmjUJyuqCzjctepSKYkpnpgUbclImwX7jxg2RWlydUA0ztQo6f/489uzZIwy+SIyTWRVdJ2fPnpUeWb3Qd41MsOg56TtHbc4oXZyi4uQLIGtdMUELB3SdkuCmaDtlBJDQp0g7wzAM82FYIDMMI3ewQJYPKDJbWodIgoXMgT6XvsQkasklm4QJRZ4pLZuiygTVX1LEjiJ3lEpLUenS8+Dk5CQiez169BBijfZRpPpzhYRap06dxAIDnYvBgwdj4MCBwhWaNhLHX3/9tRDRZOpUXdcHGS/RZ0KCkZ6PUpvpM6HPpqYggU/RaIqskukW/T9lGdRELS4txtD7s7GxEQs1JF7pnkcLErSQ8ynPSSnudJ1SdJgWuIYNGyYen65zTqFmGIb5fVggMwwjd7BAlj/oMyHxQO1fKL2Uosqfc+SUoHTX0q2U0n/Te3933+cIRRzLuljTYgD1Lqa6broeqE811f5SCjKJaIp4Vie1fY5Ln6+mnpOEMYlXEvuUvk5p62QsRlFrWoCS9XlpAYsWDyjKTZ8Xub2Ty/WyZcvelBwwDMMwlYMFMsMwcgcLZPmDhFFAQIBId6UoItXzykvPZKbmIIGsr68v/df7kDCjaCe1b6LvbaUdnIuLUJCTgZT0V8gprMJCS3EBcl5lITUrD/Uhbk/fG+rJTGn77u7uwv26Xbt2wvW71GwrIyPjTQp/VaAoO6Vfk0kdLVZQlJge29DQEN7e3kKM02fCMAzDVA0WyAzDyB0skOUTmsTTpJsm9TQBL51812TEjalb3o0gv8u9e/dk65ObEw/vQzrop74DpwKqUOMeextHN6/CiE0OqA/J/qHPnolU7WbNmomILrl9U79eisLLKl4pe4EEN0WLKfWc0tvHjx8v+j2TWzubyzEMw3waLJAZhpE7WCDLPySWS2tvyaiK6h1lEkqMXPMxgUwijdLtqXcuCb6KoL7U72Ub5Ebj/paR+KafLkw8qlAXG34ZhtrT8evc86gPV9t9Nzdx/k6dOiVKE8h47FOgGmLq903130pKSkIUU5o7pbyX1tAzDMMwnwYLZIZh5A4WyPUHSqklR+FJkyaJaBZFFGVJF2Xkkw8JZBLHlB787bffCmfpDxlnkSgmp2RheDV4CK453JWMpuPxKX2MGTEWk8bOx8r54/DDWAOYe8eX/JGU7KgHsN4wFMOHDsXQocMwdMQYjFcYj+Xmzgh/7AyLDSvQQnUTDhoNx8hhIzBq/CHciMoF5TAk3rfA2WOLsVEi3hdI/nb4KGUoGznAPyu/5MHfpTAd4RdXQ2m05HmGjsQc09sIlAZgCxPdcWnLGIyUPM6wsSpYczEMaWJNKBcB13fg3MG1MN+/H1pDh2O0ig622YbB3XIeFigPw8ixa7Dr6nM8TU365DZKZLq1a9cuIYjJxIvqvfdLnvfu3btc5sAwDFMDsEBmGEbuYIFcfygoKBB9k62trYVj7p07d94IZKpLZeo37wpk+rypzVXz5s1FiycygSr9nCm6SZFSalNEDuDUTmipnh42bNwEHz8n+FrqYlaXdug5YwPWLF2E2SMa4V8Dl+PQk/Ip1nkvg+B8ejXWrF6N1esNsG35WLRt8DP66lxBZLQXTi0aib+37IPpEqG4YvECjGnTEr12nYOnRNgm28yAQqs/omFPXaxYrYt5Y9rihx8GYO3lcCQXSJ+glLxERDoex/SpMzBd8jpXr1bE6PYqWLvXD2Gxwbiir4burftAYbUeFqt0Q8/OU7DnchRS8RruuwZjSNsf0FNzB3asXAid4W3wXY9xmDBjFtasX4TpPVpjwNTNsPmEgDHV/NP5JVFM55R6k5Pj9YMHD6RHMAzDMDUBC2SGYeQOFsj1EzINos+utB7Z2dlZRL4sLCxEzXJNtMthahYSyCTSCMoWIAFMzsv/7//9P/zf//0ftLS0YGlpCRMTE+jq6gphTNkEJKptbW2RkZkp/hZZ97Bzam+0H2GAB8LHKwgOen3w46DlMPNJFId8mCT4mK7BgvH7ccwtDq/zXGAxqQv+8usUbPMvOSLm4iR06aMDk3vpiHBehKGtf0LnpfdBz1wcZIal7b/G9G2eCJa+lFLyIm/BesUAtFnsIE3XToH3XnOctfKH993dWDq0I3ov9IDoQvzSAZv6/gXtNQ7jXuorPDs6Eb3bdsKkI9GSnYXIvLAE7b5qj4kHA8TzRh4bhsmKE2HgUPlFIipZIPG7b98+IYYXLVokjLeobtnPz096FMMwDFPTsEBmGEbuYIH8eUDp1iSgqI8tCShKuy2FIpGM/EM9dA0MDIR4IyFM4vgPf/iDiB6TQKZaWBJx1COZRDH1DaZ2Re9S5H0IC2bMQI9NdyAymF+nIuPyGrSasAl7H8eKY96jOBSeWydjfFttbL0Sjpc0FnsNuyWP00ThNLzEQa+BpyexpJE21lmG4u6dBZgytQ9mnCt5zGzJ8ftVfsUCMy8EZ4ihNyQ8NMN6pV+heiAAye/o2GfWGtBS6YNlttK63sIMPNgpEfRqa3AqOBwhhyZAdZIijNxoZyJirxpi6m+rcMg/GbQM9OzYeKjPUca2W7+/KEQReEqXpvM8f/58ETGmXtvUPisxsaLFA4ZhGKYmYIHMMIzcwQL584GEMImm27dvS0cgeihTlMzGxgaBgYHi82bkE+rVu2TJEhENbt269RtxTNuf/vQnfP3116L/MbUqqogCt91QV1BAj813kUIDhSlIlwjklh8TyEWJCLFfgHkdB2DNkaeIKi1rj7wGk3maaKV1ESFiIB/wPIAZv2phmVUYbt3SwWKNUVhnVyJMs6JssHvyr5hv+r5AjnbeiiWDv8OEnd5IKFfKmw+fI5OhNLgztK2lAjUvGY93DMN30w1wPOg5AvYNwSxFZZiJwG48os+vxdh/L4DJ43jQQwWbD4GS6nhscHhfIFOmRWxsLDw8PGBvbw9zc3OxwNCvXz9hukUO1wzDMEzdwQKZYRi5gwXy50fZNlDket2zZ0+0atVK1Kn6+0tzZSVQpLLSvXTrKa8z4xD9LBABAYEIfh6D5HJvtwjZ8ZH/v737gK6yStc4PkVknJl7XTM4XstVlDJGuIiICIjCSBGkN0GatAAhdIj0IB2kSu8jTUAggPQaCL0k1JAEEiCEkkBCIAFCTZ579s4JQijjzITxg/x/a30LTj85OSdrPefd+311LCTYdXmIIk6d19W7J2glndPJ8BAdDg7W4fCzOn/PhRnPLJfOlSuXHVGUFozvPkwV2SzDNl+CPLI527GF6uVZV4XbzpdZlGyqriemeCpHeV+NCry3i/WtaxcV7grUAxqV1OAlMamBOk30Ko2qXkEvFxmkFfbhknV9YRvleb2hvBef1u51LdWmSTn1XJ5aEn5UQL4UslhTuhVX2xkhik3X6+rU+r7q51NDfVa4H/3aeW0YXlJFOg7V0hNnFf69p3q299Fcm9JjFb16jFoVG6AZh2JlHvn4fE/5dG2j8dvufy+bUWmLFi2ylfeCBQuqZs2a8vPzs+970wANAPDLIiADcBwC8tPNVNBMQyezL3n16tX3jL6JiorSwoULbYUtMTHx6QsMt6O1YXQ9VczzpnLmzKHcRSup48yjSnJny+RbGzSjfkkVfSOn6/Ls+qBCS03afsMsJHYlx0sKndRSpd/PpRw5c+rNd2rI8+/bdO724wvJpkt19uzZbVA2y6tfffVV/eUvf7HHiy++qD/+8Y/63e9+Z0Py+vXr74z+us/tCK3tXUGf56uhkdvjdCp0oYbWyK4/FWmnCfvPK+VWkhIvX9GVm7d0assQ+XyaU1V6Lta+yIuKvxivCxfiFJ+YpJsn12lsLQ8980ZpDfCP09mTR7Wwax5lb9BT34fe1rmljeT5ZWl1XeoOyCf9NKzqy/IaHagQV0C+fT1Rl69cVtLNFNdjXlfS5TgluF785HQvYfIN13NJjNfl6+73X0qyrl2OVWzCZV2/nazbSZeUmJCgpLQf9/Y1Jca57vdWsu2mffvaJSUkJujqjft/N+Y1Mn/jzPJpUy02KyrYcgAAzkFABuA4BOTMwwSDtMqjCcM7d+5UnTp1bBgz1eVTp1LrjfHx8YqLi7unEv0kurCqt8o3bqJGI1Zo9+6NmvfN56qX5zN965+sxOu3tHfKJ/qiUSsNnrPbdfksjW5UQ5VKD9OyyEuK2/2dOuRrrLbjFsl/926tGFxLJb/4VE3mpy42fhzMEmuzj9z8Ho4dO2ar/aZT+bp16/TDDz/YveVmFrIJ0qYZ24NGPqW6rWuhfppcr6iyZffQe4XyqGErL31Sebj8Dp5XYtBEeffoJ99tQTqzupOq//ZX+sMrbytv3jzK87aHPDw89HGbadq+eqmm92ypV0s3UKcmHsqT9229/ElLjdh1TFdcb6OT8xqoeeOy6n5XBXlEjdfUatw+Hb0mRf3opa6+HTV5x0PGPgEAMj0CMgDHISBnTib8miC8Z88euz9527Zt9r1g7Nq1yzYwqly5snx9fe0y7SeuupxySivaV1fdrtO01D1rV+F++vaLEiowaL3Cz6zXhKLV1X70BqXFzLMrBqh9tY/UctJGbR5RV1WafK/1Ue4LL/lpeK2qKlNtlva7z8popkmX2WP8IOb1Nw2mzAqA0NBQO+7r0XuRr+tCxG4tW7xQP65YpYPHTys4+KziLt/QzbhQbQvcp6BzcboRF679q9dq5bLF8vNbaFcUmGP59iM6F31O0a7H2XHoqI7sWahFrvfJjzuilOB+K1yNDlZoyD5FxKaecfvaeUUd3Kqw05eVlOL623Jym/YE7VLY+Qx67yQc0Z45I1Vn4HIdSKQKDABPAwIyAMchICM9syTbzFru0qWLRo4caSuaadXkZcuWqXXr1vLy8rIzetOaHJnL7+6c/cu7qKNbA3Qo9KzuxMhTmzWj0/+pYO+VOnb+qA75HVBYZKJpPWXF7Rio3rVzqfmU4woP2qAtEXFKSLvweoAmt/DUezW+0wH3WRkt/Rzku5mAbJbCmyXzmVb8Di3zrav/qjpWAek6YQMAnkwEZACOQ0DGw5hZyhcvXnSfSmU6LHfq1Em1atWy1eWIiAh7vtnraZYCd+zY0S7XNmOKTNA2rl69aivVZrnwvn377GiitKXe5nZm6fdjX84ds1Pzh1XVZ95emr/zvK669yGnuXhwvsa0LS3Pr0Zp60n3mWmuHdBi304qU6ePfAMibOfkx+FRAdl8Pk03clM5fpSgoCAdP546adhZkpQQ+L18WnnJy6uV2o1ar+BL91eWb10+q11z2qtT6xZq0cJ1tGyrDl18NGTmah0+ECz/b330xhcjNXV6W3Xv2EKt2s/UqpDUoctXTmzXtpVDNHPBbH3bsqW8W7WXz/gN2nvh4eOfbh2Yp6HdW7keq5V6TF2jfWldypLjdfhHH3V2vV+8WrbTkB9DFeP+biL68CoFLBillatMl29vtWrzlcZtOK3QrdM1ra+XvNsO0Xi/iNRRWQCARyIgA3AcAjL+Gab7rwm3JqgFBwffWZZtKpxmmbanp6fKli2r4cOH2yZgRnR0tIYNG2aDc7t27ewc2rRK6NGjR22Vulu3bnYWbVhY2J2wHBISYkfxDBw40IZDE/7+paXecUe1cmpblW5UU11Xpe6zvtvlk6s1vU8p1W32teb+1OQ71Y2T2j/CV18UdwX/7w7KPan3sXhYQDZfSvz1r39V48aN7+wTT2O+XDBfPkybNk19+vSxlX3z+jpLouJ2zdeEGuXkUbyKKlb5WB75i6vWmKU6HHtvRfxWQpQCJtVTw9rVVK3GF6pX5yO9neV5vfFxf/mHntS24Y2VrUA5Va/zN9WuVU3Fc+RTsV5TFOAKtte2D5FPqV8pR4G6+rxyJVUunkN/evEjtf57oGLSN7hOvqabEds1rH19lar0mapVK6GiBaurw4BAHYuPV+iCEfrivVeVr2x5VSnzV71buI6GzImwXb7DFnqp8ft/0If1u6q563Gqv/eaXivVSDUb1FKrJpVV+p08KlSqs2Yco8wNAP8IARmA4xCQkdHubgZmXLp0yY4mmj59ug3KpqN2Wgg2+5vN7N+KFSuqYcOG2rJly50QbDo1m0r1hx9+aPdDm3E9D+3c/FC3FOPXTrVrfKZKM+8Px3JFnoBepVWjcl0NC3KfdUeyknYPUrX/ayDPYbvuHYH0GDwoIJvZvW+99ZYd89S7d+87P7/5giIgIEBjxoyxS94/+eQTlS9fXgMGDNCJEyfsdR4Hc9/md2lGJW3atMl2h/6HEndoYafPVbhQX623b4vbOjq8pF4t10K+6x81hzhZ57ZOVM+yndV19F7FKUJbun6q5/47v2rNiLSV/Asr66nYp65gu/CCLoaNV4sif9BLpaYo0Nw8zk+93n9eFVvM1qZ0TzM5MVLBY2vqrTqjteCEeU3jFTTyG43stlQB+/01vk5+5fpkmvxNfr+xQ6NKZ9N7lXrJL+aazq/rpOrvvKx3fNYqxtzZjkH65KVX9FaT2TrgCuIXVnqraYWCajE72nbZBgA8HAEZgOMQkPF0S9KhBZ017OteWvzABtQhWtOrl77psli706/ETUlW7JqhajxwgqYEPv4FsyYg+/j42P+bLxhMOM6TJ48Nx88884wmTpyo/fv3a8aMGbaJWpUqVexIqHHjxmn37t2PbX+yWSpvOmqbUNyzZ0+7QsB8aWFWBAQG2ij6aCF+GlS/mF6q0FPfbd6qbVu3aNu3jZS7YEM1mL7XzjK+301d2DhAbQtWV9Mea2QL+5f3al23hnr53QGaE3sjNXzGLVLfwp7y9t2lgJBxals3hwoP2em6tUvKIc32fFOePWZp473jn3X19FZNa/GKKn29RPvThedzu8apd/1cqjchVAnu72MOTyqnPJ/XU4+tkYpd20leZQuo5bxY13NwJf5DE9X8TS/1nH3QFbPles90lU/jD9Rqbowr4gMAHoWADMBxCMh4uiXrSuwJnY2KUvwDt6Je1cWTUToTGa8r95X7UnQz/rTCz8TonJlr9JiZgNy9e3f7/7Vr1ypfvnx27rEJyM8995wqVapkK8U5c+a0o57M6Cfz+TUV+4xm7tMEYzM7u2nTpipZsqR9bFPFNmHcdEA3e8vvXinwUKHLNKKeh5558TXlzp1TuXLl0ltveShXzi/11fcHFe2+2k9uKylmhgYXz6tGzV3hNtodMy8Eak3/Fnq95mRtTHD/zDF+8i3YVJ49d2p98Bj1aZpPTaZHpc6yvn1AszxzqFnP2dqULiAnHF+sIdVfUkXfpTqULiCf2dRX7T7LrS+nhCnR/ePF+nnrg4at1SUgQjGrOqhTtY/V365kv6nkA+PVPIe3fL8/YFcZnFvVRZ2aFFbreQRkAPhHCMgAHIeAjKdbkvbPaaP+X/lobrD7rHsEa8VXX6l367namrqd+icpyTq/op9q+47Q6G12Me1jZQKyCaBm2bkJo88++6wNx+bImjWrsmXLprFjx9rGaKbRWUZXjM3ybTNKynTLXrJkiapWrarXX3/dVosHDx5sZzOnb9r2swQv1MBWnyl32xk6EHbcNhELDw9VWFikoi9eMzXYn7he86txmzWrfUG17b1AW0/dtaQ+cZ/WdWmg/8njq+9i3LfaN0rVPWqqXN+92uoKyP1cAbn59FOp93lrv2Y2zeEKz/cH5KQzOzXD+39Vvuci7UsLyLeu68a16zq7a7L6Ncip2qOCFe9OuPtG/U0eNeqq146oOwF5wCb7FYqS949Tsxxe6jFrv+Jc17UBuTEBGQB+DgIyAMchIOPpdlsJpw/qyOFgnU5tdpxOomIOH1bYwdO6cFcWS5WiGzFHtCc0QscupO/ylPHMkumiRYuqXr16+vWvf30nHN99mCZoJsBmNNP8a+rUqbYybZ5D3bp17d8Es8/YLK/+l4JxmqRALfP9UiWKfq1V7pXqkYua6Avvzhq15UzqUmm3xFNrNa1NEdVsM0Ibjqcr6Sceln/nkvrjn/OrzY9XZL7PODG9nN7+tKpaL0/UxaAR8m2SV03+HnUnIM9o8oaaPmCJdUp8uDb0Kalc1QZqdpjZzRytLf3qqPOX32j+2u2a0qCQchQZpaUXXb/3i2s06OMXVKT6IK2Iu6GoZd7qWKWY+vmnBeSx8nyjhbrPdAfklZ3VsVEhllgDwM9AQAbgOARkwBlq1Khhq8SFChXS888/f08FOe3IkiWLDa+myvzvMh3EJ02aZDtfmyZoptnXiBEjNGfOHNsszXQszxgpSjiwXDPrl9NrBYqrWPGP5PGn/CrtO1MbTiYqJWSZxozor/YrA3Xu0DC1+MOv9LuXCqhI8VIq+bfiKl68uD7zHqYlq7do48D6+n3+ymrSpIQqfVZc77z3qb6ctlzhCVLCxj76qs4bqjMp0h2QgzS1zguq5/OdAuJdlwdO0NjBLTXK33XiVpIuhm1U78bv6IMPi7geo4AKfFBOnYZtU3j0FZ1YM0XNi72gXIWL6qNCrylfiRYav+y0zHcswfMaybvMu+q5zh2Qg0aq/gsN1WlakB3tFLOsnbxr51XTWdEEZAD4BwjIAByHgAw4Q4UKFWwVecWKFVqwYIFmzZplu1QPGjTIdqfu3LmzateubcOs+bxevnzZfct/jqkIm/t6//33VbhwYbVs2dKO09q+fXuG7mc2j9OrVy/Nnj3XdeqGroas1LABvdWnd28N+Gadgs67S/ang7R6xSLN2HdcSRf2a7PruYwZOlD9+/a2S87NMWjaMu0JjlL04T2auSZI21YM1MjBvdVvYoCCL6TG0KunA7Vrw1z5h15ODabJsQrzn6WNO4/IrMhOOr5Wa5ZM1crgn9bSXwiaqslD+7geo59G+e3S0Tsv6WUd3zRMw/u6Lus7SH/fFKl499ONCw/Q1pV+CrQNuJOVEntIG2dt0s4jsTLb3JNObtfWDQu0OfzqPdVxAMD9CMgAHIeADDhDmTJlbJfohzHh9fTp03betJl9bD67P4fZq2wqwmbEVocOHWwH7ObNm9tgbDpjp5+t/O8yz810427UqJHq16/vCsiz3ZcAAHAvAjIAxyEgA87woDnIdzMzh00TrZ8jMTFRO3futJ2uTfXZLJ+uWbOm6tSpY4Pyz5pf/DOZ57R161b7N8Q082rXrp3tuG2qx6ahGAAAD0NABuA4BGTAGR4WkFNSUhQQEGCXQYeGhrrPfbC4uDg7P9mMizJ7mk1VulatWpo2bZod25SRTAj39/fXN998o2bNmtlRUGaJuFkW/q8u/wYAZC4EZACOQ0AGnOFhAXnz5s0qUaKEXR79oA7W58+ft027TFgdNWqUDar58+e392Vua8Y3ZRQz/zgsLMxWjCdPnqyyZcvaJlqmsZd5buaxTKAHAODnICADcBwCMuAMDwrIZvawmYlsxj6ZpdJmP7EJoKZCa4Kx2Y/s6+srDw8P5cuXT97e3ja8xsbG2s92RoXVtCXbQ4cOtaG4QIECatCgga1Wm6p1Rjb3AgBkHgRkAI5DQAacIX1ANvt3Tcfq3/zmNzYgm67W5vO6bt06denSxXa9LlWqlHr06KElS5bYKrJp4pVRkpOT7f7i/fv3q2vXrsqTJ4/atGljH8ucd/LkyQytTgMAMh8CMgDHISADznB3QD5y5Ijdz2vCsZl/bAKyCammavvBBx/I09NTw4cPt92po6Ki7G0yiqlSmz3Pbdu2tUu7TRA3DbdMtTg8PNwGZwAAMgIBGYDjEJABZzANtczM48jISDvvOGvWrDYcmyNLlix2GbWpFi9cuFAHDx7M8EZYJhivWbNG1apVs5Xrr7/+2jbcWrRokU6cOOG+FgAAGYeADMBxCMiAM1SsWNGOYjLLp9OCcdrx29/+1v47cOBA97UzxsWLF7VgwQI7t7hJkyby8vJS+/btbdfr6Oho97UAAHg8CMgAHIeADDiDGcuULVs2+3lMH5DTjhdeeMGOcDp+/Lj7Vv+amJgYTZ06Vc2bN1eLFi3s0m2zpHrevHl0oQYA/McQkAE4DgEZcAazrLlw4cLq37+/OnbsaMNr1apVValSJXuY8U2mUdbHH3+smTNn2pFL/wwTqpcvX27HM/Xp00fVq1e3M5JXr16t69evu68FAMB/DgEZgOMQkAFnME26TCOu9C5dumSXQpuu0Wau8dKlS22oPXr0qPsaD2caapnGWiZQd+vWTeXLl7cBu3Xr1tq7d6/7WgAA/DIIyAAch4AMOIMJyJ07d3afut+1a9fuzBs2wfdh3aRNs60zZ84oJCTEVoxNGDYzkk1ADgoKss29zHUAAPilEZABOA4BGXCG9HOQ77Zz507NnTv3kd2kb926ZUc+maZbDRs2VIECBex9jhw5UseOHbOVaAAAnISADMBxCMiAMzwsIG/fvl1Fixa1I54etu/YNN0yAbpYsWL2fiZMmCB/f38dOnTon96rDADAfwoBGYDjEJABZ3hQQI6IiLDh2HSwHj16tPvcVGZP8tixY233a3Nb09Rr4sSJ2rRpkxISEtzXAgDAuQjIAByHgAw4Q/qAbAKwCb1pI542btxozzdNt3r27KkyZcqoXbt2tiO1CcYBAQH2cgAAnhQEZACOQ0AGnMEEZB8fH/t/syy6ZcuW+v3vf38nIJt5xb169bLnm+BsQvKePXvs9QEAeBIRkAE4DgEZcAZTER4wYID9TJognDVr1jvh2Byvv/666tatq6FDh9qZxgAAPOkIyAAch4AMOIOZUdysWTO71/jZZ5+9Jxyb491339X8+fOVkpLivgUAAE82AjIAxyEgA85gmm0999xz8vDwUJYsWe4LyOZ45ZVXNHjwYDvOiaAMAHjSEZABOA4BGXCGqlWr2mXUZq9xrVq1VKJECRUpUkRvv/22DcbZsmXTn//8Z7300kvq3Lkz45sAAE88AjIAxyEgA85QtmxZeXt768KFC4qNjVV0dLTOnj2rU6dOKTIyUoGBgdqyZYuWLFlil1qHhIS4bwkAwJOJgAzAcQjIgDOYJl3du3d3n3o087k1BwAATzICMgDHISADzpB+DjIAAE87AjIAxyEgA85AQAYAZDYEZACOQ0AGnIGADADIbAjIAByHgAw4AwEZAJDZEJABOA4BGXAGAjIAILMhIANwHAIy4AwEZABAZkNABuA4BGTAGQjIAIDMhoAMwHEIyIAzEJABAJkNARmA4xCQAWcgIAMAMhsCMgDHISADzkBABgBkNgRkAI5DQAacgYAMAMhsCMgAHIeADDgDARkAkNkQkAE4TlpA/uGHH9znAPglVKhQQT4+Pu5TAAA8/QjIABzn6tWryp07tzp06CB/f38ODo5f6MibN686derk/mQCAPD0IyADcJybN2/aytWbb76pXLlycXBw/EJH9uzZNX78ePcnEwCApx8BGYAjxcbGKjIyUseOHePg4PiFjlOnTtktDwAAZBYEZAAAAAAAXAjIAAAAAAC4EJABAAAAAHAhIAMAAAAA4EJABgAAAADAhYAMAAAAAIALARkAAAAAABcCMgAAAAAALgRkAAAAAABcCMgAAAAAALgQkAEAAAAAcCEgAwAAAADgQkAGAAAAAMCFgAwAAAAAgAsBGQAAAAAAFwIyAAAAAAAuBGQAAAAAAFwIyAAAAAAAuBCQAQAAAABwISADAAAAAOBCQAYAAAAAwIWADAAAAACACwEZAAAAAAAXAjIAAAAAAC4EZAAAAAAAJP0/dmI278gkjxkAAAAASUVORK5CYII=;" vertex="1" parent="1">
          <mxGeometry x="130" y="50" width="968" height="492" as="geometry" />
        </mxCell>
        <mxCell id="Eg9znYKyI77uhNzEZewx-2" value="a.a.a.a" style="text;html=1;strokeColor=none;fillColor=none;align=center;verticalAlign=middle;whiteSpace=wrap;rounded=0;" vertex="1" parent="1">
          <mxGeometry x="290" y="340" width="60" height="30" as="geometry" />
        </mxCell>
        <mxCell id="Eg9znYKyI77uhNzEZewx-3" value="a.a.a.a." style="text;html=1;strokeColor=none;fillColor=none;align=center;verticalAlign=middle;whiteSpace=wrap;rounded=0;" vertex="1" parent="1">
          <mxGeometry x="216" y="293" width="60" height="30" as="geometry" />
        </mxCell>
        <mxCell id="Eg9znYKyI77uhNzEZewx-4" value="a.a.a.a." style="text;html=1;strokeColor=none;fillColor=none;align=center;verticalAlign=middle;whiteSpace=wrap;rounded=0;" vertex="1" parent="1">
          <mxGeometry x="640" y="390" width="60" height="30" as="geometry" />
        </mxCell>
        <mxCell id="Eg9znYKyI77uhNzEZewx-5" value="" style="endArrow=classic;html=1;rounded=0;" edge="1" parent="1">
          <mxGeometry width="50" height="50" relative="1" as="geometry">
            <mxPoint x="664" y="410" as="sourcePoint" />
            <mxPoint x="666" y="436" as="targetPoint" />
          </mxGeometry>
        </mxCell>
        <mxCell id="Eg9znYKyI77uhNzEZewx-6" value="(a.a.a.a的)" style="text;html=1;strokeColor=none;fillColor=none;align=center;verticalAlign=middle;whiteSpace=wrap;rounded=0;" vertex="1" parent="1">
          <mxGeometry x="870" y="334" width="60" height="30" as="geometry" />
        </mxCell>
      </root>
    </mxGraphModel>
  </diagram>
</mxfile>
